{"glyphs":{"0":{"ha":781,"x_min":64,"x_max":718,"o":"m 391 -11 q 214 40 288 -11 q 102 191 141 90 q 64 439 64 291 l 64 555 q 102 806 64 705 q 214 959 141 907 q 391 1010 288 1010 q 568 959 495 1010 q 679 806 641 907 q 718 555 718 705 l 718 439 q 679 191 718 291 q 568 40 641 90 q 391 -11 495 -11 m 391 136 q 481 168 444 136 q 537 261 518 199 q 557 416 557 323 l 557 582 q 537 737 557 675 q 481 831 518 800 q 391 863 444 863 q 301 832 338 863 q 244 738 264 800 q 224 582 224 675 l 224 416 q 244 262 224 324 q 301 168 264 199 q 391 136 338 136 m 193 245 l 127 357 l 591 753 l 652 644 l 193 245 z "},"1":{"ha":781,"x_min":123,"x_max":681,"o":"m 342 0 l 342 846 l 374 814 l 138 709 l 138 869 l 452 1000 l 502 1000 l 502 0 l 342 0 m 123 0 l 123 144 l 681 144 l 681 0 l 123 0 z "},"2":{"ha":781,"x_min":71,"x_max":713,"o":"m 75 0 l 75 41 l 347 387 q 441 506 397 449 q 512 615 485 562 q 539 718 539 668 q 520 793 539 760 q 468 844 501 825 q 393 863 435 863 q 311 841 347 863 q 255 783 275 820 q 235 696 235 745 l 71 696 q 114 859 72 788 q 229 970 156 930 q 393 1010 301 1010 q 550 974 481 1010 q 659 872 619 937 q 699 724 699 808 q 672 592 699 654 q 597 466 644 530 q 489 328 549 402 l 345 151 l 345 145 l 481 148 l 713 148 l 713 0 l 75 0 z "},"3":{"ha":781,"x_min":61,"x_max":721,"o":"m 391 -11 q 225 26 300 -11 q 106 129 151 63 q 61 283 62 195 l 223 284 q 247 204 223 238 q 309 151 271 170 q 393 132 348 132 q 478 153 440 132 q 537 210 515 174 q 559 292 559 246 q 536 373 559 337 q 469 429 513 408 q 358 450 425 450 l 312 450 l 313 583 l 365 583 q 451 603 415 583 q 506 659 487 624 q 526 735 526 693 q 509 806 526 777 q 461 851 492 836 q 391 867 431 867 q 319 851 351 867 q 269 806 287 835 q 251 739 251 777 l 96 739 q 133 878 96 816 q 237 975 170 939 q 391 1010 304 1010 q 544 977 477 1010 q 648 883 610 943 q 686 749 686 824 q 649 617 686 674 q 550 528 612 559 q 411 498 488 496 l 411 539 q 570 510 500 543 q 680 418 640 478 q 721 279 721 359 q 677 132 721 197 q 559 27 633 66 q 391 -11 484 -11 z "},"4":{"ha":781,"x_min":33,"x_max":753,"o":"m 481 0 l 481 592 l 488 766 l 483 766 l 397 629 l 216 353 l 216 349 l 753 349 l 753 210 l 33 210 l 33 304 l 496 1000 l 641 1000 l 641 0 l 481 0 z "},"5":{"ha":781,"x_min":69,"x_max":715,"o":"m 386 -11 q 255 14 318 -11 q 143 83 192 38 q 69 189 94 127 l 217 254 q 258 192 231 218 q 319 151 285 165 q 391 136 353 136 q 478 160 440 136 q 537 225 516 184 q 559 319 559 267 q 536 411 559 370 q 475 474 514 451 q 386 497 436 497 q 329 489 357 497 q 278 467 300 481 q 243 432 256 452 l 116 452 l 116 1000 l 640 1000 l 640 852 l 272 852 l 272 517 l 235 574 q 301 616 254 596 q 409 635 349 635 q 566 594 496 635 q 675 480 635 552 q 715 316 715 408 q 671 146 715 220 q 552 31 627 72 q 386 -11 478 -11 z "},"6":{"ha":781,"x_min":52,"x_max":730,"o":"m 393 -11 q 218 33 295 -11 q 96 151 140 77 q 52 312 52 224 q 64 409 52 360 q 99 501 77 457 q 144 580 120 545 l 427 1000 l 609 1000 l 328 587 l 301 596 q 352 625 321 615 q 420 634 384 634 q 574 593 503 634 q 687 481 644 553 q 730 314 730 409 q 686 146 730 220 q 565 31 642 73 q 393 -11 489 -11 m 392 134 q 485 158 444 134 q 549 224 526 182 q 573 317 573 265 q 549 410 573 370 q 485 474 526 451 q 392 496 444 496 q 299 474 341 496 q 233 411 258 451 q 208 317 208 370 q 232 223 208 264 q 298 158 256 182 q 392 134 340 134 z "},"7":{"ha":781,"x_min":44,"x_max":737,"o":"m 155 0 l 522 846 l 522 852 l 44 852 l 44 1000 l 737 1000 l 737 967 l 328 0 l 155 0 z "},"8":{"ha":781,"x_min":50,"x_max":731,"o":"m 391 -11 q 219 28 296 -11 q 96 133 142 66 q 50 281 50 199 q 96 431 50 365 q 219 534 142 496 q 391 572 296 572 q 564 534 487 572 q 686 431 641 496 q 731 281 731 365 q 686 133 731 199 q 564 28 641 66 q 391 -11 487 -11 m 391 130 q 483 150 441 130 q 549 207 524 171 q 573 288 573 243 q 549 371 573 334 q 484 430 525 408 q 391 452 442 452 q 299 430 340 452 q 233 371 258 408 q 208 288 208 334 q 233 206 208 241 q 300 150 258 170 q 391 130 341 130 m 390 471 q 243 508 309 471 q 138 607 177 545 q 99 745 99 669 q 138 881 99 821 q 243 975 177 941 q 391 1010 309 1010 q 537 977 471 1011 q 642 883 603 943 q 682 745 682 823 q 642 604 682 666 q 536 506 602 542 q 390 471 469 471 m 391 588 q 465 608 432 588 q 518 661 498 627 q 538 734 538 694 q 518 806 538 775 q 464 854 498 837 q 391 872 431 872 q 318 854 352 872 q 264 806 284 837 q 243 734 243 775 q 263 663 243 696 q 316 609 283 629 q 391 588 350 588 z "},"9":{"ha":781,"x_min":51,"x_max":730,"o":"m 388 1010 q 564 966 486 1010 q 685 849 641 922 q 730 688 730 775 q 717 591 730 640 q 683 499 704 543 q 637 420 661 455 l 354 0 l 172 0 l 454 412 l 480 404 q 429 375 460 385 q 361 366 398 366 q 208 406 278 366 q 94 519 137 447 q 51 686 51 591 q 95 853 51 780 q 216 968 140 926 q 388 1010 292 1010 m 389 866 q 297 842 338 866 q 232 776 256 817 q 208 682 208 734 q 232 589 208 630 q 297 526 256 549 q 389 503 338 503 q 482 526 440 503 q 548 589 524 549 q 573 682 573 629 q 549 777 573 735 q 483 842 525 818 q 389 866 441 866 z "},"A":{"ha":781,"x_min":3,"x_max":778,"o":"m 3 0 l 309 1000 l 473 1000 l 778 0 l 606 0 l 529 279 l 515 342 l 393 791 l 388 791 l 267 342 l 252 279 l 175 0 l 3 0 m 179 235 l 179 378 l 602 378 l 602 235 l 179 235 z "},"Á":{"ha":781,"x_min":3,"x_max":778,"o":"m 3 0 l 309 1000 l 473 1000 l 778 0 l 606 0 l 529 279 l 515 342 l 393 791 l 388 791 l 267 342 l 252 279 l 175 0 l 3 0 m 179 235 l 179 378 l 602 378 l 602 235 l 179 235 m 391 1050 l 321 1122 l 536 1323 l 614 1223 l 391 1050 z "},"Ă":{"ha":781,"x_min":3,"x_max":778,"o":"m 3 0 l 309 1000 l 473 1000 l 778 0 l 606 0 l 529 279 l 515 342 l 393 791 l 388 791 l 267 342 l 252 279 l 175 0 l 3 0 m 179 235 l 179 378 l 602 378 l 602 235 l 179 235 m 391 1060 q 275 1084 328 1060 q 190 1153 222 1107 q 157 1261 157 1198 l 257 1261 q 298 1180 258 1207 q 391 1154 338 1154 q 486 1180 446 1154 q 525 1261 526 1207 l 625 1261 q 595 1153 627 1198 q 509 1084 563 1107 q 391 1060 455 1060 z "},"Ắ":{"ha":781,"x_min":3,"x_max":778,"o":"m 3 0 l 309 1000 l 473 1000 l 778 0 l 606 0 l 529 279 l 515 342 l 393 791 l 388 791 l 267 342 l 252 279 l 175 0 l 3 0 m 179 235 l 179 378 l 602 378 l 602 235 l 179 235 m 372 1214 l 312 1291 l 526 1484 l 598 1385 l 372 1214 m 391 1059 q 269 1084 322 1059 q 186 1156 216 1110 q 157 1260 157 1201 l 256 1260 q 293 1179 256 1211 q 391 1147 331 1147 q 488 1179 450 1147 q 526 1260 526 1211 l 625 1260 q 595 1156 625 1201 q 512 1084 565 1110 q 391 1059 460 1059 z "},"Ặ":{"ha":781,"x_min":3,"x_max":778,"o":"m 3 0 l 309 1000 l 473 1000 l 778 0 l 606 0 l 529 279 l 515 342 l 393 791 l 388 791 l 267 342 l 252 279 l 175 0 l 3 0 m 179 235 l 179 378 l 602 378 l 602 235 l 179 235 m 389 -298 q 313 -268 345 -298 q 282 -191 282 -237 q 313 -115 282 -146 q 389 -84 345 -84 q 466 -115 435 -84 q 496 -191 496 -146 q 466 -268 496 -237 q 389 -298 435 -298 m 391 1060 q 275 1084 328 1060 q 190 1153 222 1107 q 157 1261 157 1198 l 257 1261 q 298 1180 258 1207 q 391 1154 338 1154 q 486 1180 446 1154 q 525 1261 526 1207 l 625 1261 q 595 1153 627 1198 q 509 1084 563 1107 q 391 1060 455 1060 z "},"Ằ":{"ha":781,"x_min":3,"x_max":778,"o":"m 3 0 l 309 1000 l 473 1000 l 778 0 l 606 0 l 529 279 l 515 342 l 393 791 l 388 791 l 267 342 l 252 279 l 175 0 l 3 0 m 179 235 l 179 378 l 602 378 l 602 235 l 179 235 m 409 1214 l 183 1385 l 256 1484 l 469 1291 l 409 1214 m 391 1059 q 269 1085 322 1059 q 186 1156 216 1110 q 157 1260 157 1201 l 255 1260 q 293 1179 255 1211 q 391 1147 331 1147 q 488 1179 450 1147 q 526 1260 526 1211 l 625 1260 q 595 1156 625 1201 q 512 1085 565 1110 q 391 1059 460 1059 z "},"Ẳ":{"ha":781,"x_min":3,"x_max":778,"o":"m 3 0 l 309 1000 l 473 1000 l 778 0 l 606 0 l 529 279 l 515 342 l 393 791 l 388 791 l 267 342 l 252 279 l 175 0 l 3 0 m 179 235 l 179 378 l 602 378 l 602 235 l 179 235 m 391 1059 q 269 1085 322 1059 q 186 1156 216 1110 q 157 1260 157 1201 l 255 1260 q 293 1179 255 1211 q 391 1147 331 1147 q 488 1179 450 1147 q 526 1260 526 1211 l 625 1260 q 595 1156 625 1201 q 512 1085 565 1110 q 391 1059 460 1059 m 404 1205 l 344 1266 q 382 1298 366 1280 q 398 1339 398 1317 q 381 1372 398 1360 q 333 1384 364 1384 q 298 1381 319 1384 q 261 1371 277 1377 l 261 1469 q 303 1480 276 1476 q 350 1484 330 1484 q 458 1452 418 1484 q 498 1359 498 1419 q 469 1265 498 1307 q 404 1205 440 1223 z "},"Ẵ":{"ha":781,"x_min":3,"x_max":778,"o":"m 3 0 l 309 1000 l 473 1000 l 778 0 l 606 0 l 529 279 l 515 342 l 393 791 l 388 791 l 267 342 l 252 279 l 175 0 l 3 0 m 179 235 l 179 378 l 602 378 l 602 235 l 179 235 m 256 1305 q 294 1435 256 1385 q 398 1485 332 1485 q 458 1473 434 1485 q 501 1446 483 1461 q 535 1419 519 1430 q 571 1407 551 1407 q 611 1428 598 1407 q 623 1485 623 1449 l 725 1485 q 709 1393 726 1434 q 659 1329 692 1352 q 581 1305 626 1305 q 524 1317 547 1305 q 481 1345 500 1329 q 446 1373 463 1361 q 408 1385 429 1385 q 371 1365 384 1385 q 357 1305 357 1345 l 256 1305 m 490 1059 q 369 1085 422 1059 q 286 1156 316 1110 q 256 1260 256 1201 l 355 1260 q 393 1179 355 1211 q 490 1147 431 1147 q 588 1179 550 1147 q 625 1260 625 1211 l 724 1260 q 694 1156 724 1201 q 612 1085 665 1110 q 490 1059 559 1059 z "},"Ǎ":{"ha":781,"x_min":3,"x_max":778,"o":"m 3 0 l 309 1000 l 473 1000 l 778 0 l 606 0 l 529 279 l 515 342 l 393 791 l 388 791 l 267 342 l 252 279 l 175 0 l 3 0 m 179 235 l 179 378 l 602 378 l 602 235 l 179 235 m 225 1286 l 388 1158 l 393 1158 l 557 1286 l 631 1207 l 409 1047 l 373 1047 l 151 1207 l 225 1286 z "},"Â":{"ha":781,"x_min":3,"x_max":778,"o":"m 3 0 l 309 1000 l 473 1000 l 778 0 l 606 0 l 529 279 l 515 342 l 393 791 l 388 791 l 267 342 l 252 279 l 175 0 l 3 0 m 179 235 l 179 378 l 602 378 l 602 235 l 179 235 m 227 1052 l 152 1131 l 374 1291 l 410 1291 l 632 1131 l 559 1052 l 394 1180 l 390 1180 l 227 1052 z "},"Ấ":{"ha":781,"x_min":3,"x_max":804,"o":"m 3 0 l 309 1000 l 473 1000 l 778 0 l 606 0 l 529 279 l 515 342 l 393 791 l 388 791 l 267 342 l 252 279 l 175 0 l 3 0 m 179 235 l 179 378 l 602 378 l 602 235 l 179 235 m 596 1217 l 524 1271 l 725 1481 l 804 1379 l 596 1217 m 226 1042 l 151 1120 l 374 1280 l 410 1280 l 631 1120 l 557 1042 l 393 1169 l 389 1169 l 226 1042 z "},"Ậ":{"ha":781,"x_min":3,"x_max":778,"o":"m 3 0 l 309 1000 l 473 1000 l 778 0 l 606 0 l 529 279 l 515 342 l 393 791 l 388 791 l 267 342 l 252 279 l 175 0 l 3 0 m 179 235 l 179 378 l 602 378 l 602 235 l 179 235 m 389 -298 q 313 -268 345 -298 q 282 -191 282 -237 q 313 -115 282 -146 q 389 -84 345 -84 q 466 -115 435 -84 q 496 -191 496 -146 q 466 -268 496 -237 q 389 -298 435 -298 m 227 1052 l 152 1131 l 374 1291 l 410 1291 l 632 1131 l 559 1052 l 394 1180 l 390 1180 l 227 1052 z "},"Ầ":{"ha":781,"x_min":-22,"x_max":778,"o":"m 3 0 l 309 1000 l 473 1000 l 778 0 l 606 0 l 529 279 l 515 342 l 393 791 l 388 791 l 267 342 l 252 279 l 175 0 l 3 0 m 179 235 l 179 378 l 602 378 l 602 235 l 179 235 m 185 1217 l -22 1379 l 56 1481 l 258 1270 l 185 1217 m 555 1042 l 393 1169 l 389 1169 l 224 1042 l 151 1120 l 372 1280 l 408 1280 l 631 1120 l 555 1042 z "},"Ẩ":{"ha":781,"x_min":3,"x_max":778,"o":"m 3 0 l 309 1000 l 473 1000 l 778 0 l 606 0 l 529 279 l 515 342 l 393 791 l 388 791 l 267 342 l 252 279 l 175 0 l 3 0 m 179 235 l 179 378 l 602 378 l 602 235 l 179 235 m 581 1217 l 519 1263 q 553 1299 540 1280 q 567 1335 567 1318 q 550 1371 567 1358 q 500 1383 533 1383 q 466 1380 484 1383 q 431 1370 448 1377 l 431 1469 q 472 1479 445 1476 q 522 1482 499 1482 q 627 1452 587 1482 q 667 1358 667 1421 q 653 1298 667 1326 q 619 1250 639 1271 q 581 1217 599 1229 m 224 1042 l 150 1120 l 372 1280 l 408 1280 l 630 1120 l 557 1042 l 392 1169 l 387 1169 l 224 1042 z "},"Ẫ":{"ha":781,"x_min":3,"x_max":778,"o":"m 3 0 l 309 1000 l 473 1000 l 778 0 l 606 0 l 529 279 l 515 342 l 393 791 l 388 791 l 267 342 l 252 279 l 175 0 l 3 0 m 179 235 l 179 378 l 602 378 l 602 235 l 179 235 m 154 1305 q 192 1435 153 1385 q 297 1485 231 1485 q 357 1473 333 1485 q 398 1446 380 1461 q 432 1419 416 1430 q 469 1407 449 1407 q 508 1428 494 1407 q 522 1485 521 1449 l 625 1485 q 610 1393 625 1434 q 565 1329 595 1352 q 491 1305 535 1305 q 432 1317 456 1305 q 390 1345 408 1329 q 356 1373 372 1361 q 319 1385 340 1385 q 274 1365 292 1385 q 256 1305 256 1345 l 154 1305 m 224 1042 l 149 1120 l 372 1280 l 407 1280 l 629 1120 l 555 1042 l 391 1169 l 387 1169 l 224 1042 z "},"Ȁ":{"ha":781,"x_min":3,"x_max":778,"o":"m 3 0 l 309 1000 l 473 1000 l 778 0 l 606 0 l 529 279 l 515 342 l 393 791 l 388 791 l 267 342 l 252 279 l 175 0 l 3 0 m 179 235 l 179 378 l 602 378 l 602 235 l 179 235 m 231 1069 l 70 1286 l 181 1347 l 313 1108 l 231 1069 m 470 1069 l 315 1286 l 425 1347 l 555 1108 l 470 1069 z "},"Ä":{"ha":781,"x_min":3,"x_max":778,"o":"m 3 0 l 309 1000 l 473 1000 l 778 0 l 606 0 l 529 279 l 515 342 l 393 791 l 388 791 l 267 342 l 252 279 l 175 0 l 3 0 m 179 235 l 179 378 l 602 378 l 602 235 l 179 235 m 546 1062 q 474 1090 503 1062 q 446 1161 446 1119 q 474 1233 446 1204 q 546 1261 503 1261 q 617 1233 589 1261 q 645 1161 645 1204 q 617 1090 645 1119 q 546 1062 589 1062 m 240 1062 q 169 1090 197 1062 q 140 1161 140 1119 q 169 1233 140 1204 q 240 1261 197 1261 q 311 1233 283 1261 q 339 1161 339 1204 q 311 1090 339 1119 q 240 1062 283 1062 z "},"Ȧ":{"ha":781,"x_min":3,"x_max":778,"o":"m 3 0 l 309 1000 l 473 1000 l 778 0 l 606 0 l 529 279 l 515 342 l 393 791 l 388 791 l 267 342 l 252 279 l 175 0 l 3 0 m 179 235 l 179 378 l 602 378 l 602 235 l 179 235 m 390 1065 q 314 1096 345 1065 q 283 1173 283 1127 q 314 1249 283 1218 q 390 1280 345 1280 q 466 1249 435 1280 q 497 1173 497 1218 q 466 1096 497 1127 q 390 1065 435 1065 z "},"Ạ":{"ha":781,"x_min":3,"x_max":778,"o":"m 3 0 l 309 1000 l 473 1000 l 778 0 l 606 0 l 529 279 l 515 342 l 393 791 l 388 791 l 267 342 l 252 279 l 175 0 l 3 0 m 179 235 l 179 378 l 602 378 l 602 235 l 179 235 m 389 -298 q 313 -268 345 -298 q 282 -191 282 -237 q 313 -115 282 -146 q 389 -84 345 -84 q 466 -115 435 -84 q 496 -191 496 -146 q 466 -268 496 -237 q 389 -298 435 -298 z "},"À":{"ha":781,"x_min":3,"x_max":778,"o":"m 3 0 l 309 1000 l 473 1000 l 778 0 l 606 0 l 529 279 l 515 342 l 393 791 l 388 791 l 267 342 l 252 279 l 175 0 l 3 0 m 179 235 l 179 378 l 602 378 l 602 235 l 179 235 m 391 1050 l 167 1223 l 245 1323 l 460 1122 l 391 1050 z "},"Ả":{"ha":781,"x_min":3,"x_max":778,"o":"m 3 0 l 309 1000 l 473 1000 l 778 0 l 606 0 l 529 279 l 515 342 l 393 791 l 388 791 l 267 342 l 252 279 l 175 0 l 3 0 m 179 235 l 179 378 l 602 378 l 602 235 l 179 235 m 412 1067 l 351 1128 q 390 1160 374 1141 q 406 1200 406 1179 q 389 1234 406 1221 q 340 1246 372 1246 q 306 1242 328 1246 q 269 1232 285 1239 l 269 1331 q 311 1341 284 1337 q 357 1345 338 1345 q 466 1313 426 1345 q 506 1221 506 1281 q 477 1126 506 1168 q 412 1067 448 1084 z "},"Ȃ":{"ha":781,"x_min":3,"x_max":778,"o":"m 3 0 l 309 1000 l 473 1000 l 778 0 l 606 0 l 529 279 l 515 342 l 393 791 l 388 791 l 267 342 l 252 279 l 175 0 l 3 0 m 179 235 l 179 378 l 602 378 l 602 235 l 179 235 m 389 1265 q 508 1241 454 1265 q 593 1172 562 1217 q 624 1064 625 1127 l 524 1064 q 484 1145 524 1119 q 389 1172 444 1172 q 297 1145 337 1172 q 256 1064 256 1119 l 156 1064 q 188 1172 156 1127 q 273 1241 220 1217 q 389 1265 326 1265 z "},"Ā":{"ha":781,"x_min":3,"x_max":778,"o":"m 3 0 l 309 1000 l 473 1000 l 778 0 l 606 0 l 529 279 l 515 342 l 393 791 l 388 791 l 267 342 l 252 279 l 175 0 l 3 0 m 179 235 l 179 378 l 602 378 l 602 235 l 179 235 m 137 1105 l 137 1216 l 644 1216 l 644 1105 l 137 1105 z "},"Ą":{"ha":781,"x_min":3,"x_max":789,"o":"m 3 0 l 309 1000 l 473 1000 l 778 0 l 606 0 l 529 279 l 515 342 l 393 791 l 388 791 l 267 342 l 252 279 l 175 0 l 3 0 m 179 235 l 179 378 l 602 378 l 602 235 l 179 235 m 688 -285 q 592 -250 629 -285 q 555 -159 555 -215 q 593 -61 555 -104 q 693 28 631 -17 l 778 0 q 720 -47 747 -24 q 675 -93 692 -70 q 658 -142 658 -116 q 673 -177 658 -164 q 715 -190 689 -190 q 756 -183 734 -190 q 788 -168 778 -176 l 788 -262 q 741 -278 772 -272 q 688 -285 711 -285 z "},"Å":{"ha":781,"x_min":3,"x_max":778,"o":"m 3 0 l 309 1000 l 473 1000 l 778 0 l 606 0 l 529 279 l 515 342 l 393 791 l 388 791 l 267 342 l 252 279 l 175 0 l 3 0 m 179 235 l 179 378 l 602 378 l 602 235 l 179 235 m 391 1044 q 306 1066 344 1044 q 245 1126 267 1088 q 222 1211 222 1164 q 245 1297 222 1259 q 306 1357 267 1335 q 391 1379 344 1379 q 476 1357 438 1379 q 536 1297 514 1335 q 557 1211 557 1259 q 536 1126 557 1164 q 476 1066 514 1088 q 391 1044 438 1044 m 391 1137 q 443 1158 422 1137 q 463 1211 463 1180 q 443 1266 463 1245 q 391 1286 422 1286 q 340 1266 361 1286 q 318 1211 319 1245 q 339 1158 317 1180 q 391 1137 360 1137 z "},"Ǻ":{"ha":781,"x_min":3,"x_max":778,"o":"m 3 0 l 309 1000 l 473 1000 l 778 0 l 606 0 l 529 279 l 515 342 l 393 791 l 388 791 l 267 342 l 252 279 l 175 0 l 3 0 m 179 235 l 179 378 l 602 378 l 602 235 l 179 235 m 391 1037 q 280 1080 325 1037 q 236 1186 236 1124 q 280 1293 236 1251 q 391 1335 325 1335 q 501 1293 457 1335 q 545 1186 545 1251 q 501 1080 545 1124 q 391 1037 457 1037 m 391 1116 q 441 1136 422 1116 q 460 1186 460 1157 q 441 1237 460 1217 q 391 1256 422 1256 q 341 1237 362 1256 q 321 1186 321 1218 q 341 1136 321 1157 q 391 1116 362 1116 m 437 1367 l 368 1438 l 583 1639 l 661 1538 l 437 1367 z "},"Ã":{"ha":781,"x_min":3,"x_max":778,"o":"m 3 0 l 309 1000 l 473 1000 l 778 0 l 606 0 l 529 279 l 515 342 l 393 791 l 388 791 l 267 342 l 252 279 l 175 0 l 3 0 m 179 235 l 179 378 l 602 378 l 602 235 l 179 235 m 156 1073 q 194 1203 156 1152 q 297 1253 231 1253 q 358 1241 334 1253 q 400 1213 382 1229 q 434 1185 418 1197 q 469 1173 450 1173 q 510 1197 496 1173 q 524 1253 524 1221 l 625 1253 q 588 1125 627 1177 q 481 1073 550 1073 q 423 1085 447 1073 q 380 1114 399 1098 q 346 1142 362 1130 q 309 1154 329 1154 q 270 1132 283 1154 q 258 1073 258 1109 l 156 1073 z "},"Æ":{"ha":781,"x_min":6,"x_max":757,"o":"m 6 0 l 271 1000 l 424 1000 l 424 853 l 366 853 l 240 336 l 234 281 l 161 0 l 6 0 m 171 238 l 171 377 l 477 377 l 477 238 l 171 238 m 404 0 l 395 321 l 395 347 l 377 1000 l 757 1000 l 757 855 l 517 855 l 538 144 l 757 144 l 757 0 l 404 0 m 515 436 l 511 578 l 730 578 l 730 436 l 515 436 z "},"Ǽ":{"ha":781,"x_min":6,"x_max":757,"o":"m 6 0 l 271 1000 l 424 1000 l 424 853 l 366 853 l 240 336 l 234 281 l 161 0 l 6 0 m 171 238 l 171 377 l 477 377 l 477 238 l 171 238 m 404 0 l 395 321 l 395 347 l 377 1000 l 757 1000 l 757 855 l 517 855 l 538 144 l 757 144 l 757 0 l 404 0 m 515 436 l 511 578 l 730 578 l 730 436 l 515 436 m 496 1050 l 427 1122 l 642 1323 l 720 1223 l 496 1050 z "},"B":{"ha":781,"x_min":73,"x_max":726,"o":"m 220 0 l 220 148 l 425 148 q 526 188 488 148 q 564 296 564 227 q 524 402 564 364 q 417 440 484 440 l 212 440 l 212 574 l 378 574 q 443 593 414 574 q 487 644 471 611 q 503 718 503 676 q 467 817 503 782 q 374 852 431 852 l 212 852 l 212 1000 l 368 1000 q 525 967 459 1000 q 625 877 590 935 q 661 747 661 820 q 640 640 661 690 q 585 553 619 589 q 512 500 551 516 l 513 541 q 621 494 573 528 q 697 408 669 460 q 726 282 726 355 q 688 135 726 199 q 585 36 651 72 q 433 0 519 0 l 220 0 m 73 0 l 73 1000 l 235 1000 l 235 0 l 73 0 z "},"C":{"ha":781,"x_min":53,"x_max":738,"o":"m 489 -11 q 260 54 359 -11 q 107 234 162 118 q 53 501 53 349 q 107 767 53 652 q 258 946 161 882 q 485 1010 355 1010 q 616 986 546 1010 q 735 922 686 962 l 674 774 q 594 834 646 810 q 486 859 542 859 q 345 813 405 859 q 251 688 284 768 q 218 503 218 608 q 252 314 218 395 q 347 187 286 233 q 490 141 408 141 q 596 166 544 141 q 677 230 648 191 l 738 82 q 621 15 690 41 q 489 -11 552 -11 z "},"Ć":{"ha":781,"x_min":53,"x_max":738,"o":"m 489 -11 q 260 54 359 -11 q 107 234 162 118 q 53 501 53 349 q 107 767 53 652 q 258 946 161 882 q 485 1010 355 1010 q 616 986 546 1010 q 735 922 686 962 l 674 774 q 594 834 646 810 q 486 859 542 859 q 345 813 405 859 q 251 688 284 768 q 218 503 218 608 q 252 314 218 395 q 347 187 286 233 q 490 141 408 141 q 596 166 544 141 q 677 230 648 191 l 738 82 q 621 15 690 41 q 489 -11 552 -11 m 471 1050 l 402 1122 l 617 1323 l 695 1223 l 471 1050 z "},"Č":{"ha":781,"x_min":53,"x_max":738,"o":"m 489 -11 q 260 54 359 -11 q 107 234 162 118 q 53 501 53 349 q 107 767 53 652 q 258 946 161 882 q 485 1010 355 1010 q 616 986 546 1010 q 735 922 686 962 l 674 774 q 594 834 646 810 q 486 859 542 859 q 345 813 405 859 q 251 688 284 768 q 218 503 218 608 q 252 314 218 395 q 347 187 286 233 q 490 141 408 141 q 596 166 544 141 q 677 230 648 191 l 738 82 q 621 15 690 41 q 489 -11 552 -11 m 306 1286 l 469 1158 l 473 1158 l 637 1286 l 711 1207 l 489 1047 l 454 1047 l 231 1207 l 306 1286 z "},"Ç":{"ha":781,"x_min":53,"x_max":738,"o":"m 489 -11 q 260 54 359 -11 q 107 234 162 118 q 53 501 53 349 q 107 767 53 652 q 258 946 161 882 q 485 1010 355 1010 q 616 986 546 1010 q 735 922 686 962 l 674 774 q 594 834 646 810 q 486 859 542 859 q 345 813 405 859 q 251 688 284 768 q 218 503 218 608 q 252 314 218 395 q 347 187 286 233 q 490 141 408 141 q 596 166 544 141 q 677 230 648 191 l 738 82 q 621 15 690 41 q 489 -11 552 -11 m 371 -330 l 371 -245 q 474 -232 441 -248 q 508 -185 508 -216 q 481 -147 508 -163 q 408 -130 454 -131 l 448 0 l 523 0 l 486 -111 l 477 -70 q 572 -112 538 -80 q 606 -194 606 -144 q 549 -294 606 -256 q 371 -330 491 -331 z "},"Ḉ":{"ha":781,"x_min":53,"x_max":738,"o":"m 489 -11 q 260 54 359 -11 q 107 234 162 118 q 53 501 53 349 q 107 767 53 652 q 258 946 161 882 q 485 1010 355 1010 q 616 986 546 1010 q 735 922 686 962 l 674 774 q 594 834 646 810 q 486 859 542 859 q 345 813 405 859 q 251 688 284 768 q 218 503 218 608 q 252 314 218 395 q 347 187 286 233 q 490 141 408 141 q 596 166 544 141 q 677 230 648 191 l 738 82 q 621 15 690 41 q 489 -11 552 -11 m 371 -330 l 371 -245 q 474 -232 441 -248 q 508 -185 508 -216 q 481 -147 508 -163 q 408 -130 454 -131 l 448 0 l 523 0 l 486 -111 l 477 -70 q 572 -112 538 -80 q 606 -194 606 -144 q 549 -294 606 -256 q 371 -330 491 -331 m 471 1050 l 402 1122 l 617 1323 l 695 1223 l 471 1050 z "},"Ĉ":{"ha":781,"x_min":53,"x_max":738,"o":"m 489 -11 q 260 54 359 -11 q 107 234 162 118 q 53 501 53 349 q 107 767 53 652 q 258 946 161 882 q 485 1010 355 1010 q 616 986 546 1010 q 735 922 686 962 l 674 774 q 594 834 646 810 q 486 859 542 859 q 345 813 405 859 q 251 688 284 768 q 218 503 218 608 q 252 314 218 395 q 347 187 286 233 q 490 141 408 141 q 596 166 544 141 q 677 230 648 191 l 738 82 q 621 15 690 41 q 489 -11 552 -11 m 308 1052 l 233 1131 l 455 1291 l 491 1291 l 713 1131 l 640 1052 l 475 1180 l 471 1180 l 308 1052 z "},"Ċ":{"ha":781,"x_min":53,"x_max":738,"o":"m 489 -11 q 260 54 359 -11 q 107 234 162 118 q 53 501 53 349 q 107 767 53 652 q 258 946 161 882 q 485 1010 355 1010 q 616 986 546 1010 q 735 922 686 962 l 674 774 q 594 834 646 810 q 486 859 542 859 q 345 813 405 859 q 251 688 284 768 q 218 503 218 608 q 252 314 218 395 q 347 187 286 233 q 490 141 408 141 q 596 166 544 141 q 677 230 648 191 l 738 82 q 621 15 690 41 q 489 -11 552 -11 m 471 1065 q 395 1096 426 1065 q 363 1173 363 1127 q 395 1249 363 1218 q 471 1280 426 1280 q 547 1249 516 1280 q 578 1173 578 1218 q 547 1096 578 1127 q 471 1065 516 1065 z "},"D":{"ha":781,"x_min":70,"x_max":737,"o":"m 70 0 l 70 1000 l 331 1000 q 544 938 452 1000 q 686 765 635 876 q 737 508 737 654 q 688 243 737 357 q 550 64 638 129 q 343 0 461 0 l 70 0 m 232 150 l 348 150 q 468 195 417 150 q 547 321 519 240 q 575 508 575 402 q 547 687 575 610 q 468 807 519 764 q 348 850 417 850 l 232 850 l 232 150 z "},"Ǆ":{"ha":781,"x_min":39,"x_max":755,"o":"m 39 0 l 39 1000 l 177 1000 q 352 871 290 1000 q 414 508 414 742 q 355 134 414 267 q 191 0 296 0 l 39 0 m 163 144 l 191 144 q 262 239 235 144 q 289 507 289 335 q 262 763 289 671 q 191 856 235 856 l 163 856 l 163 144 m 411 0 l 411 31 l 602 854 l 602 857 l 432 857 l 432 1000 l 755 1000 l 755 965 l 564 146 l 564 143 l 748 143 l 748 0 l 411 0 m 570 1046 l 420 1207 l 493 1279 l 583 1162 l 586 1162 l 680 1279 l 750 1207 l 600 1046 l 570 1046 z "},"Ď":{"ha":781,"x_min":70,"x_max":737,"o":"m 70 0 l 70 1000 l 331 1000 q 544 938 452 1000 q 686 765 635 876 q 737 508 737 654 q 688 243 737 357 q 550 64 638 129 q 343 0 461 0 l 70 0 m 232 150 l 348 150 q 468 195 417 150 q 547 321 519 240 q 575 508 575 402 q 547 687 575 610 q 468 807 519 764 q 348 850 417 850 l 232 850 l 232 150 m 212 1286 l 374 1158 l 379 1158 l 543 1286 l 617 1207 l 395 1047 l 359 1047 l 137 1207 l 212 1286 z "},"Đ":{"ha":781,"x_min":7,"x_max":758,"o":"m 109 0 l 109 1000 l 362 1000 q 569 938 480 1000 q 708 765 658 876 q 758 508 758 654 q 709 243 758 357 q 575 64 661 129 q 374 0 488 0 l 109 0 m 264 150 l 378 150 q 496 195 446 150 q 574 321 546 240 q 602 507 602 402 q 574 687 602 610 q 496 807 546 764 q 378 850 446 850 l 264 850 l 264 150 m 7 458 l 7 559 l 398 559 l 398 458 l 7 458 z "},"Ḍ":{"ha":781,"x_min":70,"x_max":737,"o":"m 70 0 l 70 1000 l 331 1000 q 544 938 452 1000 q 686 765 635 876 q 737 508 737 654 q 688 243 737 357 q 550 64 638 129 q 343 0 461 0 l 70 0 m 232 150 l 348 150 q 468 195 417 150 q 547 321 519 240 q 575 508 575 402 q 547 687 575 610 q 468 807 519 764 q 348 850 417 850 l 232 850 l 232 150 m 376 -298 q 300 -268 332 -298 q 269 -191 269 -237 q 300 -115 269 -146 q 376 -84 332 -84 q 453 -115 422 -84 q 484 -191 484 -146 q 453 -268 484 -237 q 376 -298 422 -298 z "},"Ḏ":{"ha":781,"x_min":70,"x_max":737,"o":"m 70 0 l 70 1000 l 331 1000 q 544 938 452 1000 q 686 765 635 876 q 737 508 737 654 q 688 243 737 357 q 550 64 638 129 q 343 0 461 0 l 70 0 m 232 150 l 348 150 q 468 195 417 150 q 547 321 519 240 q 575 508 575 402 q 547 687 575 610 q 468 807 519 764 q 348 850 417 850 l 232 850 l 232 150 m 123 -277 l 123 -176 l 630 -176 l 630 -277 l 123 -277 z "},"ǅ":{"ha":781,"x_min":39,"x_max":761,"o":"m 39 0 l 39 1000 l 177 1000 q 352 871 290 1000 q 414 508 414 742 q 355 134 414 267 q 191 0 296 0 l 39 0 m 163 144 l 191 144 q 262 238 235 144 q 289 504 289 332 q 262 762 289 668 q 191 856 235 856 l 163 856 l 163 144 m 415 0 l 415 31 l 608 600 l 608 604 l 448 604 l 448 723 l 752 723 l 752 688 l 561 123 l 561 119 l 745 119 l 745 0 l 415 0 m 574 820 l 418 983 l 475 1053 l 588 926 l 591 926 l 703 1053 l 761 983 l 604 820 l 574 820 z "},"Ð":{"ha":781,"x_min":7,"x_max":758,"o":"m 109 0 l 109 1000 l 362 1000 q 569 938 480 1000 q 708 765 658 876 q 758 508 758 654 q 709 243 758 357 q 575 64 661 129 q 374 0 488 0 l 109 0 m 264 150 l 378 150 q 496 195 446 150 q 574 321 546 240 q 602 507 602 402 q 574 687 602 610 q 496 807 546 764 q 378 850 446 850 l 264 850 l 264 150 m 7 458 l 7 559 l 398 559 l 398 458 l 7 458 z "},"E":{"ha":781,"x_min":123,"x_max":692,"o":"m 123 0 l 123 1000 l 692 1000 l 692 850 l 290 850 l 290 581 l 628 581 l 628 433 l 290 433 l 290 150 l 692 150 l 692 0 l 123 0 z "},"É":{"ha":781,"x_min":123,"x_max":692,"o":"m 123 0 l 123 1000 l 692 1000 l 692 850 l 290 850 l 290 581 l 628 581 l 628 433 l 290 433 l 290 150 l 692 150 l 692 0 l 123 0 m 413 1050 l 344 1122 l 559 1323 l 637 1223 l 413 1050 z "},"Ĕ":{"ha":781,"x_min":123,"x_max":692,"o":"m 123 0 l 123 1000 l 692 1000 l 692 850 l 290 850 l 290 581 l 628 581 l 628 433 l 290 433 l 290 150 l 692 150 l 692 0 l 123 0 m 413 1060 q 297 1084 350 1060 q 212 1153 244 1107 q 180 1261 180 1198 l 279 1261 q 320 1180 280 1207 q 413 1154 361 1154 q 508 1180 468 1154 q 547 1261 548 1207 l 648 1261 q 617 1153 649 1198 q 531 1084 585 1107 q 413 1060 477 1060 z "},"Ě":{"ha":781,"x_min":123,"x_max":692,"o":"m 123 0 l 123 1000 l 692 1000 l 692 850 l 290 850 l 290 581 l 628 581 l 628 433 l 290 433 l 290 150 l 692 150 l 692 0 l 123 0 m 248 1286 l 410 1158 l 415 1158 l 580 1286 l 653 1207 l 431 1047 l 395 1047 l 173 1207 l 248 1286 z "},"Ḝ":{"ha":781,"x_min":123,"x_max":692,"o":"m 123 0 l 123 1000 l 692 1000 l 692 850 l 290 850 l 290 581 l 628 581 l 628 433 l 290 433 l 290 150 l 692 150 l 692 0 l 123 0 m 298 -330 l 298 -245 q 402 -232 368 -248 q 435 -185 435 -216 q 409 -147 435 -163 q 335 -130 382 -131 l 376 0 l 450 0 l 414 -111 l 405 -70 q 499 -112 465 -80 q 534 -194 534 -144 q 476 -294 534 -256 q 298 -330 418 -331 m 413 1060 q 297 1084 350 1060 q 212 1153 244 1107 q 180 1261 180 1198 l 279 1261 q 320 1180 280 1207 q 413 1154 361 1154 q 508 1180 468 1154 q 547 1261 548 1207 l 648 1261 q 617 1153 649 1198 q 531 1084 585 1107 q 413 1060 477 1060 z "},"Ê":{"ha":781,"x_min":123,"x_max":692,"o":"m 123 0 l 123 1000 l 692 1000 l 692 850 l 290 850 l 290 581 l 628 581 l 628 433 l 290 433 l 290 150 l 692 150 l 692 0 l 123 0 m 250 1052 l 174 1131 l 397 1291 l 433 1291 l 654 1131 l 581 1052 l 416 1180 l 412 1180 l 250 1052 z "},"Ế":{"ha":781,"x_min":123,"x_max":827,"o":"m 123 0 l 123 1000 l 692 1000 l 692 850 l 290 850 l 290 581 l 628 581 l 628 433 l 290 433 l 290 150 l 692 150 l 692 0 l 123 0 m 618 1217 l 546 1271 l 747 1481 l 826 1379 l 618 1217 m 248 1042 l 174 1120 l 396 1280 l 432 1280 l 654 1120 l 580 1042 l 416 1169 l 411 1169 l 248 1042 z "},"Ệ":{"ha":781,"x_min":123,"x_max":692,"o":"m 123 0 l 123 1000 l 692 1000 l 692 850 l 290 850 l 290 581 l 628 581 l 628 433 l 290 433 l 290 150 l 692 150 l 692 0 l 123 0 m 417 -298 q 341 -268 372 -298 q 310 -191 310 -237 q 341 -115 310 -146 q 417 -84 372 -84 q 493 -115 463 -84 q 524 -191 524 -146 q 493 -268 524 -237 q 417 -298 463 -298 m 255 1052 l 180 1131 l 402 1291 l 438 1291 l 660 1131 l 587 1052 l 422 1180 l 418 1180 l 255 1052 z "},"Ề":{"ha":781,"x_min":0,"x_max":692,"o":"m 123 0 l 123 1000 l 692 1000 l 692 850 l 290 850 l 290 581 l 628 581 l 628 433 l 290 433 l 290 150 l 692 150 l 692 0 l 123 0 m 208 1217 l 0 1379 l 79 1481 l 281 1270 l 208 1217 m 578 1042 l 416 1169 l 411 1169 l 246 1042 l 173 1120 l 395 1280 l 431 1280 l 653 1120 l 578 1042 z "},"Ể":{"ha":781,"x_min":123,"x_max":692,"o":"m 123 0 l 123 1000 l 692 1000 l 692 850 l 290 850 l 290 581 l 628 581 l 628 433 l 290 433 l 290 150 l 692 150 l 692 0 l 123 0 m 604 1217 l 542 1263 q 576 1299 563 1280 q 590 1335 590 1318 q 573 1371 590 1358 q 524 1383 556 1383 q 489 1380 507 1383 q 454 1370 471 1377 l 454 1469 q 495 1479 468 1476 q 545 1482 522 1482 q 650 1452 610 1482 q 690 1358 690 1421 q 676 1298 690 1326 q 642 1250 662 1271 q 604 1217 622 1229 m 248 1042 l 173 1120 l 395 1280 l 431 1280 l 653 1120 l 580 1042 l 415 1169 l 410 1169 l 248 1042 z "},"Ễ":{"ha":781,"x_min":123,"x_max":692,"o":"m 123 0 l 123 1000 l 692 1000 l 692 850 l 290 850 l 290 581 l 628 581 l 628 433 l 290 433 l 290 150 l 692 150 l 692 0 l 123 0 m 176 1305 q 214 1435 176 1385 q 319 1485 253 1485 q 379 1473 355 1485 q 420 1446 403 1461 q 455 1419 438 1430 q 492 1407 471 1407 q 530 1428 517 1407 q 544 1485 543 1449 l 647 1485 q 633 1393 648 1434 q 588 1329 618 1352 q 513 1305 557 1305 q 455 1317 479 1305 q 413 1345 431 1329 q 378 1373 395 1361 q 342 1385 362 1385 q 297 1365 315 1385 q 278 1305 279 1345 l 176 1305 m 246 1042 l 171 1120 l 394 1280 l 429 1280 l 651 1120 l 578 1042 l 413 1169 l 409 1169 l 246 1042 z "},"Ȅ":{"ha":781,"x_min":92,"x_max":692,"o":"m 123 0 l 123 1000 l 692 1000 l 692 850 l 290 850 l 290 581 l 628 581 l 628 433 l 290 433 l 290 150 l 692 150 l 692 0 l 123 0 m 254 1069 l 92 1286 l 203 1347 l 336 1108 l 254 1069 m 492 1069 l 337 1286 l 447 1347 l 577 1108 l 492 1069 z "},"Ë":{"ha":781,"x_min":123,"x_max":692,"o":"m 123 0 l 123 1000 l 692 1000 l 692 850 l 290 850 l 290 581 l 628 581 l 628 433 l 290 433 l 290 150 l 692 150 l 692 0 l 123 0 m 568 1062 q 497 1090 526 1062 q 468 1161 468 1119 q 497 1233 468 1204 q 568 1261 526 1261 q 639 1233 611 1261 q 667 1161 667 1204 q 639 1090 667 1119 q 568 1062 611 1062 m 262 1062 q 191 1090 220 1062 q 162 1161 162 1119 q 191 1233 162 1204 q 262 1261 220 1261 q 333 1233 305 1261 q 361 1161 361 1204 q 333 1090 361 1119 q 262 1062 305 1062 z "},"Ė":{"ha":781,"x_min":123,"x_max":692,"o":"m 123 0 l 123 1000 l 692 1000 l 692 850 l 290 850 l 290 581 l 628 581 l 628 433 l 290 433 l 290 150 l 692 150 l 692 0 l 123 0 m 413 1065 q 337 1096 368 1065 q 306 1173 306 1127 q 337 1249 306 1218 q 413 1280 368 1280 q 489 1249 458 1280 q 520 1173 520 1218 q 489 1096 520 1127 q 413 1065 458 1065 z "},"Ẹ":{"ha":781,"x_min":123,"x_max":692,"o":"m 123 0 l 123 1000 l 692 1000 l 692 850 l 290 850 l 290 581 l 628 581 l 628 433 l 290 433 l 290 150 l 692 150 l 692 0 l 123 0 m 418 -298 q 342 -268 374 -298 q 311 -191 311 -237 q 342 -115 311 -146 q 418 -84 374 -84 q 495 -115 464 -84 q 526 -191 526 -146 q 495 -268 526 -237 q 418 -298 464 -298 z "},"È":{"ha":781,"x_min":123,"x_max":692,"o":"m 123 0 l 123 1000 l 692 1000 l 692 850 l 290 850 l 290 581 l 628 581 l 628 433 l 290 433 l 290 150 l 692 150 l 692 0 l 123 0 m 413 1050 l 189 1223 l 267 1323 l 482 1122 l 413 1050 z "},"Ẻ":{"ha":781,"x_min":123,"x_max":692,"o":"m 123 0 l 123 1000 l 692 1000 l 692 850 l 290 850 l 290 581 l 628 581 l 628 433 l 290 433 l 290 150 l 692 150 l 692 0 l 123 0 m 435 1067 l 374 1128 q 413 1160 397 1141 q 429 1200 429 1179 q 412 1234 429 1221 q 363 1246 395 1246 q 329 1242 351 1246 q 292 1232 308 1239 l 292 1331 q 334 1341 307 1337 q 380 1345 361 1345 q 489 1313 449 1345 q 529 1221 529 1281 q 500 1126 529 1168 q 435 1067 471 1084 z "},"Ȇ":{"ha":781,"x_min":123,"x_max":692,"o":"m 123 0 l 123 1000 l 692 1000 l 692 850 l 290 850 l 290 581 l 628 581 l 628 433 l 290 433 l 290 150 l 692 150 l 692 0 l 123 0 m 412 1265 q 530 1241 476 1265 q 616 1172 585 1217 q 646 1064 648 1127 l 546 1064 q 507 1145 547 1119 q 412 1172 467 1172 q 319 1145 359 1172 q 278 1064 279 1119 l 179 1064 q 211 1172 179 1127 q 296 1241 243 1217 q 412 1265 349 1265 z "},"Ē":{"ha":781,"x_min":123,"x_max":692,"o":"m 123 0 l 123 1000 l 692 1000 l 692 850 l 290 850 l 290 581 l 628 581 l 628 433 l 290 433 l 290 150 l 692 150 l 692 0 l 123 0 m 160 1105 l 160 1216 l 667 1216 l 667 1105 l 160 1105 z "},"Ḗ":{"ha":781,"x_min":123,"x_max":692,"o":"m 123 0 l 123 1000 l 692 1000 l 692 850 l 290 850 l 290 581 l 628 581 l 628 433 l 290 433 l 290 150 l 692 150 l 692 0 l 123 0 m 160 1105 l 160 1216 l 667 1216 l 667 1105 l 160 1105 m 413 1267 l 344 1339 l 559 1539 l 637 1439 l 413 1267 z "},"Ḕ":{"ha":781,"x_min":123,"x_max":692,"o":"m 123 0 l 123 1000 l 692 1000 l 692 850 l 290 850 l 290 581 l 628 581 l 628 433 l 290 433 l 290 150 l 692 150 l 692 0 l 123 0 m 160 1105 l 160 1216 l 667 1216 l 667 1105 l 160 1105 m 413 1267 l 189 1439 l 267 1539 l 482 1339 l 413 1267 z "},"Ę":{"ha":781,"x_min":123,"x_max":701,"o":"m 123 0 l 123 1000 l 692 1000 l 692 850 l 290 850 l 290 581 l 628 581 l 628 433 l 290 433 l 290 150 l 692 150 l 692 0 l 123 0 m 601 -285 q 506 -250 543 -285 q 469 -159 469 -215 q 506 -61 469 -104 q 606 28 544 -17 l 691 0 q 633 -47 661 -24 q 588 -93 606 -70 q 571 -142 571 -116 q 587 -177 571 -164 q 629 -190 602 -190 q 669 -183 648 -190 q 701 -168 691 -176 l 701 -262 q 654 -278 685 -272 q 601 -285 624 -285 z "},"Ẽ":{"ha":781,"x_min":123,"x_max":692,"o":"m 123 0 l 123 1000 l 692 1000 l 692 850 l 290 850 l 290 581 l 628 581 l 628 433 l 290 433 l 290 150 l 692 150 l 692 0 l 123 0 m 178 1073 q 216 1203 178 1152 q 319 1253 254 1253 q 380 1241 356 1253 q 422 1213 405 1229 q 456 1185 440 1197 q 492 1173 472 1173 q 533 1197 519 1173 q 547 1253 547 1221 l 648 1253 q 611 1125 649 1177 q 504 1073 572 1073 q 445 1085 469 1073 q 403 1114 421 1098 q 368 1142 385 1130 q 331 1154 351 1154 q 293 1132 305 1154 q 280 1073 280 1109 l 178 1073 z "},"Ə":{"ha":781,"x_min":50,"x_max":739,"o":"m 385 -11 q 206 49 281 -11 q 90 213 131 109 q 50 448 50 316 l 50 559 l 618 559 l 618 415 l 201 415 q 222 277 200 340 q 286 177 245 214 q 385 139 328 139 q 469 167 433 139 q 528 243 505 195 q 564 357 552 292 q 576 494 576 421 q 551 686 576 604 q 478 814 527 768 q 357 859 430 859 q 248 834 302 859 q 165 774 193 810 l 104 922 q 222 986 155 962 q 358 1010 290 1010 q 515 971 445 1010 q 636 861 586 932 q 712 695 686 790 q 739 490 739 601 q 714 292 739 383 q 643 133 690 201 q 531 27 597 64 q 385 -11 466 -11 z "},"F":{"ha":781,"x_min":136,"x_max":722,"o":"m 136 0 l 136 1000 l 722 1000 l 722 850 l 303 850 l 303 559 l 661 559 l 661 410 l 303 410 l 303 0 l 136 0 z "},"G":{"ha":781,"x_min":39,"x_max":725,"o":"m 444 -11 q 233 54 323 -11 q 91 233 142 119 q 39 495 39 347 q 94 766 39 650 q 244 946 149 882 q 460 1010 340 1010 q 601 987 533 1010 q 722 922 669 964 l 661 774 q 579 833 633 808 q 465 859 526 859 q 326 814 386 859 q 233 688 267 769 q 199 496 199 606 q 230 313 199 393 q 317 187 260 233 q 452 141 374 141 q 537 159 503 141 q 593 203 572 178 l 570 161 l 570 417 l 395 417 l 395 560 l 725 560 l 725 113 q 604 23 678 56 q 444 -11 530 -11 z "},"Ğ":{"ha":781,"x_min":39,"x_max":725,"o":"m 444 -11 q 233 54 323 -11 q 91 233 142 119 q 39 495 39 347 q 94 766 39 650 q 244 946 149 882 q 460 1010 340 1010 q 601 987 533 1010 q 722 922 669 964 l 661 774 q 579 833 633 808 q 465 859 526 859 q 326 814 386 859 q 233 688 267 769 q 199 496 199 606 q 230 313 199 393 q 317 187 260 233 q 452 141 374 141 q 537 159 503 141 q 593 203 572 178 l 570 161 l 570 417 l 395 417 l 395 560 l 725 560 l 725 113 q 604 23 678 56 q 444 -11 530 -11 m 427 1060 q 311 1084 364 1060 q 226 1153 258 1107 q 194 1261 194 1198 l 294 1261 q 335 1180 294 1207 q 427 1154 375 1154 q 522 1180 482 1154 q 562 1261 562 1207 l 662 1261 q 631 1153 663 1198 q 546 1084 600 1107 q 427 1060 492 1060 z "},"Ǧ":{"ha":781,"x_min":39,"x_max":725,"o":"m 444 -11 q 233 54 323 -11 q 91 233 142 119 q 39 495 39 347 q 94 766 39 650 q 244 946 149 882 q 460 1010 340 1010 q 601 987 533 1010 q 722 922 669 964 l 661 774 q 579 833 633 808 q 465 859 526 859 q 326 814 386 859 q 233 688 267 769 q 199 496 199 606 q 230 313 199 393 q 317 187 260 233 q 452 141 374 141 q 537 159 503 141 q 593 203 572 178 l 570 161 l 570 417 l 395 417 l 395 560 l 725 560 l 725 113 q 604 23 678 56 q 444 -11 530 -11 m 262 1286 l 425 1158 l 429 1158 l 593 1286 l 667 1207 l 446 1047 l 410 1047 l 186 1207 l 262 1286 z "},"Ĝ":{"ha":781,"x_min":39,"x_max":725,"o":"m 444 -11 q 233 54 323 -11 q 91 233 142 119 q 39 495 39 347 q 94 766 39 650 q 244 946 149 882 q 460 1010 340 1010 q 601 987 533 1010 q 722 922 669 964 l 661 774 q 579 833 633 808 q 465 859 526 859 q 326 814 386 859 q 233 688 267 769 q 199 496 199 606 q 230 313 199 393 q 317 187 260 233 q 452 141 374 141 q 537 159 503 141 q 593 203 572 178 l 570 161 l 570 417 l 395 417 l 395 560 l 725 560 l 725 113 q 604 23 678 56 q 444 -11 530 -11 m 264 1052 l 189 1131 l 411 1291 l 447 1291 l 669 1131 l 595 1052 l 431 1180 l 427 1180 l 264 1052 z "},"Ģ":{"ha":781,"x_min":39,"x_max":725,"o":"m 444 -11 q 233 54 323 -11 q 91 233 142 119 q 39 495 39 347 q 94 766 39 650 q 244 946 149 882 q 460 1010 340 1010 q 601 987 533 1010 q 722 922 669 964 l 661 774 q 579 833 633 808 q 465 859 526 859 q 326 814 386 859 q 233 688 267 769 q 199 496 199 606 q 230 313 199 393 q 317 187 260 233 q 452 141 374 141 q 537 159 503 141 q 593 203 572 178 l 570 161 l 570 417 l 395 417 l 395 560 l 725 560 l 725 113 q 604 23 678 56 q 444 -11 530 -11 m 381 -395 l 345 -351 l 401 -299 q 428 -269 416 -284 q 448 -240 441 -254 q 455 -213 455 -225 l 477 -211 q 465 -238 475 -226 q 433 -251 455 -251 q 381 -229 406 -251 q 355 -171 355 -206 q 379 -113 355 -134 q 433 -92 404 -92 q 490 -115 467 -92 q 513 -183 513 -138 q 500 -249 513 -219 q 469 -301 487 -279 q 440 -334 452 -323 l 381 -395 z "},"Ġ":{"ha":781,"x_min":39,"x_max":725,"o":"m 444 -11 q 233 54 323 -11 q 91 233 142 119 q 39 495 39 347 q 94 766 39 650 q 244 946 149 882 q 460 1010 340 1010 q 601 987 533 1010 q 722 922 669 964 l 661 774 q 579 833 633 808 q 465 859 526 859 q 326 814 386 859 q 233 688 267 769 q 199 496 199 606 q 230 313 199 393 q 317 187 260 233 q 452 141 374 141 q 537 159 503 141 q 593 203 572 178 l 570 161 l 570 417 l 395 417 l 395 560 l 725 560 l 725 113 q 604 23 678 56 q 444 -11 530 -11 m 427 1065 q 351 1096 382 1065 q 319 1173 319 1127 q 351 1249 319 1218 q 427 1280 382 1280 q 503 1249 472 1280 q 534 1173 534 1218 q 503 1096 534 1127 q 427 1065 472 1065 z "},"Ḡ":{"ha":781,"x_min":39,"x_max":725,"o":"m 444 -11 q 233 54 323 -11 q 91 233 142 119 q 39 495 39 347 q 94 766 39 650 q 244 946 149 882 q 460 1010 340 1010 q 601 987 533 1010 q 722 922 669 964 l 661 774 q 579 833 633 808 q 465 859 526 859 q 326 814 386 859 q 233 688 267 769 q 199 496 199 606 q 230 313 199 393 q 317 187 260 233 q 452 141 374 141 q 537 159 503 141 q 593 203 572 178 l 570 161 l 570 417 l 395 417 l 395 560 l 725 560 l 725 113 q 604 23 678 56 q 444 -11 530 -11 m 174 1105 l 174 1216 l 680 1216 l 680 1105 l 174 1105 z "},"H":{"ha":781,"x_min":70,"x_max":711,"o":"m 70 0 l 70 1000 l 235 1000 l 235 583 l 547 583 l 547 1000 l 711 1000 l 711 0 l 547 0 l 547 433 l 235 433 l 235 0 l 70 0 z "},"Ħ":{"ha":781,"x_min":12,"x_max":756,"o":"m 12 724 l 12 825 l 756 825 l 756 724 l 12 724 m 70 0 l 70 1000 l 235 1000 l 235 583 l 547 583 l 547 1000 l 711 1000 l 711 0 l 547 0 l 547 433 l 235 433 l 235 0 l 70 0 z "},"Ḫ":{"ha":781,"x_min":70,"x_max":711,"o":"m 70 0 l 70 1000 l 235 1000 l 235 583 l 547 583 l 547 1000 l 711 1000 l 711 0 l 547 0 l 547 433 l 235 433 l 235 0 l 70 0 m 390 -299 q 271 -270 324 -299 q 186 -192 218 -241 q 155 -80 155 -142 l 258 -80 q 296 -171 258 -134 q 390 -208 334 -208 q 485 -171 448 -208 q 523 -80 522 -134 l 626 -80 q 595 -192 627 -142 q 511 -270 564 -241 q 390 -299 458 -299 z "},"Ĥ":{"ha":781,"x_min":70,"x_max":711,"o":"m 70 0 l 70 1000 l 235 1000 l 235 583 l 547 583 l 547 1000 l 711 1000 l 711 0 l 547 0 l 547 433 l 235 433 l 235 0 l 70 0 m 228 1052 l 153 1131 l 375 1291 l 411 1291 l 633 1131 l 559 1052 l 395 1180 l 391 1180 l 228 1052 z "},"Ḥ":{"ha":781,"x_min":70,"x_max":711,"o":"m 70 0 l 70 1000 l 235 1000 l 235 583 l 547 583 l 547 1000 l 711 1000 l 711 0 l 547 0 l 547 433 l 235 433 l 235 0 l 70 0 m 391 -298 q 315 -268 347 -298 q 284 -191 284 -237 q 315 -115 284 -146 q 391 -84 347 -84 q 468 -115 437 -84 q 498 -191 498 -146 q 468 -268 498 -237 q 391 -298 437 -298 z "},"I":{"ha":781,"x_min":108,"x_max":673,"o":"m 307 0 l 307 1000 l 474 1000 l 474 0 l 307 0 m 108 0 l 108 146 l 673 146 l 673 0 l 108 0 m 108 853 l 108 1000 l 673 1000 l 673 853 l 108 853 z "},"Í":{"ha":781,"x_min":108,"x_max":673,"o":"m 307 0 l 307 1000 l 474 1000 l 474 0 l 307 0 m 108 0 l 108 146 l 673 146 l 673 0 l 108 0 m 108 853 l 108 1000 l 673 1000 l 673 853 l 108 853 m 390 1050 l 321 1122 l 536 1323 l 614 1223 l 390 1050 z "},"Ĭ":{"ha":781,"x_min":108,"x_max":673,"o":"m 307 0 l 307 1000 l 474 1000 l 474 0 l 307 0 m 108 0 l 108 146 l 673 146 l 673 0 l 108 0 m 108 853 l 108 1000 l 673 1000 l 673 853 l 108 853 m 390 1060 q 274 1084 327 1060 q 189 1153 221 1107 q 157 1261 157 1198 l 256 1261 q 297 1180 257 1207 q 390 1154 338 1154 q 485 1180 445 1154 q 524 1261 525 1207 l 625 1261 q 594 1153 626 1198 q 508 1084 562 1107 q 390 1060 454 1060 z "},"Ǐ":{"ha":781,"x_min":108,"x_max":673,"o":"m 307 0 l 307 1000 l 474 1000 l 474 0 l 307 0 m 108 0 l 108 146 l 673 146 l 673 0 l 108 0 m 108 853 l 108 1000 l 673 1000 l 673 853 l 108 853 m 224 1286 l 387 1158 l 391 1158 l 556 1286 l 629 1207 l 408 1047 l 372 1047 l 149 1207 l 224 1286 z "},"Î":{"ha":781,"x_min":108,"x_max":673,"o":"m 307 0 l 307 1000 l 474 1000 l 474 0 l 307 0 m 108 0 l 108 146 l 673 146 l 673 0 l 108 0 m 108 853 l 108 1000 l 673 1000 l 673 853 l 108 853 m 227 1052 l 151 1131 l 374 1291 l 410 1291 l 631 1131 l 558 1052 l 393 1180 l 389 1180 l 227 1052 z "},"Ȉ":{"ha":781,"x_min":69,"x_max":673,"o":"m 307 0 l 307 1000 l 474 1000 l 474 0 l 307 0 m 108 0 l 108 146 l 673 146 l 673 0 l 108 0 m 108 853 l 108 1000 l 673 1000 l 673 853 l 108 853 m 231 1069 l 69 1286 l 180 1347 l 313 1108 l 231 1069 m 469 1069 l 314 1286 l 424 1347 l 554 1108 l 469 1069 z "},"Ï":{"ha":781,"x_min":108,"x_max":673,"o":"m 307 0 l 307 1000 l 474 1000 l 474 0 l 307 0 m 108 0 l 108 146 l 673 146 l 673 0 l 108 0 m 108 853 l 108 1000 l 673 1000 l 673 853 l 108 853 m 545 1062 q 473 1090 502 1062 q 444 1161 444 1119 q 473 1233 444 1204 q 545 1261 502 1261 q 615 1233 587 1261 q 644 1161 644 1204 q 615 1090 644 1119 q 545 1062 587 1062 m 239 1062 q 167 1090 196 1062 q 138 1161 138 1119 q 167 1233 138 1204 q 239 1261 196 1261 q 310 1233 281 1261 q 338 1161 338 1204 q 310 1090 338 1119 q 239 1062 281 1062 z "},"Ḯ":{"ha":781,"x_min":108,"x_max":673,"o":"m 307 0 l 307 1000 l 474 1000 l 474 0 l 307 0 m 108 0 l 108 146 l 673 146 l 673 0 l 108 0 m 108 853 l 108 1000 l 673 1000 l 673 853 l 108 853 m 545 1062 q 473 1090 502 1062 q 444 1161 444 1119 q 473 1233 444 1204 q 545 1261 502 1261 q 615 1233 587 1261 q 644 1161 644 1204 q 615 1090 644 1119 q 545 1062 587 1062 m 239 1062 q 167 1090 196 1062 q 138 1161 138 1119 q 167 1233 138 1204 q 239 1261 196 1261 q 310 1233 281 1261 q 338 1161 338 1204 q 310 1090 338 1119 q 239 1062 281 1062 m 390 1264 l 321 1336 l 536 1537 l 614 1436 l 390 1264 z "},"İ":{"ha":781,"x_min":108,"x_max":673,"o":"m 307 0 l 307 1000 l 474 1000 l 474 0 l 307 0 m 108 0 l 108 146 l 673 146 l 673 0 l 108 0 m 108 853 l 108 1000 l 673 1000 l 673 853 l 108 853 m 389 1065 q 313 1096 345 1065 q 282 1173 282 1127 q 313 1249 282 1218 q 389 1280 345 1280 q 466 1249 435 1280 q 496 1173 496 1218 q 466 1096 496 1127 q 389 1065 435 1065 z "},"Ị":{"ha":781,"x_min":108,"x_max":673,"o":"m 307 0 l 307 1000 l 474 1000 l 474 0 l 307 0 m 108 0 l 108 146 l 673 146 l 673 0 l 108 0 m 108 853 l 108 1000 l 673 1000 l 673 853 l 108 853 m 390 -298 q 314 -268 345 -298 q 283 -191 283 -237 q 314 -115 283 -146 q 390 -84 345 -84 q 466 -115 435 -84 q 497 -191 497 -146 q 466 -268 497 -237 q 390 -298 435 -298 z "},"Ì":{"ha":781,"x_min":108,"x_max":673,"o":"m 307 0 l 307 1000 l 474 1000 l 474 0 l 307 0 m 108 0 l 108 146 l 673 146 l 673 0 l 108 0 m 108 853 l 108 1000 l 673 1000 l 673 853 l 108 853 m 390 1050 l 166 1223 l 244 1323 l 459 1122 l 390 1050 z "},"Ỉ":{"ha":781,"x_min":108,"x_max":673,"o":"m 307 0 l 307 1000 l 474 1000 l 474 0 l 307 0 m 108 0 l 108 146 l 673 146 l 673 0 l 108 0 m 108 853 l 108 1000 l 673 1000 l 673 853 l 108 853 m 411 1067 l 351 1128 q 389 1160 373 1141 q 406 1200 406 1179 q 389 1234 406 1221 q 340 1246 372 1246 q 306 1242 327 1246 q 269 1232 284 1239 l 269 1331 q 310 1341 283 1337 q 357 1345 337 1345 q 465 1313 425 1345 q 505 1221 505 1281 q 476 1126 505 1168 q 411 1067 448 1084 z "},"Ȋ":{"ha":781,"x_min":108,"x_max":673,"o":"m 307 0 l 307 1000 l 474 1000 l 474 0 l 307 0 m 108 0 l 108 146 l 673 146 l 673 0 l 108 0 m 108 853 l 108 1000 l 673 1000 l 673 853 l 108 853 m 389 1265 q 507 1241 453 1265 q 593 1172 561 1217 q 623 1064 625 1127 l 522 1064 q 483 1145 523 1119 q 389 1172 443 1172 q 296 1145 336 1172 q 255 1064 255 1119 l 155 1064 q 188 1172 155 1127 q 273 1241 220 1217 q 389 1265 326 1265 z "},"Ī":{"ha":781,"x_min":108,"x_max":673,"o":"m 307 0 l 307 1000 l 474 1000 l 474 0 l 307 0 m 108 0 l 108 146 l 673 146 l 673 0 l 108 0 m 108 853 l 108 1000 l 673 1000 l 673 853 l 108 853 m 163 1105 l 163 1216 l 615 1216 l 615 1105 l 163 1105 z "},"Į":{"ha":781,"x_min":108,"x_max":684,"o":"m 307 0 l 307 1000 l 474 1000 l 474 0 l 307 0 m 108 0 l 108 146 l 673 146 l 673 0 l 108 0 m 108 853 l 108 1000 l 673 1000 l 673 853 l 108 853 m 583 -285 q 488 -250 525 -285 q 451 -159 451 -215 q 489 -61 451 -104 q 589 28 526 -17 l 673 0 q 615 -47 643 -24 q 571 -93 588 -70 q 553 -142 553 -116 q 569 -177 553 -164 q 611 -190 585 -190 q 652 -183 630 -190 q 684 -168 673 -176 l 684 -262 q 637 -278 667 -272 q 583 -285 606 -285 z "},"Ĩ":{"ha":781,"x_min":108,"x_max":673,"o":"m 307 0 l 307 1000 l 474 1000 l 474 0 l 307 0 m 108 0 l 108 146 l 673 146 l 673 0 l 108 0 m 108 853 l 108 1000 l 673 1000 l 673 853 l 108 853 m 155 1073 q 193 1203 155 1152 q 296 1253 231 1253 q 357 1241 333 1253 q 399 1213 382 1229 q 433 1185 417 1197 q 469 1173 449 1173 q 510 1197 496 1173 q 524 1253 524 1221 l 625 1253 q 588 1125 626 1177 q 481 1073 549 1073 q 422 1085 446 1073 q 380 1114 398 1098 q 345 1142 361 1130 q 308 1154 328 1154 q 270 1132 282 1154 q 257 1073 257 1109 l 155 1073 z "},"J":{"ha":781,"x_min":32,"x_max":643,"o":"m 336 -11 q 175 28 243 -11 q 70 137 107 67 q 32 296 33 206 l 193 296 q 232 182 195 224 q 332 139 270 139 q 404 157 372 139 q 454 213 435 176 q 473 304 473 250 l 473 1000 l 643 1000 l 643 307 q 603 133 643 204 q 494 26 563 62 q 336 -11 425 -11 z "},"Ĵ":{"ha":781,"x_min":32,"x_max":793,"o":"m 336 -11 q 175 28 243 -11 q 70 137 107 67 q 32 296 33 206 l 193 296 q 232 182 195 224 q 332 139 270 139 q 404 157 372 139 q 454 213 435 176 q 473 304 473 250 l 473 1000 l 643 1000 l 643 307 q 603 133 643 204 q 494 26 563 62 q 336 -11 425 -11 m 388 1052 l 313 1131 l 535 1291 l 571 1291 l 793 1131 l 720 1052 l 555 1180 l 551 1180 l 388 1052 z "},"K":{"ha":781,"x_min":88,"x_max":777,"o":"m 88 0 l 88 1000 l 249 1000 l 249 545 l 291 545 l 233 516 l 563 1000 l 760 1000 l 377 459 l 377 546 l 777 0 l 578 0 l 233 480 l 291 453 l 249 453 l 249 0 l 88 0 z "},"Ķ":{"ha":781,"x_min":88,"x_max":777,"o":"m 88 0 l 88 1000 l 249 1000 l 249 545 l 291 545 l 233 516 l 563 1000 l 760 1000 l 377 459 l 377 546 l 777 0 l 578 0 l 233 480 l 291 453 l 249 453 l 249 0 l 88 0 m 359 -395 l 322 -351 l 378 -299 q 406 -269 393 -284 q 426 -240 418 -254 q 433 -213 433 -225 l 454 -211 q 443 -238 453 -226 q 410 -251 433 -251 q 358 -229 384 -251 q 333 -171 333 -206 q 357 -113 333 -134 q 410 -92 381 -92 q 468 -115 444 -92 q 491 -183 491 -138 q 478 -249 491 -219 q 447 -301 465 -279 q 418 -334 429 -323 l 359 -395 z "},"L":{"ha":781,"x_min":137,"x_max":712,"o":"m 137 0 l 137 1000 l 303 1000 l 303 150 l 712 150 l 712 0 l 137 0 z "},"Ǉ":{"ha":781,"x_min":58,"x_max":729,"o":"m 543 -11 q 405 68 449 -11 q 362 291 361 147 l 487 291 q 501 162 487 203 q 542 121 515 121 q 587 164 572 121 q 602 296 602 206 l 602 1000 l 729 1000 l 729 299 q 682 69 729 149 q 543 -11 635 -11 m 58 0 l 58 1000 l 184 1000 l 184 132 l 336 132 l 336 0 l 58 0 z "},"Ĺ":{"ha":781,"x_min":137,"x_max":712,"o":"m 137 0 l 137 1000 l 303 1000 l 303 150 l 712 150 l 712 0 l 137 0 m 221 1050 l 152 1122 l 367 1323 l 445 1223 l 221 1050 z "},"Ľ":{"ha":781,"x_min":137,"x_max":724,"o":"m 137 0 l 137 1000 l 303 1000 l 303 150 l 712 150 l 712 0 l 137 0 m 594 676 l 597 1000 l 724 1000 l 706 676 l 594 676 z "},"Ļ":{"ha":781,"x_min":137,"x_max":712,"o":"m 137 0 l 137 1000 l 303 1000 l 303 150 l 712 150 l 712 0 l 137 0 m 386 -395 l 349 -351 l 406 -299 q 433 -269 420 -284 q 453 -240 446 -254 q 460 -213 460 -225 l 481 -211 q 470 -238 480 -226 q 437 -251 460 -251 q 386 -229 411 -251 q 360 -171 360 -206 q 384 -113 360 -134 q 437 -92 408 -92 q 495 -115 471 -92 q 518 -183 518 -138 q 505 -249 518 -219 q 474 -301 492 -279 q 445 -334 456 -323 l 386 -395 z "},"Ŀ":{"ha":781,"x_min":137,"x_max":729,"o":"m 137 0 l 137 1000 l 303 1000 l 303 150 l 712 150 l 712 0 l 137 0 m 614 401 q 533 435 566 401 q 499 517 499 468 q 532 598 499 566 q 614 631 566 631 q 696 598 663 631 q 730 517 730 566 q 696 435 730 468 q 614 401 663 401 z "},"Ḷ":{"ha":781,"x_min":137,"x_max":712,"o":"m 137 0 l 137 1000 l 303 1000 l 303 150 l 712 150 l 712 0 l 137 0 m 433 -298 q 357 -268 389 -298 q 326 -191 326 -237 q 357 -115 326 -146 q 433 -84 389 -84 q 510 -115 479 -84 q 541 -191 541 -146 q 510 -268 541 -237 q 433 -298 479 -298 z "},"ǈ":{"ha":781,"x_min":75,"x_max":713,"o":"m 478 -296 q 384 -279 433 -296 q 300 -237 334 -262 l 344 -118 q 407 -154 372 -140 q 473 -168 442 -168 q 537 -142 513 -168 q 562 -66 562 -115 l 562 724 l 686 724 l 686 -73 q 660 -189 686 -139 q 586 -268 633 -239 q 478 -296 538 -296 m 75 0 l 75 1000 l 207 1000 l 207 132 l 402 132 l 402 0 l 75 0 m 401 598 l 401 724 l 686 724 l 686 598 l 401 598 m 617 829 q 547 857 574 829 q 519 928 519 886 q 547 1000 519 972 q 617 1027 575 1027 q 686 1000 659 1027 q 713 928 713 972 q 687 857 713 885 q 617 829 660 829 z "},"Ḻ":{"ha":781,"x_min":137,"x_max":712,"o":"m 137 0 l 137 1000 l 303 1000 l 303 150 l 712 150 l 712 0 l 137 0 m 180 -277 l 180 -176 l 687 -176 l 687 -277 l 180 -277 z "},"Ł":{"ha":781,"x_min":3,"x_max":712,"o":"m 44 358 l 3 458 l 157 541 l 279 595 l 398 661 l 439 563 l 279 476 l 157 422 l 44 358 m 137 0 l 137 1000 l 303 1000 l 303 150 l 712 150 l 712 0 l 137 0 z "},"M":{"ha":781,"x_min":50,"x_max":731,"o":"m 50 0 l 50 1000 l 159 1000 l 388 574 l 393 574 l 622 1000 l 731 1000 l 731 0 l 578 0 l 578 452 l 581 644 l 574 644 l 414 336 l 368 336 l 207 644 l 201 644 l 203 452 l 203 0 l 50 0 z "},"Ṃ":{"ha":781,"x_min":50,"x_max":731,"o":"m 50 0 l 50 1000 l 159 1000 l 388 574 l 393 574 l 622 1000 l 731 1000 l 731 0 l 578 0 l 578 452 l 581 644 l 574 644 l 414 336 l 368 336 l 207 644 l 201 644 l 203 452 l 203 0 l 50 0 m 389 -298 q 313 -268 345 -298 q 282 -191 282 -237 q 313 -115 282 -146 q 389 -84 345 -84 q 466 -115 435 -84 q 496 -191 496 -146 q 466 -268 496 -237 q 389 -298 435 -298 z "},"N":{"ha":781,"x_min":70,"x_max":711,"o":"m 70 0 l 70 1000 l 186 1000 l 496 444 l 553 338 l 558 338 l 554 536 l 554 1000 l 711 1000 l 711 0 l 596 0 l 286 559 l 229 669 l 224 669 l 227 467 l 227 0 l 70 0 z "},"Ǌ":{"ha":781,"x_min":28,"x_max":759,"o":"m 28 0 l 28 1000 l 113 1000 l 250 510 l 275 415 l 277 415 l 271 520 l 271 1000 l 388 1000 l 388 0 l 304 0 l 165 494 l 142 589 l 140 589 l 145 484 l 145 0 l 28 0 m 593 -11 q 464 65 507 -11 q 421 280 420 140 l 538 280 q 552 159 538 197 q 591 122 566 122 q 629 163 621 122 q 637 288 637 205 l 637 1000 l 759 1000 l 759 290 q 719 67 759 146 q 593 -11 680 -11 z "},"Ń":{"ha":781,"x_min":70,"x_max":711,"o":"m 70 0 l 70 1000 l 186 1000 l 496 444 l 553 338 l 558 338 l 554 536 l 554 1000 l 711 1000 l 711 0 l 596 0 l 286 559 l 229 669 l 224 669 l 227 467 l 227 0 l 70 0 m 391 1050 l 321 1122 l 536 1323 l 614 1223 l 391 1050 z "},"Ň":{"ha":781,"x_min":70,"x_max":711,"o":"m 70 0 l 70 1000 l 186 1000 l 496 444 l 553 338 l 558 338 l 554 536 l 554 1000 l 711 1000 l 711 0 l 596 0 l 286 559 l 229 669 l 224 669 l 227 467 l 227 0 l 70 0 m 225 1286 l 388 1158 l 393 1158 l 557 1286 l 631 1207 l 409 1047 l 373 1047 l 151 1207 l 225 1286 z "},"Ņ":{"ha":781,"x_min":70,"x_max":711,"o":"m 70 0 l 70 1000 l 186 1000 l 496 444 l 553 338 l 558 338 l 554 536 l 554 1000 l 711 1000 l 711 0 l 596 0 l 286 559 l 229 669 l 224 669 l 227 467 l 227 0 l 70 0 m 341 -395 l 304 -351 l 361 -299 q 388 -269 376 -284 q 408 -240 401 -254 q 415 -213 415 -225 l 437 -211 q 425 -238 435 -226 q 393 -251 415 -251 q 341 -229 366 -251 q 315 -171 315 -206 q 339 -113 315 -134 q 393 -92 363 -92 q 450 -115 427 -92 q 473 -183 473 -138 q 460 -249 473 -219 q 429 -301 447 -279 q 400 -334 412 -323 l 341 -395 z "},"Ṅ":{"ha":781,"x_min":70,"x_max":711,"o":"m 70 0 l 70 1000 l 186 1000 l 496 444 l 553 338 l 558 338 l 554 536 l 554 1000 l 711 1000 l 711 0 l 596 0 l 286 559 l 229 669 l 224 669 l 227 467 l 227 0 l 70 0 m 390 1065 q 314 1096 345 1065 q 283 1173 283 1127 q 314 1249 283 1218 q 390 1280 345 1280 q 466 1249 435 1280 q 497 1173 497 1218 q 466 1096 497 1127 q 390 1065 435 1065 z "},"Ṇ":{"ha":781,"x_min":70,"x_max":711,"o":"m 70 0 l 70 1000 l 186 1000 l 496 444 l 553 338 l 558 338 l 554 536 l 554 1000 l 711 1000 l 711 0 l 596 0 l 286 559 l 229 669 l 224 669 l 227 467 l 227 0 l 70 0 m 389 -298 q 313 -268 344 -298 q 281 -191 281 -237 q 313 -115 281 -146 q 389 -84 344 -84 q 465 -115 434 -84 q 496 -191 496 -146 q 465 -268 496 -237 q 389 -298 434 -298 z "},"ǋ":{"ha":781,"x_min":59,"x_max":732,"o":"m 59 0 l 59 1000 l 155 1000 l 310 502 l 342 380 l 345 380 l 339 513 l 339 1000 l 463 1000 l 463 0 l 370 0 l 214 500 l 181 622 l 178 622 l 183 490 l 183 0 l 59 0 m 489 -296 q 395 -279 444 -296 q 314 -237 347 -262 l 357 -118 q 419 -155 384 -140 q 484 -169 454 -169 q 546 -142 522 -169 q 570 -66 570 -115 l 570 723 l 694 723 l 694 -73 q 668 -189 694 -139 q 595 -268 642 -239 q 489 -296 549 -296 m 637 832 q 567 861 595 832 q 540 932 540 889 q 567 1003 540 975 q 637 1031 595 1031 q 705 1003 678 1031 q 732 931 732 975 q 705 861 732 889 q 637 832 679 832 z "},"Ṉ":{"ha":781,"x_min":70,"x_max":711,"o":"m 70 0 l 70 1000 l 186 1000 l 496 444 l 553 338 l 558 338 l 554 536 l 554 1000 l 711 1000 l 711 0 l 596 0 l 286 559 l 229 669 l 224 669 l 227 467 l 227 0 l 70 0 m 135 -277 l 135 -176 l 642 -176 l 642 -277 l 135 -277 z "},"Ñ":{"ha":781,"x_min":70,"x_max":711,"o":"m 70 0 l 70 1000 l 186 1000 l 496 444 l 553 338 l 558 338 l 554 536 l 554 1000 l 711 1000 l 711 0 l 596 0 l 286 559 l 229 669 l 224 669 l 227 467 l 227 0 l 70 0 m 156 1073 q 194 1203 156 1152 q 297 1253 231 1253 q 358 1241 334 1253 q 400 1213 382 1229 q 434 1185 418 1197 q 469 1173 450 1173 q 510 1197 496 1173 q 524 1253 524 1221 l 625 1253 q 588 1125 627 1177 q 481 1073 550 1073 q 423 1085 447 1073 q 380 1114 399 1098 q 346 1142 362 1130 q 309 1154 329 1154 q 270 1132 283 1154 q 258 1073 258 1109 l 156 1073 z "},"Ŋ":{"ha":781,"x_min":70,"x_max":711,"o":"m 70 0 l 70 1000 l 186 1000 l 496 444 l 553 338 l 558 338 l 554 536 l 554 1000 l 711 1000 l 711 0 l 596 0 l 286 559 l 229 669 l 224 669 l 227 467 l 227 0 l 70 0 m 505 -300 q 452 -295 480 -300 q 411 -280 425 -290 l 411 -139 q 448 -154 427 -149 q 484 -161 469 -159 q 525 -146 509 -161 q 550 -105 542 -130 q 558 -54 558 -81 l 558 107 l 711 107 l 711 -44 q 688 -178 711 -120 q 620 -268 665 -235 q 505 -300 574 -300 z "},"O":{"ha":781,"x_min":42,"x_max":739,"o":"m 390 -11 q 203 50 281 -11 q 83 225 125 111 q 42 500 42 340 q 83 775 42 661 q 202 950 125 889 q 390 1010 280 1010 q 577 949 499 1010 q 697 774 656 888 q 739 500 739 661 q 697 226 739 340 q 578 51 656 112 q 390 -11 500 -11 m 390 141 q 493 184 451 141 q 558 307 536 227 q 579 500 580 387 q 556 694 578 614 q 491 817 534 774 q 390 859 449 859 q 288 815 330 859 q 224 692 246 772 q 202 500 202 612 q 224 308 202 389 q 289 184 247 228 q 390 141 330 141 z "},"Ó":{"ha":781,"x_min":42,"x_max":739,"o":"m 390 -11 q 203 50 281 -11 q 83 225 125 111 q 42 500 42 340 q 83 775 42 661 q 202 950 125 889 q 390 1010 280 1010 q 577 949 499 1010 q 697 774 656 888 q 739 500 739 661 q 697 226 739 340 q 578 51 656 112 q 390 -11 500 -11 m 390 141 q 493 184 451 141 q 558 307 536 227 q 579 500 580 387 q 556 694 578 614 q 491 817 534 774 q 390 859 449 859 q 288 815 330 859 q 224 692 246 772 q 202 500 202 612 q 224 308 202 389 q 289 184 247 228 q 390 141 330 141 m 390 1050 l 321 1122 l 536 1323 l 614 1223 l 390 1050 z "},"Ŏ":{"ha":781,"x_min":42,"x_max":739,"o":"m 390 -11 q 203 50 281 -11 q 83 225 125 111 q 42 500 42 340 q 83 775 42 661 q 202 950 125 889 q 390 1010 280 1010 q 577 949 499 1010 q 697 774 656 888 q 739 500 739 661 q 697 226 739 340 q 578 51 656 112 q 390 -11 500 -11 m 390 141 q 493 184 451 141 q 558 307 536 227 q 579 500 580 387 q 556 694 578 614 q 491 817 534 774 q 390 859 449 859 q 288 815 330 859 q 224 692 246 772 q 202 500 202 612 q 224 308 202 389 q 289 184 247 228 q 390 141 330 141 m 390 1060 q 274 1084 327 1060 q 189 1153 221 1107 q 157 1261 157 1198 l 256 1261 q 297 1180 257 1207 q 390 1154 338 1154 q 485 1180 445 1154 q 524 1261 525 1207 l 625 1261 q 594 1153 626 1198 q 508 1084 562 1107 q 390 1060 454 1060 z "},"Ô":{"ha":781,"x_min":42,"x_max":739,"o":"m 390 -11 q 203 50 281 -11 q 83 225 125 111 q 42 500 42 340 q 83 775 42 661 q 202 950 125 889 q 390 1010 280 1010 q 577 949 499 1010 q 697 774 656 888 q 739 500 739 661 q 697 226 739 340 q 578 51 656 112 q 390 -11 500 -11 m 390 141 q 493 184 451 141 q 558 307 536 227 q 579 500 580 387 q 556 694 578 614 q 491 817 534 774 q 390 859 449 859 q 288 815 330 859 q 224 692 246 772 q 202 500 202 612 q 224 308 202 389 q 289 184 247 228 q 390 141 330 141 m 227 1052 l 151 1131 l 374 1291 l 410 1291 l 631 1131 l 558 1052 l 393 1180 l 389 1180 l 227 1052 z "},"Ố":{"ha":781,"x_min":42,"x_max":804,"o":"m 390 -11 q 203 50 281 -11 q 83 225 125 111 q 42 500 42 340 q 83 775 42 661 q 202 950 125 889 q 390 1010 280 1010 q 577 949 499 1010 q 697 774 656 888 q 739 500 739 661 q 697 226 739 340 q 578 51 656 112 q 390 -11 500 -11 m 390 141 q 493 184 451 141 q 558 307 536 227 q 579 500 580 387 q 556 694 578 614 q 491 817 534 774 q 390 859 449 859 q 288 815 330 859 q 224 692 246 772 q 202 500 202 612 q 224 308 202 389 q 289 184 247 228 q 390 141 330 141 m 595 1217 l 523 1271 l 724 1481 l 803 1379 l 595 1217 m 225 1042 l 151 1120 l 373 1280 l 409 1280 l 631 1120 l 557 1042 l 393 1169 l 388 1169 l 225 1042 z "},"Ộ":{"ha":781,"x_min":42,"x_max":739,"o":"m 390 -11 q 203 50 281 -11 q 83 225 125 111 q 42 500 42 340 q 83 775 42 661 q 202 950 125 889 q 390 1010 280 1010 q 577 949 499 1010 q 697 774 656 888 q 739 500 739 661 q 697 226 739 340 q 578 51 656 112 q 390 -11 500 -11 m 390 141 q 493 184 451 141 q 558 307 536 227 q 579 500 580 387 q 556 694 578 614 q 491 817 534 774 q 390 859 449 859 q 288 815 330 859 q 224 692 246 772 q 202 500 202 612 q 224 308 202 389 q 289 184 247 228 q 390 141 330 141 m 389 -298 q 313 -268 344 -298 q 281 -191 281 -237 q 313 -115 281 -146 q 389 -84 344 -84 q 465 -115 434 -84 q 496 -191 496 -146 q 465 -268 496 -237 q 389 -298 434 -298 m 227 1052 l 151 1131 l 374 1291 l 410 1291 l 631 1131 l 558 1052 l 393 1180 l 389 1180 l 227 1052 z "},"Ồ":{"ha":781,"x_min":-23,"x_max":739,"o":"m 390 -11 q 203 50 281 -11 q 83 225 125 111 q 42 500 42 340 q 83 775 42 661 q 202 950 125 889 q 390 1010 280 1010 q 577 949 499 1010 q 697 774 656 888 q 739 500 739 661 q 697 226 739 340 q 578 51 656 112 q 390 -11 500 -11 m 390 141 q 493 184 451 141 q 558 307 536 227 q 579 500 580 387 q 556 694 578 614 q 491 817 534 774 q 390 859 449 859 q 288 815 330 859 q 224 692 246 772 q 202 500 202 612 q 224 308 202 389 q 289 184 247 228 q 390 141 330 141 m 184 1217 l -23 1379 l 56 1481 l 258 1270 l 184 1217 m 555 1042 l 393 1169 l 388 1169 l 223 1042 l 150 1120 l 372 1280 l 408 1280 l 630 1120 l 555 1042 z "},"Ổ":{"ha":781,"x_min":42,"x_max":739,"o":"m 390 -11 q 203 50 281 -11 q 83 225 125 111 q 42 500 42 340 q 83 775 42 661 q 202 950 125 889 q 390 1010 280 1010 q 577 949 499 1010 q 697 774 656 888 q 739 500 739 661 q 697 226 739 340 q 578 51 656 112 q 390 -11 500 -11 m 390 141 q 493 184 451 141 q 558 307 536 227 q 579 500 580 387 q 556 694 578 614 q 491 817 534 774 q 390 859 449 859 q 288 815 330 859 q 224 692 246 772 q 202 500 202 612 q 224 308 202 389 q 289 184 247 228 q 390 141 330 141 m 581 1217 l 519 1263 q 553 1299 540 1280 q 567 1335 567 1318 q 550 1371 567 1358 q 500 1383 533 1383 q 466 1380 484 1383 q 431 1370 448 1377 l 431 1469 q 472 1479 445 1476 q 522 1482 499 1482 q 627 1452 587 1482 q 667 1358 667 1421 q 653 1298 667 1326 q 619 1250 639 1271 q 581 1217 599 1229 m 224 1042 l 150 1120 l 372 1280 l 408 1280 l 630 1120 l 557 1042 l 392 1169 l 387 1169 l 224 1042 z "},"Ỗ":{"ha":781,"x_min":42,"x_max":739,"o":"m 390 -11 q 203 50 281 -11 q 83 225 125 111 q 42 500 42 340 q 83 775 42 661 q 202 950 125 889 q 390 1010 280 1010 q 577 949 499 1010 q 697 774 656 888 q 739 500 739 661 q 697 226 739 340 q 578 51 656 112 q 390 -11 500 -11 m 390 141 q 493 184 451 141 q 558 307 536 227 q 579 500 580 387 q 556 694 578 614 q 491 817 534 774 q 390 859 449 859 q 288 815 330 859 q 224 692 246 772 q 202 500 202 612 q 224 308 202 389 q 289 184 247 228 q 390 141 330 141 m 153 1305 q 191 1435 153 1385 q 296 1485 230 1485 q 356 1473 332 1485 q 397 1446 380 1461 q 432 1419 415 1430 q 469 1407 448 1407 q 507 1428 494 1407 q 521 1485 520 1449 l 624 1485 q 610 1393 625 1434 q 565 1329 595 1352 q 490 1305 534 1305 q 432 1317 456 1305 q 390 1345 408 1329 q 355 1373 372 1361 q 319 1385 339 1385 q 274 1365 292 1385 q 255 1305 256 1345 l 153 1305 m 223 1042 l 148 1120 l 371 1280 l 406 1280 l 628 1120 l 555 1042 l 390 1169 l 386 1169 l 223 1042 z "},"Ȍ":{"ha":781,"x_min":42,"x_max":739,"o":"m 390 -11 q 203 50 281 -11 q 83 225 125 111 q 42 500 42 340 q 83 775 42 661 q 202 950 125 889 q 390 1010 280 1010 q 577 949 499 1010 q 697 774 656 888 q 739 500 739 661 q 697 226 739 340 q 578 51 656 112 q 390 -11 500 -11 m 390 141 q 493 184 451 141 q 558 307 536 227 q 579 500 580 387 q 556 694 578 614 q 491 817 534 774 q 390 859 449 859 q 288 815 330 859 q 224 692 246 772 q 202 500 202 612 q 224 308 202 389 q 289 184 247 228 q 390 141 330 141 m 231 1069 l 69 1286 l 180 1347 l 313 1108 l 231 1069 m 469 1069 l 314 1286 l 424 1347 l 554 1108 l 469 1069 z "},"Ö":{"ha":781,"x_min":42,"x_max":739,"o":"m 390 -11 q 203 50 281 -11 q 83 225 125 111 q 42 500 42 340 q 83 775 42 661 q 202 950 125 889 q 390 1010 280 1010 q 577 949 499 1010 q 697 774 656 888 q 739 500 739 661 q 697 226 739 340 q 578 51 656 112 q 390 -11 500 -11 m 390 141 q 493 184 451 141 q 558 307 536 227 q 579 500 580 387 q 556 694 578 614 q 491 817 534 774 q 390 859 449 859 q 288 815 330 859 q 224 692 246 772 q 202 500 202 612 q 224 308 202 389 q 289 184 247 228 q 390 141 330 141 m 545 1062 q 474 1090 503 1062 q 445 1161 445 1119 q 474 1233 445 1204 q 545 1261 503 1261 q 616 1233 588 1261 q 644 1161 644 1204 q 616 1090 644 1119 q 545 1062 588 1062 m 239 1062 q 168 1090 197 1062 q 139 1161 139 1119 q 168 1233 139 1204 q 239 1261 197 1261 q 310 1233 282 1261 q 338 1161 338 1204 q 310 1090 338 1119 q 239 1062 282 1062 z "},"Ȫ":{"ha":781,"x_min":42,"x_max":739,"o":"m 390 -11 q 203 50 281 -11 q 83 225 125 111 q 42 500 42 340 q 83 775 42 661 q 202 950 125 889 q 390 1010 280 1010 q 577 949 499 1010 q 697 774 656 888 q 739 500 739 661 q 697 226 739 340 q 578 51 656 112 q 390 -11 500 -11 m 390 141 q 493 184 451 141 q 558 307 536 227 q 579 500 580 387 q 556 694 578 614 q 491 817 534 774 q 390 859 449 859 q 288 815 330 859 q 224 692 246 772 q 202 500 202 612 q 224 308 202 389 q 289 184 247 228 q 390 141 330 141 m 545 1062 q 474 1090 503 1062 q 445 1161 445 1119 q 474 1233 445 1204 q 545 1261 503 1261 q 616 1233 588 1261 q 644 1161 644 1204 q 616 1090 644 1119 q 545 1062 588 1062 m 239 1062 q 168 1090 197 1062 q 139 1161 139 1119 q 168 1233 139 1204 q 239 1261 197 1261 q 310 1233 282 1261 q 338 1161 338 1204 q 310 1090 338 1119 q 239 1062 282 1062 m 137 1319 l 137 1430 l 644 1430 l 644 1319 l 137 1319 z "},"Ȱ":{"ha":781,"x_min":42,"x_max":739,"o":"m 390 -11 q 203 50 281 -11 q 83 225 125 111 q 42 500 42 340 q 83 775 42 661 q 202 950 125 889 q 390 1010 280 1010 q 577 949 499 1010 q 697 774 656 888 q 739 500 739 661 q 697 226 739 340 q 578 51 656 112 q 390 -11 500 -11 m 390 141 q 493 184 451 141 q 558 307 536 227 q 579 500 580 387 q 556 694 578 614 q 491 817 534 774 q 390 859 449 859 q 288 815 330 859 q 224 692 246 772 q 202 500 202 612 q 224 308 202 389 q 289 184 247 228 q 390 141 330 141 m 390 1065 q 314 1096 345 1065 q 283 1173 283 1127 q 314 1249 283 1218 q 390 1280 345 1280 q 466 1249 435 1280 q 497 1173 497 1218 q 466 1096 497 1127 q 390 1065 435 1065 m 137 1335 l 137 1446 l 644 1446 l 644 1335 l 137 1335 z "},"Ọ":{"ha":781,"x_min":42,"x_max":739,"o":"m 390 -11 q 203 50 281 -11 q 83 225 125 111 q 42 500 42 340 q 83 775 42 661 q 202 950 125 889 q 390 1010 280 1010 q 577 949 499 1010 q 697 774 656 888 q 739 500 739 661 q 697 226 739 340 q 578 51 656 112 q 390 -11 500 -11 m 390 141 q 493 184 451 141 q 558 307 536 227 q 579 500 580 387 q 556 694 578 614 q 491 817 534 774 q 390 859 449 859 q 288 815 330 859 q 224 692 246 772 q 202 500 202 612 q 224 308 202 389 q 289 184 247 228 q 390 141 330 141 m 390 -298 q 314 -268 345 -298 q 283 -191 283 -237 q 314 -115 283 -146 q 390 -84 345 -84 q 466 -115 435 -84 q 497 -191 497 -146 q 466 -268 497 -237 q 390 -298 435 -298 z "},"Ò":{"ha":781,"x_min":42,"x_max":739,"o":"m 390 -11 q 203 50 281 -11 q 83 225 125 111 q 42 500 42 340 q 83 775 42 661 q 202 950 125 889 q 390 1010 280 1010 q 577 949 499 1010 q 697 774 656 888 q 739 500 739 661 q 697 226 739 340 q 578 51 656 112 q 390 -11 500 -11 m 390 141 q 493 184 451 141 q 558 307 536 227 q 579 500 580 387 q 556 694 578 614 q 491 817 534 774 q 390 859 449 859 q 288 815 330 859 q 224 692 246 772 q 202 500 202 612 q 224 308 202 389 q 289 184 247 228 q 390 141 330 141 m 390 1050 l 166 1223 l 244 1323 l 459 1122 l 390 1050 z "},"Ỏ":{"ha":781,"x_min":42,"x_max":739,"o":"m 390 -11 q 203 50 281 -11 q 83 225 125 111 q 42 500 42 340 q 83 775 42 661 q 202 950 125 889 q 390 1010 280 1010 q 577 949 499 1010 q 697 774 656 888 q 739 500 739 661 q 697 226 739 340 q 578 51 656 112 q 390 -11 500 -11 m 390 141 q 493 184 451 141 q 558 307 536 227 q 579 500 580 387 q 556 694 578 614 q 491 817 534 774 q 390 859 449 859 q 288 815 330 859 q 224 692 246 772 q 202 500 202 612 q 224 308 202 389 q 289 184 247 228 q 390 141 330 141 m 412 1067 l 351 1128 q 390 1160 374 1141 q 406 1200 406 1179 q 389 1234 406 1221 q 340 1246 372 1246 q 306 1242 328 1246 q 269 1232 285 1239 l 269 1331 q 311 1341 284 1337 q 357 1345 338 1345 q 466 1313 426 1345 q 506 1221 506 1281 q 477 1126 506 1168 q 412 1067 448 1084 z "},"Ơ":{"ha":781,"x_min":42,"x_max":791,"o":"m 390 -11 q 203 50 281 -11 q 83 225 125 111 q 42 500 42 340 q 83 775 42 661 q 202 950 125 889 q 390 1010 280 1010 q 577 949 499 1010 q 697 774 656 888 q 739 500 739 661 q 697 226 739 340 q 578 51 656 112 q 390 -11 500 -11 m 390 141 q 493 184 451 141 q 558 307 536 227 q 579 500 580 387 q 556 694 578 614 q 491 817 534 774 q 390 859 449 859 q 288 815 330 859 q 224 692 246 772 q 202 500 202 612 q 224 308 202 389 q 289 184 247 228 q 390 141 330 141 m 532 859 l 529 965 q 633 1000 600 966 q 667 1101 667 1034 q 665 1132 667 1112 q 661 1168 664 1152 l 779 1190 q 788 1140 785 1168 q 791 1094 791 1112 q 753 966 791 1020 q 657 884 716 912 q 532 859 597 856 z "},"Ớ":{"ha":781,"x_min":42,"x_max":791,"o":"m 390 -11 q 203 50 281 -11 q 83 225 125 111 q 42 500 42 340 q 83 775 42 661 q 202 950 125 889 q 390 1010 280 1010 q 577 949 499 1010 q 697 774 656 888 q 739 500 739 661 q 697 226 739 340 q 578 51 656 112 q 390 -11 500 -11 m 390 141 q 493 184 451 141 q 558 307 536 227 q 579 500 580 387 q 556 694 578 614 q 491 817 534 774 q 390 859 449 859 q 288 815 330 859 q 224 692 246 772 q 202 500 202 612 q 224 308 202 389 q 289 184 247 228 q 390 141 330 141 m 532 859 l 529 965 q 633 1000 600 966 q 667 1101 667 1034 q 665 1132 667 1112 q 661 1168 664 1152 l 779 1190 q 788 1140 785 1168 q 791 1094 791 1112 q 753 966 791 1020 q 657 884 716 912 q 532 859 597 856 m 390 1050 l 321 1122 l 536 1323 l 614 1223 l 390 1050 z "},"Ợ":{"ha":781,"x_min":42,"x_max":791,"o":"m 390 -11 q 203 50 281 -11 q 83 225 125 111 q 42 500 42 340 q 83 775 42 661 q 202 950 125 889 q 390 1010 280 1010 q 577 949 499 1010 q 697 774 656 888 q 739 500 739 661 q 697 226 739 340 q 578 51 656 112 q 390 -11 500 -11 m 390 141 q 493 184 451 141 q 558 307 536 227 q 579 500 580 387 q 556 694 578 614 q 491 817 534 774 q 390 859 449 859 q 288 815 330 859 q 224 692 246 772 q 202 500 202 612 q 224 308 202 389 q 289 184 247 228 q 390 141 330 141 m 532 859 l 529 965 q 633 1000 600 966 q 667 1101 667 1034 q 665 1132 667 1112 q 661 1168 664 1152 l 779 1190 q 788 1140 785 1168 q 791 1094 791 1112 q 753 966 791 1020 q 657 884 716 912 q 532 859 597 856 m 389 -298 q 313 -268 344 -298 q 281 -191 281 -237 q 313 -115 281 -146 q 389 -84 344 -84 q 465 -115 434 -84 q 496 -191 496 -146 q 465 -268 496 -237 q 389 -298 434 -298 z "},"Ờ":{"ha":781,"x_min":42,"x_max":791,"o":"m 390 -11 q 203 50 281 -11 q 83 225 125 111 q 42 500 42 340 q 83 775 42 661 q 202 950 125 889 q 390 1010 280 1010 q 577 949 499 1010 q 697 774 656 888 q 739 500 739 661 q 697 226 739 340 q 578 51 656 112 q 390 -11 500 -11 m 390 141 q 493 184 451 141 q 558 307 536 227 q 579 500 580 387 q 556 694 578 614 q 491 817 534 774 q 390 859 449 859 q 288 815 330 859 q 224 692 246 772 q 202 500 202 612 q 224 308 202 389 q 289 184 247 228 q 390 141 330 141 m 532 859 l 529 965 q 633 1000 600 966 q 667 1101 667 1034 q 665 1132 667 1112 q 661 1168 664 1152 l 779 1190 q 788 1140 785 1168 q 791 1094 791 1112 q 753 966 791 1020 q 657 884 716 912 q 532 859 597 856 m 390 1050 l 166 1223 l 244 1323 l 459 1122 l 390 1050 z "},"Ở":{"ha":781,"x_min":42,"x_max":791,"o":"m 390 -11 q 203 50 281 -11 q 83 225 125 111 q 42 500 42 340 q 83 775 42 661 q 202 950 125 889 q 390 1010 280 1010 q 577 949 499 1010 q 697 774 656 888 q 739 500 739 661 q 697 226 739 340 q 578 51 656 112 q 390 -11 500 -11 m 390 141 q 493 184 451 141 q 558 307 536 227 q 579 500 580 387 q 556 694 578 614 q 491 817 534 774 q 390 859 449 859 q 288 815 330 859 q 224 692 246 772 q 202 500 202 612 q 224 308 202 389 q 289 184 247 228 q 390 141 330 141 m 532 859 l 529 965 q 633 1000 600 966 q 667 1101 667 1034 q 665 1132 667 1112 q 661 1168 664 1152 l 779 1190 q 788 1140 785 1168 q 791 1094 791 1112 q 753 966 791 1020 q 657 884 716 912 q 532 859 597 856 m 412 1067 l 351 1128 q 390 1160 374 1141 q 406 1200 406 1179 q 389 1234 406 1221 q 340 1246 372 1246 q 306 1242 328 1246 q 269 1232 285 1239 l 269 1331 q 311 1341 284 1337 q 357 1345 338 1345 q 466 1313 426 1345 q 506 1221 506 1281 q 477 1126 506 1168 q 412 1067 448 1084 z "},"Ỡ":{"ha":781,"x_min":42,"x_max":791,"o":"m 390 -11 q 203 50 281 -11 q 83 225 125 111 q 42 500 42 340 q 83 775 42 661 q 202 950 125 889 q 390 1010 280 1010 q 577 949 499 1010 q 697 774 656 888 q 739 500 739 661 q 697 226 739 340 q 578 51 656 112 q 390 -11 500 -11 m 390 141 q 493 184 451 141 q 558 307 536 227 q 579 500 580 387 q 556 694 578 614 q 491 817 534 774 q 390 859 449 859 q 288 815 330 859 q 224 692 246 772 q 202 500 202 612 q 224 308 202 389 q 289 184 247 228 q 390 141 330 141 m 532 859 l 529 965 q 633 1000 600 966 q 667 1101 667 1034 q 665 1132 667 1112 q 661 1168 664 1152 l 779 1190 q 788 1140 785 1168 q 791 1094 791 1112 q 753 966 791 1020 q 657 884 716 912 q 532 859 597 856 m 155 1073 q 193 1203 155 1152 q 296 1253 231 1253 q 357 1241 333 1253 q 399 1213 382 1229 q 433 1185 417 1197 q 469 1173 449 1173 q 510 1197 496 1173 q 524 1253 524 1221 l 625 1253 q 588 1125 626 1177 q 481 1073 549 1073 q 422 1085 446 1073 q 380 1114 398 1098 q 345 1142 361 1130 q 308 1154 328 1154 q 270 1132 282 1154 q 257 1073 257 1109 l 155 1073 z "},"Ő":{"ha":781,"x_min":42,"x_max":739,"o":"m 390 -11 q 203 50 281 -11 q 83 225 125 111 q 42 500 42 340 q 83 775 42 661 q 202 950 125 889 q 390 1010 280 1010 q 577 949 499 1010 q 697 774 656 888 q 739 500 739 661 q 697 226 739 340 q 578 51 656 112 q 390 -11 500 -11 m 390 141 q 493 184 451 141 q 558 307 536 227 q 579 500 580 387 q 556 694 578 614 q 491 817 534 774 q 390 859 449 859 q 288 815 330 859 q 224 692 246 772 q 202 500 202 612 q 224 308 202 389 q 289 184 247 228 q 390 141 330 141 m 308 1069 l 223 1108 l 361 1347 l 467 1286 l 308 1069 m 550 1069 l 468 1108 l 600 1347 l 708 1286 l 550 1069 z "},"Ȏ":{"ha":781,"x_min":42,"x_max":739,"o":"m 390 -11 q 203 50 281 -11 q 83 225 125 111 q 42 500 42 340 q 83 775 42 661 q 202 950 125 889 q 390 1010 280 1010 q 577 949 499 1010 q 697 774 656 888 q 739 500 739 661 q 697 226 739 340 q 578 51 656 112 q 390 -11 500 -11 m 390 141 q 493 184 451 141 q 558 307 536 227 q 579 500 580 387 q 556 694 578 614 q 491 817 534 774 q 390 859 449 859 q 288 815 330 859 q 224 692 246 772 q 202 500 202 612 q 224 308 202 389 q 289 184 247 228 q 390 141 330 141 m 389 1265 q 507 1241 453 1265 q 593 1172 562 1217 q 623 1064 625 1127 l 523 1064 q 484 1145 524 1119 q 389 1172 444 1172 q 296 1145 336 1172 q 255 1064 256 1119 l 156 1064 q 188 1172 156 1127 q 273 1241 220 1217 q 389 1265 326 1265 z "},"Ō":{"ha":781,"x_min":42,"x_max":739,"o":"m 390 -11 q 203 50 281 -11 q 83 225 125 111 q 42 500 42 340 q 83 775 42 661 q 202 950 125 889 q 390 1010 280 1010 q 577 949 499 1010 q 697 774 656 888 q 739 500 739 661 q 697 226 739 340 q 578 51 656 112 q 390 -11 500 -11 m 390 141 q 493 184 451 141 q 558 307 536 227 q 579 500 580 387 q 556 694 578 614 q 491 817 534 774 q 390 859 449 859 q 288 815 330 859 q 224 692 246 772 q 202 500 202 612 q 224 308 202 389 q 289 184 247 228 q 390 141 330 141 m 137 1105 l 137 1216 l 644 1216 l 644 1105 l 137 1105 z "},"Ṓ":{"ha":781,"x_min":42,"x_max":739,"o":"m 136 1105 l 136 1216 l 644 1216 l 644 1105 l 136 1105 m 390 1267 l 321 1339 l 536 1539 l 614 1439 l 390 1267 m 390 -11 q 203 50 281 -11 q 83 225 125 111 q 42 500 42 340 q 83 775 42 661 q 202 950 125 889 q 390 1010 280 1010 q 577 949 499 1010 q 697 774 656 888 q 739 500 739 661 q 697 226 739 340 q 578 51 656 112 q 390 -11 500 -11 m 390 141 q 493 184 451 141 q 558 307 536 227 q 579 500 580 387 q 556 694 578 614 q 491 817 534 774 q 390 859 449 859 q 288 815 330 859 q 224 692 246 772 q 202 500 202 612 q 224 308 202 389 q 289 184 247 228 q 390 141 330 141 z "},"Ṑ":{"ha":781,"x_min":42,"x_max":739,"o":"m 390 -11 q 203 50 281 -11 q 83 225 125 111 q 42 500 42 340 q 83 775 42 661 q 202 950 125 889 q 390 1010 280 1010 q 577 949 499 1010 q 697 774 656 888 q 739 500 739 661 q 697 226 739 340 q 578 51 656 112 q 390 -11 500 -11 m 390 141 q 493 184 451 141 q 558 307 536 227 q 579 500 580 387 q 556 694 578 614 q 491 817 534 774 q 390 859 449 859 q 288 815 330 859 q 224 692 246 772 q 202 500 202 612 q 224 308 202 389 q 289 184 247 228 q 390 141 330 141 m 137 1105 l 137 1216 l 644 1216 l 644 1105 l 137 1105 m 390 1267 l 166 1439 l 244 1539 l 459 1339 l 390 1267 z "},"Ǫ":{"ha":781,"x_min":42,"x_max":739,"o":"m 390 -11 q 203 50 281 -11 q 83 225 125 111 q 42 500 42 340 q 83 775 42 661 q 202 950 125 889 q 390 1010 280 1010 q 577 949 499 1010 q 697 774 656 888 q 739 500 739 661 q 697 226 739 340 q 578 51 656 112 q 390 -11 500 -11 m 390 141 q 493 184 451 141 q 558 307 536 227 q 579 500 580 387 q 556 694 578 614 q 491 817 534 774 q 390 859 449 859 q 288 815 330 859 q 224 692 246 772 q 202 500 202 612 q 224 308 202 389 q 289 184 247 228 q 390 141 330 141 m 370 -285 q 274 -250 311 -285 q 237 -159 237 -215 q 275 -61 237 -104 q 375 28 313 -17 l 460 0 q 402 -47 429 -24 q 357 -93 374 -70 q 340 -142 340 -116 q 355 -177 340 -164 q 397 -190 371 -190 q 438 -183 416 -190 q 470 -168 460 -176 l 470 -262 q 423 -278 454 -272 q 370 -285 393 -285 z "},"Ø":{"ha":781,"x_min":3,"x_max":778,"o":"m 390 -11 q 203 50 281 -11 q 83 225 125 111 q 42 500 42 340 q 83 775 42 661 q 202 950 125 889 q 390 1010 280 1010 q 577 949 499 1010 q 697 774 656 888 q 739 500 739 661 q 697 226 739 340 q 578 51 656 112 q 390 -11 500 -11 m 390 141 q 493 184 451 141 q 558 307 536 227 q 579 500 580 387 q 556 694 578 614 q 491 817 534 774 q 390 859 449 859 q 288 815 330 859 q 224 692 246 772 q 202 500 202 612 q 224 308 202 389 q 289 184 247 228 q 390 141 330 141 m 3 0 l 631 1000 l 778 1000 l 151 0 l 3 0 z "},"Ǿ":{"ha":781,"x_min":3,"x_max":778,"o":"m 390 -11 q 203 50 281 -11 q 83 225 125 111 q 42 500 42 340 q 83 775 42 661 q 202 950 125 889 q 390 1010 280 1010 q 577 949 499 1010 q 697 774 656 888 q 739 500 739 661 q 697 226 739 340 q 578 51 656 112 q 390 -11 500 -11 m 390 141 q 493 184 451 141 q 558 307 536 227 q 579 500 580 387 q 556 694 578 614 q 491 817 534 774 q 390 859 449 859 q 288 815 330 859 q 224 692 246 772 q 202 500 202 612 q 224 308 202 389 q 289 184 247 228 q 390 141 330 141 m 3 0 l 631 1000 l 778 1000 l 151 0 l 3 0 m 390 1050 l 321 1122 l 536 1323 l 614 1223 l 390 1050 z "},"Õ":{"ha":781,"x_min":42,"x_max":739,"o":"m 390 -11 q 203 50 281 -11 q 83 225 125 111 q 42 500 42 340 q 83 775 42 661 q 202 950 125 889 q 390 1010 280 1010 q 577 949 499 1010 q 697 774 656 888 q 739 500 739 661 q 697 226 739 340 q 578 51 656 112 q 390 -11 500 -11 m 390 141 q 493 184 451 141 q 558 307 536 227 q 579 500 580 387 q 556 694 578 614 q 491 817 534 774 q 390 859 449 859 q 288 815 330 859 q 224 692 246 772 q 202 500 202 612 q 224 308 202 389 q 289 184 247 228 q 390 141 330 141 m 155 1073 q 193 1203 155 1152 q 296 1253 231 1253 q 357 1241 333 1253 q 399 1213 382 1229 q 433 1185 417 1197 q 469 1173 449 1173 q 510 1197 496 1173 q 524 1253 524 1221 l 625 1253 q 588 1125 626 1177 q 481 1073 549 1073 q 422 1085 446 1073 q 380 1114 398 1098 q 345 1142 361 1130 q 308 1154 328 1154 q 270 1132 282 1154 q 257 1073 257 1109 l 155 1073 z "},"Ṍ":{"ha":781,"x_min":42,"x_max":739,"o":"m 390 -11 q 203 50 281 -11 q 83 225 125 111 q 42 500 42 340 q 83 775 42 661 q 202 950 125 889 q 390 1010 280 1010 q 577 949 499 1010 q 697 774 656 888 q 739 500 739 661 q 697 226 739 340 q 578 51 656 112 q 390 -11 500 -11 m 390 141 q 493 184 451 141 q 558 307 536 227 q 579 500 580 387 q 556 694 578 614 q 491 817 534 774 q 390 859 449 859 q 288 815 330 859 q 224 692 246 772 q 202 500 202 612 q 224 308 202 389 q 289 184 247 228 q 390 141 330 141 m 155 1073 q 193 1203 155 1152 q 296 1253 231 1253 q 357 1241 333 1253 q 399 1213 382 1229 q 433 1185 417 1197 q 469 1173 449 1173 q 510 1197 496 1173 q 524 1253 524 1221 l 625 1253 q 588 1125 626 1177 q 481 1073 549 1073 q 422 1085 446 1073 q 380 1114 398 1098 q 345 1142 361 1130 q 308 1154 328 1154 q 270 1132 282 1154 q 257 1073 257 1109 l 155 1073 m 390 1293 l 321 1364 l 536 1565 l 614 1465 l 390 1293 z "},"Ṏ":{"ha":781,"x_min":42,"x_max":739,"o":"m 390 -11 q 203 50 281 -11 q 83 225 125 111 q 42 500 42 340 q 83 775 42 661 q 202 950 125 889 q 390 1010 280 1010 q 577 949 499 1010 q 697 774 656 888 q 739 500 739 661 q 697 226 739 340 q 578 51 656 112 q 390 -11 500 -11 m 390 141 q 493 184 451 141 q 558 307 536 227 q 579 500 580 387 q 556 694 578 614 q 491 817 534 774 q 390 859 449 859 q 288 815 330 859 q 224 692 246 772 q 202 500 202 612 q 224 308 202 389 q 289 184 247 228 q 390 141 330 141 m 155 1073 q 193 1203 155 1152 q 296 1253 231 1253 q 357 1241 333 1253 q 399 1213 382 1229 q 433 1185 417 1197 q 469 1173 449 1173 q 510 1197 496 1173 q 524 1253 524 1221 l 625 1253 q 588 1125 626 1177 q 481 1073 549 1073 q 422 1085 446 1073 q 380 1114 398 1098 q 345 1142 361 1130 q 308 1154 328 1154 q 270 1132 282 1154 q 257 1073 257 1109 l 155 1073 m 545 1304 q 474 1333 503 1304 q 445 1403 445 1361 q 474 1475 445 1447 q 545 1503 503 1503 q 616 1475 588 1503 q 644 1403 644 1447 q 616 1333 644 1361 q 545 1304 588 1304 m 239 1304 q 168 1333 197 1304 q 139 1403 139 1361 q 168 1475 139 1447 q 239 1503 197 1503 q 310 1475 282 1503 q 338 1403 338 1447 q 310 1333 338 1361 q 239 1304 282 1304 z "},"Ȭ":{"ha":781,"x_min":42,"x_max":739,"o":"m 390 -11 q 203 50 281 -11 q 83 225 125 111 q 42 500 42 340 q 83 775 42 661 q 202 950 125 889 q 390 1010 280 1010 q 577 949 499 1010 q 697 774 656 888 q 739 500 739 661 q 697 226 739 340 q 578 51 656 112 q 390 -11 500 -11 m 390 141 q 493 184 451 141 q 558 307 536 227 q 579 500 580 387 q 556 694 578 614 q 491 817 534 774 q 390 859 449 859 q 288 815 330 859 q 224 692 246 772 q 202 500 202 612 q 224 308 202 389 q 289 184 247 228 q 390 141 330 141 m 155 1073 q 193 1203 155 1152 q 296 1253 231 1253 q 357 1241 333 1253 q 399 1213 382 1229 q 433 1185 417 1197 q 469 1173 449 1173 q 510 1197 496 1173 q 524 1253 524 1221 l 625 1253 q 588 1125 626 1177 q 481 1073 549 1073 q 422 1085 446 1073 q 380 1114 398 1098 q 345 1142 361 1130 q 308 1154 328 1154 q 270 1132 282 1154 q 257 1073 257 1109 l 155 1073 m 137 1348 l 137 1458 l 644 1458 l 644 1348 l 137 1348 z "},"Œ":{"ha":781,"x_min":28,"x_max":758,"o":"m 279 -11 q 149 50 205 -11 q 60 225 92 111 q 28 500 28 340 q 60 774 28 660 q 148 949 92 888 q 279 1010 204 1010 q 371 979 334 1010 q 430 897 408 948 q 462 786 452 845 l 437 786 l 437 1000 l 758 1000 l 758 850 l 562 850 l 562 581 l 735 581 l 735 433 l 562 433 l 562 150 l 758 150 l 758 0 l 437 0 l 437 217 l 462 217 q 430 104 452 156 q 370 21 408 52 q 279 -11 333 -11 m 300 136 q 395 232 359 136 q 431 500 431 328 q 395 768 431 672 q 301 863 360 863 q 211 767 241 863 q 181 500 181 671 q 211 234 181 331 q 300 136 241 136 z "},"P":{"ha":781,"x_min":111,"x_max":730,"o":"m 239 366 l 239 514 l 402 514 q 488 536 451 514 q 546 596 526 557 q 566 685 566 635 q 519 806 566 762 q 394 850 472 850 l 239 850 l 239 1000 l 406 1000 q 577 961 505 1000 q 690 853 650 923 q 730 690 730 784 q 690 522 730 595 q 578 407 650 448 q 411 366 507 366 l 239 366 m 111 0 l 111 1000 l 277 1000 l 277 0 l 111 0 z "},"Þ":{"ha":781,"x_min":107,"x_max":730,"o":"m 231 182 l 231 330 l 416 330 q 497 352 463 330 q 550 413 531 374 q 568 503 568 452 q 526 625 568 582 q 412 669 483 669 l 231 669 l 231 817 l 418 817 q 581 779 511 817 q 691 673 652 742 q 730 507 730 604 q 691 339 730 412 q 583 224 652 266 q 422 182 513 182 l 231 182 m 107 0 l 107 1000 l 273 1000 l 273 0 l 107 0 z "},"Q":{"ha":781,"x_min":43,"x_max":764,"o":"m 390 -11 q 203 50 281 -11 q 84 225 125 111 q 43 500 43 339 q 85 775 43 661 q 204 950 126 889 q 391 1011 282 1011 q 578 950 502 1011 q 695 776 655 890 q 736 504 736 663 q 710 276 736 375 q 633 110 684 176 l 596 85 q 509 14 563 39 q 390 -11 456 -11 m 615 0 l 547 104 l 468 152 l 321 367 l 470 367 l 572 204 l 649 161 l 764 0 l 615 0 m 391 138 q 499 179 456 138 q 562 300 542 220 q 583 498 583 380 q 561 691 582 610 q 497 816 540 772 q 391 859 455 859 q 286 817 329 859 q 219 694 242 774 q 197 498 197 613 q 219 304 197 385 q 285 181 241 224 q 391 138 328 138 z "},"R":{"ha":781,"x_min":80,"x_max":750,"o":"m 198 378 l 198 518 l 371 518 q 454 539 418 518 q 512 597 491 559 q 533 686 533 635 q 486 806 533 763 q 364 850 438 850 l 198 850 l 198 1000 l 390 1000 q 543 965 474 1000 q 653 864 612 930 q 694 704 694 798 q 652 539 694 613 q 534 422 610 466 q 353 378 457 378 l 198 378 m 80 0 l 80 1000 l 242 1000 l 242 0 l 80 0 m 566 0 l 349 404 l 470 503 l 750 0 l 566 0 z "},"Ŕ":{"ha":781,"x_min":80,"x_max":750,"o":"m 198 378 l 198 518 l 371 518 q 454 539 418 518 q 512 597 491 559 q 533 686 533 635 q 486 806 533 763 q 364 850 438 850 l 198 850 l 198 1000 l 390 1000 q 543 965 474 1000 q 653 864 612 930 q 694 704 694 798 q 652 539 694 613 q 534 422 610 466 q 353 378 457 378 l 198 378 m 80 0 l 80 1000 l 242 1000 l 242 0 l 80 0 m 566 0 l 349 404 l 470 503 l 750 0 l 566 0 m 356 1050 l 287 1122 l 502 1323 l 580 1223 l 356 1050 z "},"Ř":{"ha":781,"x_min":80,"x_max":750,"o":"m 198 378 l 198 518 l 371 518 q 454 539 418 518 q 512 597 491 559 q 533 686 533 635 q 486 806 533 763 q 364 850 438 850 l 198 850 l 198 1000 l 390 1000 q 543 965 474 1000 q 653 864 612 930 q 694 704 694 798 q 652 539 694 613 q 534 422 610 466 q 353 378 457 378 l 198 378 m 80 0 l 80 1000 l 242 1000 l 242 0 l 80 0 m 566 0 l 349 404 l 470 503 l 750 0 l 566 0 m 191 1286 l 353 1158 l 358 1158 l 523 1286 l 596 1207 l 374 1047 l 338 1047 l 116 1207 l 191 1286 z "},"Ŗ":{"ha":781,"x_min":80,"x_max":750,"o":"m 198 378 l 198 518 l 371 518 q 454 539 418 518 q 512 597 491 559 q 533 686 533 635 q 486 806 533 763 q 364 850 438 850 l 198 850 l 198 1000 l 390 1000 q 543 965 474 1000 q 653 864 612 930 q 694 704 694 798 q 652 539 694 613 q 534 422 610 466 q 353 378 457 378 l 198 378 m 80 0 l 80 1000 l 242 1000 l 242 0 l 80 0 m 566 0 l 349 404 l 470 503 l 750 0 l 566 0 m 347 -395 l 311 -351 l 367 -299 q 394 -269 382 -284 q 414 -240 407 -254 q 421 -213 421 -225 l 443 -211 q 431 -238 441 -226 q 399 -251 421 -251 q 347 -229 372 -251 q 321 -171 321 -206 q 346 -113 321 -134 q 399 -92 370 -92 q 456 -115 433 -92 q 479 -183 479 -138 q 466 -249 479 -219 q 435 -301 453 -279 q 406 -334 418 -323 l 347 -395 z "},"Ȑ":{"ha":781,"x_min":35,"x_max":750,"o":"m 198 378 l 198 518 l 371 518 q 454 539 418 518 q 512 597 491 559 q 533 686 533 635 q 486 806 533 763 q 364 850 438 850 l 198 850 l 198 1000 l 390 1000 q 543 965 474 1000 q 653 864 612 930 q 694 704 694 798 q 652 539 694 613 q 534 422 610 466 q 353 378 457 378 l 198 378 m 80 0 l 80 1000 l 242 1000 l 242 0 l 80 0 m 566 0 l 349 404 l 470 503 l 750 0 l 566 0 m 197 1069 l 35 1286 l 146 1347 l 279 1108 l 197 1069 m 435 1069 l 280 1286 l 390 1347 l 520 1108 l 435 1069 z "},"Ṛ":{"ha":781,"x_min":80,"x_max":750,"o":"m 198 378 l 198 518 l 371 518 q 454 539 418 518 q 512 597 491 559 q 533 686 533 635 q 486 806 533 763 q 364 850 438 850 l 198 850 l 198 1000 l 390 1000 q 543 965 474 1000 q 653 864 612 930 q 694 704 694 798 q 652 539 694 613 q 534 422 610 466 q 353 378 457 378 l 198 378 m 80 0 l 80 1000 l 242 1000 l 242 0 l 80 0 m 566 0 l 349 404 l 470 503 l 750 0 l 566 0 m 395 -298 q 319 -268 350 -298 q 288 -191 288 -237 q 319 -115 288 -146 q 395 -84 350 -84 q 471 -115 440 -84 q 502 -191 502 -146 q 471 -268 502 -237 q 395 -298 440 -298 z "},"Ȓ":{"ha":781,"x_min":80,"x_max":750,"o":"m 198 378 l 198 518 l 371 518 q 454 539 418 518 q 512 597 491 559 q 533 686 533 635 q 486 806 533 763 q 364 850 438 850 l 198 850 l 198 1000 l 390 1000 q 543 965 474 1000 q 653 864 612 930 q 694 704 694 798 q 652 539 694 613 q 534 422 610 466 q 353 378 457 378 l 198 378 m 80 0 l 80 1000 l 242 1000 l 242 0 l 80 0 m 566 0 l 349 404 l 470 503 l 750 0 l 566 0 m 355 1265 q 473 1241 419 1265 q 559 1172 528 1217 q 589 1064 591 1127 l 489 1064 q 450 1145 490 1119 q 355 1172 410 1172 q 262 1145 302 1172 q 221 1064 222 1119 l 121 1064 q 154 1172 121 1127 q 239 1241 186 1217 q 355 1265 292 1265 z "},"Ṟ":{"ha":781,"x_min":80,"x_max":750,"o":"m 198 378 l 198 518 l 371 518 q 454 539 418 518 q 512 597 491 559 q 533 686 533 635 q 486 806 533 763 q 364 850 438 850 l 198 850 l 198 1000 l 390 1000 q 543 965 474 1000 q 653 864 612 930 q 694 704 694 798 q 652 539 694 613 q 534 422 610 466 q 353 378 457 378 l 198 378 m 80 0 l 80 1000 l 242 1000 l 242 0 l 80 0 m 566 0 l 349 404 l 470 503 l 750 0 l 566 0 m 141 -277 l 141 -176 l 648 -176 l 648 -277 l 141 -277 z "},"S":{"ha":781,"x_min":59,"x_max":710,"o":"m 401 -11 q 253 20 323 -11 q 133 104 184 51 q 59 226 81 157 l 216 292 q 259 214 231 248 q 323 161 287 180 q 401 141 360 141 q 473 159 441 141 q 525 209 506 177 q 544 280 544 240 q 519 357 544 327 q 454 409 494 388 q 365 449 414 431 q 268 490 316 468 q 179 543 219 511 q 114 621 138 574 q 89 738 89 668 q 126 883 89 822 q 231 977 164 944 q 382 1010 297 1010 q 517 986 457 1010 q 620 918 577 961 q 684 821 662 876 l 532 758 q 495 813 517 791 q 443 849 472 836 q 381 861 414 861 q 293 831 332 861 q 255 742 255 800 q 280 665 255 695 q 345 614 304 635 q 434 576 385 593 q 531 537 483 558 q 621 485 580 516 q 686 408 661 454 q 710 290 710 361 q 669 135 710 203 q 558 28 629 66 q 401 -11 488 -11 z "},"Ś":{"ha":781,"x_min":59,"x_max":710,"o":"m 401 -11 q 253 20 323 -11 q 133 104 184 51 q 59 226 81 157 l 216 292 q 259 214 231 248 q 323 161 287 180 q 401 141 360 141 q 473 159 441 141 q 525 209 506 177 q 544 280 544 240 q 519 357 544 327 q 454 409 494 388 q 365 449 414 431 q 268 490 316 468 q 179 543 219 511 q 114 621 138 574 q 89 738 89 668 q 126 883 89 822 q 231 977 164 944 q 382 1010 297 1010 q 517 986 457 1010 q 620 918 577 961 q 684 821 662 876 l 532 758 q 495 813 517 791 q 443 849 472 836 q 381 861 414 861 q 293 831 332 861 q 255 742 255 800 q 280 665 255 695 q 345 614 304 635 q 434 576 385 593 q 531 537 483 558 q 621 485 580 516 q 686 408 661 454 q 710 290 710 361 q 669 135 710 203 q 558 28 629 66 q 401 -11 488 -11 m 390 1050 l 321 1122 l 536 1323 l 614 1223 l 390 1050 z "},"Ṥ":{"ha":781,"x_min":59,"x_max":710,"o":"m 401 -11 q 253 20 323 -11 q 133 104 184 51 q 59 226 81 157 l 216 292 q 259 214 231 248 q 323 161 287 180 q 401 141 360 141 q 473 159 441 141 q 525 209 506 177 q 544 280 544 240 q 519 357 544 327 q 454 409 494 388 q 365 449 414 431 q 268 490 316 468 q 179 543 219 511 q 114 621 138 574 q 89 738 89 668 q 126 883 89 822 q 231 977 164 944 q 382 1010 297 1010 q 517 986 457 1010 q 620 918 577 961 q 684 821 662 876 l 532 758 q 495 813 517 791 q 443 849 472 836 q 381 861 414 861 q 293 831 332 861 q 255 742 255 800 q 280 665 255 695 q 345 614 304 635 q 434 576 385 593 q 531 537 483 558 q 621 485 580 516 q 686 408 661 454 q 710 290 710 361 q 669 135 710 203 q 558 28 629 66 q 401 -11 488 -11 m 484 1067 l 414 1129 l 591 1375 l 692 1279 l 484 1067 m 258 1101 q 182 1132 214 1101 q 151 1208 151 1162 q 182 1284 151 1253 q 258 1315 214 1315 q 335 1284 304 1315 q 366 1208 366 1253 q 335 1132 366 1162 q 258 1101 304 1101 z "},"Š":{"ha":781,"x_min":59,"x_max":710,"o":"m 401 -11 q 253 20 323 -11 q 133 104 184 51 q 59 226 81 157 l 216 292 q 259 214 231 248 q 323 161 287 180 q 401 141 360 141 q 473 159 441 141 q 525 209 506 177 q 544 280 544 240 q 519 357 544 327 q 454 409 494 388 q 365 449 414 431 q 268 490 316 468 q 179 543 219 511 q 114 621 138 574 q 89 738 89 668 q 126 883 89 822 q 231 977 164 944 q 382 1010 297 1010 q 517 986 457 1010 q 620 918 577 961 q 684 821 662 876 l 532 758 q 495 813 517 791 q 443 849 472 836 q 381 861 414 861 q 293 831 332 861 q 255 742 255 800 q 280 665 255 695 q 345 614 304 635 q 434 576 385 593 q 531 537 483 558 q 621 485 580 516 q 686 408 661 454 q 710 290 710 361 q 669 135 710 203 q 558 28 629 66 q 401 -11 488 -11 m 224 1286 l 387 1158 l 391 1158 l 556 1286 l 629 1207 l 408 1047 l 372 1047 l 149 1207 l 224 1286 z "},"Ṧ":{"ha":781,"x_min":59,"x_max":710,"o":"m 401 -11 q 253 20 323 -11 q 133 104 184 51 q 59 226 81 157 l 216 292 q 259 214 231 248 q 323 161 287 180 q 401 141 360 141 q 473 159 441 141 q 525 209 506 177 q 544 280 544 240 q 519 357 544 327 q 454 409 494 388 q 365 449 414 431 q 268 490 316 468 q 179 543 219 511 q 114 621 138 574 q 89 738 89 668 q 126 883 89 822 q 231 977 164 944 q 382 1010 297 1010 q 517 986 457 1010 q 620 918 577 961 q 684 821 662 876 l 532 758 q 495 813 517 791 q 443 849 472 836 q 381 861 414 861 q 293 831 332 861 q 255 742 255 800 q 280 665 255 695 q 345 614 304 635 q 434 576 385 593 q 531 537 483 558 q 621 485 580 516 q 686 408 661 454 q 710 290 710 361 q 669 135 710 203 q 558 28 629 66 q 401 -11 488 -11 m 224 1286 l 387 1158 l 391 1158 l 556 1286 l 629 1207 l 408 1047 l 372 1047 l 149 1207 l 224 1286 m 389 1272 q 313 1303 345 1272 q 282 1379 282 1334 q 313 1455 282 1425 q 389 1486 345 1486 q 466 1455 435 1486 q 496 1379 496 1425 q 466 1303 496 1334 q 389 1272 435 1272 z "},"Ş":{"ha":781,"x_min":59,"x_max":710,"o":"m 401 -11 q 253 20 323 -11 q 133 104 184 51 q 59 226 81 157 l 216 292 q 259 214 231 248 q 323 161 287 180 q 401 141 360 141 q 473 159 441 141 q 525 209 506 177 q 544 280 544 240 q 519 357 544 327 q 454 409 494 388 q 365 449 414 431 q 268 490 316 468 q 179 543 219 511 q 114 621 138 574 q 89 738 89 668 q 126 883 89 822 q 231 977 164 944 q 382 1010 297 1010 q 517 986 457 1010 q 620 918 577 961 q 684 821 662 876 l 532 758 q 495 813 517 791 q 443 849 472 836 q 381 861 414 861 q 293 831 332 861 q 255 742 255 800 q 280 665 255 695 q 345 614 304 635 q 434 576 385 593 q 531 537 483 558 q 621 485 580 516 q 686 408 661 454 q 710 290 710 361 q 669 135 710 203 q 558 28 629 66 q 401 -11 488 -11 m 293 -330 l 293 -245 q 396 -232 363 -248 q 430 -185 430 -216 q 403 -147 430 -163 q 330 -130 376 -131 l 370 0 l 445 0 l 408 -111 l 399 -70 q 494 -112 460 -80 q 528 -194 528 -144 q 471 -294 528 -256 q 293 -330 413 -331 z "},"Ŝ":{"ha":781,"x_min":59,"x_max":710,"o":"m 401 -11 q 253 20 323 -11 q 133 104 184 51 q 59 226 81 157 l 216 292 q 259 214 231 248 q 323 161 287 180 q 401 141 360 141 q 473 159 441 141 q 525 209 506 177 q 544 280 544 240 q 519 357 544 327 q 454 409 494 388 q 365 449 414 431 q 268 490 316 468 q 179 543 219 511 q 114 621 138 574 q 89 738 89 668 q 126 883 89 822 q 231 977 164 944 q 382 1010 297 1010 q 517 986 457 1010 q 620 918 577 961 q 684 821 662 876 l 532 758 q 495 813 517 791 q 443 849 472 836 q 381 861 414 861 q 293 831 332 861 q 255 742 255 800 q 280 665 255 695 q 345 614 304 635 q 434 576 385 593 q 531 537 483 558 q 621 485 580 516 q 686 408 661 454 q 710 290 710 361 q 669 135 710 203 q 558 28 629 66 q 401 -11 488 -11 m 227 1052 l 151 1131 l 374 1291 l 410 1291 l 631 1131 l 558 1052 l 393 1180 l 389 1180 l 227 1052 z "},"Ș":{"ha":781,"x_min":59,"x_max":710,"o":"m 401 -11 q 253 20 323 -11 q 133 104 184 51 q 59 226 81 157 l 216 292 q 259 214 231 248 q 323 161 287 180 q 401 141 360 141 q 473 159 441 141 q 525 209 506 177 q 544 280 544 240 q 519 357 544 327 q 454 409 494 388 q 365 449 414 431 q 268 490 316 468 q 179 543 219 511 q 114 621 138 574 q 89 738 89 668 q 126 883 89 822 q 231 977 164 944 q 382 1010 297 1010 q 517 986 457 1010 q 620 918 577 961 q 684 821 662 876 l 532 758 q 495 813 517 791 q 443 849 472 836 q 381 861 414 861 q 293 831 332 861 q 255 742 255 800 q 280 665 255 695 q 345 614 304 635 q 434 576 385 593 q 531 537 483 558 q 621 485 580 516 q 686 408 661 454 q 710 290 710 361 q 669 135 710 203 q 558 28 629 66 q 401 -11 488 -11 m 353 -395 l 317 -351 l 373 -299 q 400 -269 388 -284 q 420 -240 413 -254 q 427 -213 427 -225 l 449 -211 q 437 -238 448 -226 q 405 -251 427 -251 q 353 -229 378 -251 q 328 -171 328 -206 q 352 -113 328 -134 q 405 -92 376 -92 q 462 -115 439 -92 q 486 -183 486 -138 q 472 -249 486 -219 q 441 -301 459 -279 q 412 -334 424 -323 l 353 -395 z "},"Ṡ":{"ha":781,"x_min":59,"x_max":710,"o":"m 401 -11 q 253 20 323 -11 q 133 104 184 51 q 59 226 81 157 l 216 292 q 259 214 231 248 q 323 161 287 180 q 401 141 360 141 q 473 159 441 141 q 525 209 506 177 q 544 280 544 240 q 519 357 544 327 q 454 409 494 388 q 365 449 414 431 q 268 490 316 468 q 179 543 219 511 q 114 621 138 574 q 89 738 89 668 q 126 883 89 822 q 231 977 164 944 q 382 1010 297 1010 q 517 986 457 1010 q 620 918 577 961 q 684 821 662 876 l 532 758 q 495 813 517 791 q 443 849 472 836 q 381 861 414 861 q 293 831 332 861 q 255 742 255 800 q 280 665 255 695 q 345 614 304 635 q 434 576 385 593 q 531 537 483 558 q 621 485 580 516 q 686 408 661 454 q 710 290 710 361 q 669 135 710 203 q 558 28 629 66 q 401 -11 488 -11 m 389 1065 q 313 1096 345 1065 q 282 1173 282 1127 q 313 1249 282 1218 q 389 1280 345 1280 q 466 1249 435 1280 q 496 1173 496 1218 q 466 1096 496 1127 q 389 1065 435 1065 z "},"Ṣ":{"ha":781,"x_min":59,"x_max":710,"o":"m 401 -11 q 253 20 323 -11 q 133 104 184 51 q 59 226 81 157 l 216 292 q 259 214 231 248 q 323 161 287 180 q 401 141 360 141 q 473 159 441 141 q 525 209 506 177 q 544 280 544 240 q 519 357 544 327 q 454 409 494 388 q 365 449 414 431 q 268 490 316 468 q 179 543 219 511 q 114 621 138 574 q 89 738 89 668 q 126 883 89 822 q 231 977 164 944 q 382 1010 297 1010 q 517 986 457 1010 q 620 918 577 961 q 684 821 662 876 l 532 758 q 495 813 517 791 q 443 849 472 836 q 381 861 414 861 q 293 831 332 861 q 255 742 255 800 q 280 665 255 695 q 345 614 304 635 q 434 576 385 593 q 531 537 483 558 q 621 485 580 516 q 686 408 661 454 q 710 290 710 361 q 669 135 710 203 q 558 28 629 66 q 401 -11 488 -11 m 401 -298 q 325 -268 356 -298 q 294 -191 294 -237 q 325 -115 294 -146 q 401 -84 356 -84 q 477 -115 446 -84 q 508 -191 508 -146 q 477 -268 508 -237 q 401 -298 446 -298 z "},"Ṩ":{"ha":781,"x_min":59,"x_max":710,"o":"m 401 -11 q 253 20 323 -11 q 133 104 184 51 q 59 226 81 157 l 216 292 q 259 214 231 248 q 323 161 287 180 q 401 141 360 141 q 473 159 441 141 q 525 209 506 177 q 544 280 544 240 q 519 357 544 327 q 454 409 494 388 q 365 449 414 431 q 268 490 316 468 q 179 543 219 511 q 114 621 138 574 q 89 738 89 668 q 126 883 89 822 q 231 977 164 944 q 382 1010 297 1010 q 517 986 457 1010 q 620 918 577 961 q 684 821 662 876 l 532 758 q 495 813 517 791 q 443 849 472 836 q 381 861 414 861 q 293 831 332 861 q 255 742 255 800 q 280 665 255 695 q 345 614 304 635 q 434 576 385 593 q 531 537 483 558 q 621 485 580 516 q 686 408 661 454 q 710 290 710 361 q 669 135 710 203 q 558 28 629 66 q 401 -11 488 -11 m 399 -298 q 323 -268 355 -298 q 292 -191 292 -237 q 323 -115 292 -146 q 399 -84 355 -84 q 476 -115 445 -84 q 507 -191 507 -146 q 476 -268 507 -237 q 399 -298 445 -298 m 401 1065 q 325 1096 356 1065 q 294 1173 294 1127 q 325 1249 294 1218 q 401 1280 356 1280 q 477 1249 446 1280 q 508 1173 508 1218 q 477 1096 508 1127 q 401 1065 446 1065 z "},"ẞ":{"ha":781,"x_min":73,"x_max":747,"o":"m 441 -11 q 398 -8 418 -11 q 357 1 377 -5 l 357 154 q 407 142 390 144 q 435 139 423 139 q 517 162 483 139 q 570 227 552 186 q 589 323 589 269 q 551 452 589 402 q 437 502 513 502 l 386 502 l 386 536 l 494 881 l 504 833 q 461 854 493 845 q 393 863 429 863 q 312 850 343 863 q 263 815 281 837 q 239 765 246 793 q 233 705 233 736 l 233 0 l 73 0 l 73 721 q 87 824 73 778 q 128 905 101 869 q 193 963 155 940 q 280 999 231 987 q 386 1010 328 1010 q 487 1003 434 1010 q 586 981 539 995 q 666 948 633 967 l 666 928 l 530 547 l 518 623 q 644 576 593 617 q 721 468 694 534 q 747 319 747 401 q 708 145 747 220 q 601 30 669 71 q 441 -11 532 -11 z "},"T":{"ha":781,"x_min":51,"x_max":730,"o":"m 307 0 l 307 877 l 474 877 l 474 0 l 307 0 m 51 850 l 51 1000 l 730 1000 l 730 850 l 51 850 z "},"Ŧ":{"ha":781,"x_min":51,"x_max":730,"o":"m 307 0 l 307 877 l 474 877 l 474 0 l 307 0 m 51 850 l 51 1000 l 730 1000 l 730 850 l 51 850 m 193 422 l 193 524 l 590 524 l 590 422 l 193 422 z "},"Ť":{"ha":781,"x_min":51,"x_max":730,"o":"m 307 0 l 307 877 l 474 877 l 474 0 l 307 0 m 51 850 l 51 1000 l 730 1000 l 730 850 l 51 850 m 225 1286 l 388 1158 l 393 1158 l 557 1286 l 631 1207 l 409 1047 l 373 1047 l 151 1207 l 225 1286 z "},"Ţ":{"ha":781,"x_min":51,"x_max":730,"o":"m 307 0 l 307 877 l 474 877 l 474 0 l 307 0 m 51 850 l 51 1000 l 730 1000 l 730 850 l 51 850 m 276 -330 l 276 -245 q 379 -232 346 -248 q 413 -185 413 -216 q 386 -147 413 -163 q 313 -130 359 -131 l 353 0 l 428 0 l 391 -111 l 382 -70 q 477 -112 443 -80 q 511 -194 511 -144 q 454 -294 511 -256 q 276 -330 396 -331 z "},"Ț":{"ha":781,"x_min":51,"x_max":730,"o":"m 307 0 l 307 877 l 474 877 l 474 0 l 307 0 m 51 850 l 51 1000 l 730 1000 l 730 850 l 51 850 m 343 -395 l 307 -351 l 363 -299 q 390 -269 378 -284 q 410 -240 403 -254 q 417 -213 417 -225 l 439 -211 q 427 -238 437 -226 q 395 -251 417 -251 q 343 -229 368 -251 q 317 -171 317 -206 q 341 -113 317 -134 q 395 -92 366 -92 q 452 -115 429 -92 q 475 -183 475 -138 q 462 -249 475 -219 q 431 -301 449 -279 q 402 -334 414 -323 l 343 -395 z "},"Ṭ":{"ha":781,"x_min":51,"x_max":730,"o":"m 307 0 l 307 877 l 474 877 l 474 0 l 307 0 m 51 850 l 51 1000 l 730 1000 l 730 850 l 51 850 m 391 -298 q 315 -268 346 -298 q 283 -191 283 -237 q 315 -115 283 -146 q 391 -84 346 -84 q 467 -115 436 -84 q 498 -191 498 -146 q 467 -268 498 -237 q 391 -298 436 -298 z "},"Ṯ":{"ha":781,"x_min":51,"x_max":730,"o":"m 307 0 l 307 877 l 474 877 l 474 0 l 307 0 m 51 850 l 51 1000 l 730 1000 l 730 850 l 51 850 m 137 -277 l 137 -176 l 644 -176 l 644 -277 l 137 -277 z "},"U":{"ha":781,"x_min":70,"x_max":711,"o":"m 391 -11 q 220 33 292 -11 q 109 158 148 77 q 70 349 70 238 l 70 1000 l 233 1000 l 233 340 q 275 193 233 248 q 391 139 317 139 q 507 193 465 139 q 549 340 549 248 l 549 1000 l 711 1000 l 711 349 q 672 158 711 238 q 562 33 633 77 q 391 -11 490 -11 z "},"Ú":{"ha":781,"x_min":70,"x_max":711,"o":"m 391 -11 q 220 33 292 -11 q 109 158 148 77 q 70 349 70 238 l 70 1000 l 233 1000 l 233 340 q 275 193 233 248 q 391 139 317 139 q 507 193 465 139 q 549 340 549 248 l 549 1000 l 711 1000 l 711 349 q 672 158 711 238 q 562 33 633 77 q 391 -11 490 -11 m 391 1050 l 321 1122 l 536 1323 l 614 1223 l 391 1050 z "},"Ŭ":{"ha":781,"x_min":70,"x_max":711,"o":"m 391 -11 q 220 33 292 -11 q 109 158 148 77 q 70 349 70 238 l 70 1000 l 233 1000 l 233 340 q 275 193 233 248 q 391 139 317 139 q 507 193 465 139 q 549 340 549 248 l 549 1000 l 711 1000 l 711 349 q 672 158 711 238 q 562 33 633 77 q 391 -11 490 -11 m 391 1060 q 275 1084 328 1060 q 190 1153 222 1107 q 157 1261 157 1198 l 257 1261 q 298 1180 258 1207 q 391 1154 338 1154 q 486 1180 446 1154 q 525 1261 526 1207 l 625 1261 q 595 1153 627 1198 q 509 1084 563 1107 q 391 1060 455 1060 z "},"Û":{"ha":781,"x_min":70,"x_max":711,"o":"m 391 -11 q 220 33 292 -11 q 109 158 148 77 q 70 349 70 238 l 70 1000 l 233 1000 l 233 340 q 275 193 233 248 q 391 139 317 139 q 507 193 465 139 q 549 340 549 248 l 549 1000 l 711 1000 l 711 349 q 672 158 711 238 q 562 33 633 77 q 391 -11 490 -11 m 227 1052 l 152 1131 l 374 1291 l 410 1291 l 632 1131 l 559 1052 l 394 1180 l 390 1180 l 227 1052 z "},"Ȕ":{"ha":781,"x_min":70,"x_max":711,"o":"m 391 -11 q 220 33 292 -11 q 109 158 148 77 q 70 349 70 238 l 70 1000 l 233 1000 l 233 340 q 275 193 233 248 q 391 139 317 139 q 507 193 465 139 q 549 340 549 248 l 549 1000 l 711 1000 l 711 349 q 672 158 711 238 q 562 33 633 77 q 391 -11 490 -11 m 231 1069 l 70 1286 l 181 1347 l 313 1108 l 231 1069 m 470 1069 l 315 1286 l 425 1347 l 555 1108 l 470 1069 z "},"Ü":{"ha":781,"x_min":70,"x_max":711,"o":"m 391 -11 q 220 33 292 -11 q 109 158 148 77 q 70 349 70 238 l 70 1000 l 233 1000 l 233 340 q 275 193 233 248 q 391 139 317 139 q 507 193 465 139 q 549 340 549 248 l 549 1000 l 711 1000 l 711 349 q 672 158 711 238 q 562 33 633 77 q 391 -11 490 -11 m 546 1062 q 474 1090 503 1062 q 446 1161 446 1119 q 474 1233 446 1204 q 546 1261 503 1261 q 617 1233 589 1261 q 645 1161 645 1204 q 617 1090 645 1119 q 546 1062 589 1062 m 240 1062 q 169 1090 197 1062 q 140 1161 140 1119 q 169 1233 140 1204 q 240 1261 197 1261 q 311 1233 283 1261 q 339 1161 339 1204 q 311 1090 339 1119 q 240 1062 283 1062 z "},"Ụ":{"ha":781,"x_min":70,"x_max":711,"o":"m 391 -11 q 220 33 292 -11 q 109 158 148 77 q 70 349 70 238 l 70 1000 l 233 1000 l 233 340 q 275 193 233 248 q 391 139 317 139 q 507 193 465 139 q 549 340 549 248 l 549 1000 l 711 1000 l 711 349 q 672 158 711 238 q 562 33 633 77 q 391 -11 490 -11 m 390 -298 q 314 -268 345 -298 q 283 -191 283 -237 q 314 -115 283 -146 q 390 -84 345 -84 q 466 -115 435 -84 q 497 -191 497 -146 q 466 -268 497 -237 q 390 -298 435 -298 z "},"Ù":{"ha":781,"x_min":70,"x_max":711,"o":"m 391 -11 q 220 33 292 -11 q 109 158 148 77 q 70 349 70 238 l 70 1000 l 233 1000 l 233 340 q 275 193 233 248 q 391 139 317 139 q 507 193 465 139 q 549 340 549 248 l 549 1000 l 711 1000 l 711 349 q 672 158 711 238 q 562 33 633 77 q 391 -11 490 -11 m 391 1050 l 167 1223 l 245 1323 l 460 1122 l 391 1050 z "},"Ủ":{"ha":781,"x_min":70,"x_max":711,"o":"m 391 -11 q 220 33 292 -11 q 109 158 148 77 q 70 349 70 238 l 70 1000 l 233 1000 l 233 340 q 275 193 233 248 q 391 139 317 139 q 507 193 465 139 q 549 340 549 248 l 549 1000 l 711 1000 l 711 349 q 672 158 711 238 q 562 33 633 77 q 391 -11 490 -11 m 412 1067 l 351 1128 q 390 1160 374 1141 q 406 1200 406 1179 q 389 1234 406 1221 q 340 1246 372 1246 q 306 1242 328 1246 q 269 1232 285 1239 l 269 1331 q 311 1341 284 1337 q 357 1345 338 1345 q 466 1313 426 1345 q 506 1221 506 1281 q 477 1126 506 1168 q 412 1067 448 1084 z "},"Ư":{"ha":781,"x_min":70,"x_max":929,"o":"m 391 -11 q 220 33 292 -11 q 109 158 148 77 q 70 349 70 238 l 70 1000 l 233 1000 l 233 340 q 275 193 233 248 q 391 139 317 139 q 507 193 465 139 q 549 340 549 248 l 549 1000 l 711 1000 l 711 349 q 672 158 711 238 q 562 33 633 77 q 391 -11 490 -11 m 669 894 l 667 1000 q 771 1035 737 1000 q 804 1135 804 1069 q 803 1167 804 1147 q 798 1203 802 1187 l 916 1225 q 926 1175 923 1203 q 928 1128 928 1147 q 891 1001 928 1055 q 794 919 854 947 q 669 894 735 890 z "},"Ứ":{"ha":781,"x_min":70,"x_max":929,"o":"m 391 -11 q 220 33 292 -11 q 109 158 148 77 q 70 349 70 238 l 70 1000 l 233 1000 l 233 340 q 275 193 233 248 q 391 139 317 139 q 507 193 465 139 q 549 340 549 248 l 549 1000 l 711 1000 l 711 349 q 672 158 711 238 q 562 33 633 77 q 391 -11 490 -11 m 669 894 l 667 1000 q 771 1035 737 1000 q 804 1135 804 1069 q 803 1167 804 1147 q 798 1203 802 1187 l 916 1225 q 926 1175 923 1203 q 928 1128 928 1147 q 891 1001 928 1055 q 794 919 854 947 q 669 894 735 890 m 391 1050 l 321 1122 l 536 1323 l 614 1223 l 391 1050 z "},"Ự":{"ha":781,"x_min":70,"x_max":929,"o":"m 391 -11 q 220 33 292 -11 q 109 158 148 77 q 70 349 70 238 l 70 1000 l 233 1000 l 233 340 q 275 193 233 248 q 391 139 317 139 q 507 193 465 139 q 549 340 549 248 l 549 1000 l 711 1000 l 711 349 q 672 158 711 238 q 562 33 633 77 q 391 -11 490 -11 m 669 894 l 667 1000 q 771 1035 737 1000 q 804 1135 804 1069 q 803 1167 804 1147 q 798 1203 802 1187 l 916 1225 q 926 1175 923 1203 q 928 1128 928 1147 q 891 1001 928 1055 q 794 919 854 947 q 669 894 735 890 m 390 -298 q 314 -268 345 -298 q 283 -191 283 -237 q 314 -115 283 -146 q 390 -84 345 -84 q 466 -115 435 -84 q 497 -191 497 -146 q 466 -268 497 -237 q 390 -298 435 -298 z "},"Ừ":{"ha":781,"x_min":70,"x_max":929,"o":"m 391 -11 q 220 33 292 -11 q 109 158 148 77 q 70 349 70 238 l 70 1000 l 233 1000 l 233 340 q 275 193 233 248 q 391 139 317 139 q 507 193 465 139 q 549 340 549 248 l 549 1000 l 711 1000 l 711 349 q 672 158 711 238 q 562 33 633 77 q 391 -11 490 -11 m 669 894 l 667 1000 q 771 1035 737 1000 q 804 1135 804 1069 q 803 1167 804 1147 q 798 1203 802 1187 l 916 1225 q 926 1175 923 1203 q 928 1128 928 1147 q 891 1001 928 1055 q 794 919 854 947 q 669 894 735 890 m 391 1050 l 167 1223 l 245 1323 l 460 1122 l 391 1050 z "},"Ử":{"ha":781,"x_min":70,"x_max":929,"o":"m 391 -11 q 220 33 292 -11 q 109 158 148 77 q 70 349 70 238 l 70 1000 l 233 1000 l 233 340 q 275 193 233 248 q 391 139 317 139 q 507 193 465 139 q 549 340 549 248 l 549 1000 l 711 1000 l 711 349 q 672 158 711 238 q 562 33 633 77 q 391 -11 490 -11 m 669 894 l 667 1000 q 771 1035 737 1000 q 804 1135 804 1069 q 803 1167 804 1147 q 798 1203 802 1187 l 916 1225 q 926 1175 923 1203 q 928 1128 928 1147 q 891 1001 928 1055 q 794 919 854 947 q 669 894 735 890 m 412 1067 l 351 1128 q 390 1160 374 1141 q 406 1200 406 1179 q 389 1234 406 1221 q 340 1246 372 1246 q 306 1242 328 1246 q 269 1232 285 1239 l 269 1331 q 311 1341 284 1337 q 357 1345 338 1345 q 466 1313 426 1345 q 506 1221 506 1281 q 477 1126 506 1168 q 412 1067 448 1084 z "},"Ữ":{"ha":781,"x_min":70,"x_max":929,"o":"m 391 -11 q 220 33 292 -11 q 109 158 148 77 q 70 349 70 238 l 70 1000 l 233 1000 l 233 340 q 275 193 233 248 q 391 139 317 139 q 507 193 465 139 q 549 340 549 248 l 549 1000 l 711 1000 l 711 349 q 672 158 711 238 q 562 33 633 77 q 391 -11 490 -11 m 669 894 l 667 1000 q 771 1035 737 1000 q 804 1135 804 1069 q 803 1167 804 1147 q 798 1203 802 1187 l 916 1225 q 926 1175 923 1203 q 928 1128 928 1147 q 891 1001 928 1055 q 794 919 854 947 q 669 894 735 890 m 156 1073 q 194 1203 156 1152 q 297 1253 231 1253 q 358 1241 334 1253 q 400 1213 382 1229 q 434 1185 418 1197 q 469 1173 450 1173 q 510 1197 496 1173 q 524 1253 524 1221 l 625 1253 q 588 1125 627 1177 q 481 1073 550 1073 q 423 1085 447 1073 q 380 1114 399 1098 q 346 1142 362 1130 q 309 1154 329 1154 q 270 1132 283 1154 q 258 1073 258 1109 l 156 1073 z "},"Ű":{"ha":781,"x_min":70,"x_max":711,"o":"m 391 -11 q 220 33 292 -11 q 109 158 148 77 q 70 349 70 238 l 70 1000 l 233 1000 l 233 340 q 275 193 233 248 q 391 139 317 139 q 507 193 465 139 q 549 340 549 248 l 549 1000 l 711 1000 l 711 349 q 672 158 711 238 q 562 33 633 77 q 391 -11 490 -11 m 308 1069 l 223 1108 l 361 1347 l 467 1286 l 308 1069 m 550 1069 l 468 1108 l 600 1347 l 708 1286 l 550 1069 z "},"Ȗ":{"ha":781,"x_min":70,"x_max":711,"o":"m 391 -11 q 220 33 292 -11 q 109 158 148 77 q 70 349 70 238 l 70 1000 l 233 1000 l 233 340 q 275 193 233 248 q 391 139 317 139 q 507 193 465 139 q 549 340 549 248 l 549 1000 l 711 1000 l 711 349 q 672 158 711 238 q 562 33 633 77 q 391 -11 490 -11 m 389 1265 q 508 1241 454 1265 q 593 1172 562 1217 q 624 1064 625 1127 l 524 1064 q 484 1145 524 1119 q 389 1172 444 1172 q 297 1145 337 1172 q 256 1064 256 1119 l 156 1064 q 188 1172 156 1127 q 273 1241 220 1217 q 389 1265 326 1265 z "},"Ū":{"ha":781,"x_min":70,"x_max":711,"o":"m 391 -11 q 220 33 292 -11 q 109 158 148 77 q 70 349 70 238 l 70 1000 l 233 1000 l 233 340 q 275 193 233 248 q 391 139 317 139 q 507 193 465 139 q 549 340 549 248 l 549 1000 l 711 1000 l 711 349 q 672 158 711 238 q 562 33 633 77 q 391 -11 490 -11 m 137 1105 l 137 1216 l 644 1216 l 644 1105 l 137 1105 z "},"Ṻ":{"ha":781,"x_min":70,"x_max":711,"o":"m 391 -11 q 220 33 292 -11 q 109 158 148 77 q 70 349 70 238 l 70 1000 l 233 1000 l 233 340 q 275 193 233 248 q 391 139 317 139 q 507 193 465 139 q 549 340 549 248 l 549 1000 l 711 1000 l 711 349 q 672 158 711 238 q 562 33 633 77 q 391 -11 490 -11 m 137 1105 l 137 1216 l 644 1216 l 644 1105 l 137 1105 m 546 1278 q 474 1307 503 1278 q 446 1377 446 1335 q 474 1449 446 1421 q 546 1478 503 1478 q 617 1449 589 1478 q 645 1377 645 1421 q 617 1307 645 1335 q 546 1278 589 1278 m 240 1278 q 169 1307 197 1278 q 140 1377 140 1335 q 169 1449 140 1421 q 240 1478 197 1478 q 311 1449 283 1478 q 339 1377 339 1421 q 311 1307 339 1335 q 240 1278 283 1278 z "},"Ų":{"ha":781,"x_min":70,"x_max":711,"o":"m 391 -11 q 220 33 292 -11 q 109 158 148 77 q 70 349 70 238 l 70 1000 l 233 1000 l 233 340 q 275 193 233 248 q 391 139 317 139 q 507 193 465 139 q 549 340 549 248 l 549 1000 l 711 1000 l 711 349 q 672 158 711 238 q 562 33 633 77 q 391 -11 490 -11 m 380 -285 q 284 -250 321 -285 q 248 -159 248 -215 q 285 -61 248 -104 q 385 28 323 -17 l 470 0 q 412 -47 439 -24 q 367 -93 385 -70 q 350 -142 350 -116 q 366 -177 350 -164 q 408 -190 381 -190 q 448 -183 427 -190 q 480 -168 470 -176 l 480 -262 q 433 -278 464 -272 q 380 -285 403 -285 z "},"Ů":{"ha":781,"x_min":70,"x_max":711,"o":"m 391 -11 q 220 33 292 -11 q 109 158 148 77 q 70 349 70 238 l 70 1000 l 233 1000 l 233 340 q 275 193 233 248 q 391 139 317 139 q 507 193 465 139 q 549 340 549 248 l 549 1000 l 711 1000 l 711 349 q 672 158 711 238 q 562 33 633 77 q 391 -11 490 -11 m 391 1044 q 306 1066 344 1044 q 245 1126 267 1088 q 222 1211 222 1164 q 245 1297 222 1259 q 306 1357 267 1335 q 391 1379 344 1379 q 476 1357 438 1379 q 536 1297 514 1335 q 557 1211 557 1259 q 536 1126 557 1164 q 476 1066 514 1088 q 391 1044 438 1044 m 391 1137 q 443 1158 422 1137 q 463 1211 463 1180 q 443 1266 463 1245 q 391 1286 422 1286 q 340 1266 361 1286 q 318 1211 319 1245 q 339 1158 317 1180 q 391 1137 360 1137 z "},"Ũ":{"ha":781,"x_min":70,"x_max":711,"o":"m 391 -11 q 220 33 292 -11 q 109 158 148 77 q 70 349 70 238 l 70 1000 l 233 1000 l 233 340 q 275 193 233 248 q 391 139 317 139 q 507 193 465 139 q 549 340 549 248 l 549 1000 l 711 1000 l 711 349 q 672 158 711 238 q 562 33 633 77 q 391 -11 490 -11 m 156 1073 q 194 1203 156 1152 q 297 1253 231 1253 q 358 1241 334 1253 q 400 1213 382 1229 q 434 1185 418 1197 q 469 1173 450 1173 q 510 1197 496 1173 q 524 1253 524 1221 l 625 1253 q 588 1125 627 1177 q 481 1073 550 1073 q 423 1085 447 1073 q 380 1114 399 1098 q 346 1142 362 1130 q 309 1154 329 1154 q 270 1132 283 1154 q 258 1073 258 1109 l 156 1073 z "},"Ṹ":{"ha":781,"x_min":70,"x_max":711,"o":"m 391 -11 q 220 33 292 -11 q 109 158 148 77 q 70 349 70 238 l 70 1000 l 233 1000 l 233 340 q 275 193 233 248 q 391 139 317 139 q 507 193 465 139 q 549 340 549 248 l 549 1000 l 711 1000 l 711 349 q 672 158 711 238 q 562 33 633 77 q 391 -11 490 -11 m 156 1073 q 194 1203 156 1152 q 297 1253 231 1253 q 358 1241 334 1253 q 400 1213 382 1229 q 434 1185 418 1197 q 469 1173 450 1173 q 510 1197 496 1173 q 524 1253 524 1221 l 625 1253 q 588 1125 627 1177 q 481 1073 550 1073 q 423 1085 447 1073 q 380 1114 399 1098 q 346 1142 362 1130 q 309 1154 329 1154 q 270 1132 283 1154 q 258 1073 258 1109 l 156 1073 m 391 1293 l 321 1364 l 536 1565 l 614 1465 l 391 1293 z "},"V":{"ha":781,"x_min":3,"x_max":778,"o":"m 309 0 l 3 1000 l 176 1000 l 307 517 l 388 231 l 393 231 l 475 517 l 604 1000 l 778 1000 l 474 0 l 309 0 z "},"W":{"ha":781,"x_min":34,"x_max":749,"o":"m 130 0 q 80 223 102 115 q 46 438 58 331 q 34 654 34 545 l 34 1000 l 182 1000 l 182 654 q 186 501 182 576 q 200 356 191 425 q 220 224 209 286 l 226 224 l 354 633 l 427 633 l 555 224 l 561 224 q 582 356 573 286 q 596 501 591 425 q 601 654 601 576 l 601 1000 l 749 1000 l 749 654 q 736 438 749 545 q 702 223 724 332 q 652 0 680 115 l 507 0 l 393 376 l 388 376 l 274 0 l 130 0 z "},"Ẃ":{"ha":781,"x_min":34,"x_max":749,"o":"m 130 0 q 80 223 102 115 q 46 438 58 331 q 34 654 34 545 l 34 1000 l 182 1000 l 182 654 q 186 501 182 576 q 200 356 191 425 q 220 224 209 286 l 226 224 l 354 633 l 427 633 l 555 224 l 561 224 q 582 356 573 286 q 596 501 591 425 q 601 654 601 576 l 601 1000 l 749 1000 l 749 654 q 736 438 749 545 q 702 223 724 332 q 652 0 680 115 l 507 0 l 393 376 l 388 376 l 274 0 l 130 0 m 391 1050 l 321 1122 l 536 1323 l 614 1223 l 391 1050 z "},"Ŵ":{"ha":781,"x_min":34,"x_max":749,"o":"m 130 0 q 80 223 102 115 q 46 438 58 331 q 34 654 34 545 l 34 1000 l 182 1000 l 182 654 q 186 501 182 576 q 200 356 191 425 q 220 224 209 286 l 226 224 l 354 633 l 427 633 l 555 224 l 561 224 q 582 356 573 286 q 596 501 591 425 q 601 654 601 576 l 601 1000 l 749 1000 l 749 654 q 736 438 749 545 q 702 223 724 332 q 652 0 680 115 l 507 0 l 393 376 l 388 376 l 274 0 l 130 0 m 227 1052 l 152 1131 l 374 1291 l 410 1291 l 632 1131 l 559 1052 l 394 1180 l 390 1180 l 227 1052 z "},"Ẅ":{"ha":781,"x_min":34,"x_max":749,"o":"m 130 0 q 80 223 102 115 q 46 438 58 331 q 34 654 34 545 l 34 1000 l 182 1000 l 182 654 q 186 501 182 576 q 200 356 191 425 q 220 224 209 286 l 226 224 l 354 633 l 427 633 l 555 224 l 561 224 q 582 356 573 286 q 596 501 591 425 q 601 654 601 576 l 601 1000 l 749 1000 l 749 654 q 736 438 749 545 q 702 223 724 332 q 652 0 680 115 l 507 0 l 393 376 l 388 376 l 274 0 l 130 0 m 546 1062 q 474 1090 503 1062 q 446 1161 446 1119 q 474 1233 446 1204 q 546 1261 503 1261 q 617 1233 589 1261 q 645 1161 645 1204 q 617 1090 645 1119 q 546 1062 589 1062 m 240 1062 q 169 1090 197 1062 q 140 1161 140 1119 q 169 1233 140 1204 q 240 1261 197 1261 q 311 1233 283 1261 q 339 1161 339 1204 q 311 1090 339 1119 q 240 1062 283 1062 z "},"Ẁ":{"ha":781,"x_min":34,"x_max":749,"o":"m 130 0 q 80 223 102 115 q 46 438 58 331 q 34 654 34 545 l 34 1000 l 182 1000 l 182 654 q 186 501 182 576 q 200 356 191 425 q 220 224 209 286 l 226 224 l 354 633 l 427 633 l 555 224 l 561 224 q 582 356 573 286 q 596 501 591 425 q 601 654 601 576 l 601 1000 l 749 1000 l 749 654 q 736 438 749 545 q 702 223 724 332 q 652 0 680 115 l 507 0 l 393 376 l 388 376 l 274 0 l 130 0 m 391 1050 l 167 1223 l 245 1323 l 460 1122 l 391 1050 z "},"X":{"ha":781,"x_min":8,"x_max":773,"o":"m 582 0 l 393 375 l 386 375 l 281 498 l 281 503 l 14 1000 l 197 1000 l 389 610 l 394 610 l 500 503 l 500 498 l 773 0 l 582 0 m 8 0 l 281 498 l 281 503 l 386 610 l 393 610 l 583 1000 l 768 1000 l 500 503 l 500 498 l 394 375 l 389 375 l 198 0 l 8 0 z "},"Y":{"ha":781,"x_min":1,"x_max":781,"o":"m 309 0 l 309 410 l 1 1000 l 187 1000 l 295 774 l 388 573 l 393 573 l 486 774 l 594 1000 l 781 1000 l 473 410 l 473 0 l 309 0 z "},"Ý":{"ha":781,"x_min":1,"x_max":781,"o":"m 309 0 l 309 410 l 1 1000 l 187 1000 l 295 774 l 388 573 l 393 573 l 486 774 l 594 1000 l 781 1000 l 473 410 l 473 0 l 309 0 m 391 1050 l 321 1122 l 536 1323 l 614 1223 l 391 1050 z "},"Ŷ":{"ha":781,"x_min":1,"x_max":781,"o":"m 309 0 l 309 410 l 1 1000 l 187 1000 l 295 774 l 388 573 l 393 573 l 486 774 l 594 1000 l 781 1000 l 473 410 l 473 0 l 309 0 m 227 1052 l 152 1131 l 374 1291 l 410 1291 l 632 1131 l 559 1052 l 394 1180 l 390 1180 l 227 1052 z "},"Ÿ":{"ha":781,"x_min":1,"x_max":781,"o":"m 309 0 l 309 410 l 1 1000 l 187 1000 l 295 774 l 388 573 l 393 573 l 486 774 l 594 1000 l 781 1000 l 473 410 l 473 0 l 309 0 m 546 1062 q 474 1090 503 1062 q 446 1161 446 1119 q 474 1233 446 1204 q 546 1261 503 1261 q 617 1233 589 1261 q 645 1161 645 1204 q 617 1090 645 1119 q 546 1062 589 1062 m 240 1062 q 169 1090 197 1062 q 140 1161 140 1119 q 169 1233 140 1204 q 240 1261 197 1261 q 311 1233 283 1261 q 339 1161 339 1204 q 311 1090 339 1119 q 240 1062 283 1062 z "},"Ẏ":{"ha":781,"x_min":1,"x_max":781,"o":"m 309 0 l 309 410 l 1 1000 l 187 1000 l 295 774 l 388 573 l 393 573 l 486 774 l 594 1000 l 781 1000 l 473 410 l 473 0 l 309 0 m 390 1065 q 314 1096 345 1065 q 283 1173 283 1127 q 314 1249 283 1218 q 390 1280 345 1280 q 466 1249 435 1280 q 497 1173 497 1218 q 466 1096 497 1127 q 390 1065 435 1065 z "},"Ỵ":{"ha":781,"x_min":1,"x_max":781,"o":"m 309 0 l 309 410 l 1 1000 l 187 1000 l 295 774 l 388 573 l 393 573 l 486 774 l 594 1000 l 781 1000 l 473 410 l 473 0 l 309 0 m 389 -298 q 313 -268 345 -298 q 282 -191 282 -237 q 313 -115 282 -146 q 389 -84 345 -84 q 466 -115 435 -84 q 496 -191 496 -146 q 466 -268 496 -237 q 389 -298 435 -298 z "},"Ỳ":{"ha":781,"x_min":1,"x_max":781,"o":"m 309 0 l 309 410 l 1 1000 l 187 1000 l 295 774 l 388 573 l 393 573 l 486 774 l 594 1000 l 781 1000 l 473 410 l 473 0 l 309 0 m 391 1050 l 167 1223 l 245 1323 l 460 1122 l 391 1050 z "},"Ỷ":{"ha":781,"x_min":1,"x_max":781,"o":"m 309 0 l 309 410 l 1 1000 l 187 1000 l 295 774 l 388 573 l 393 573 l 486 774 l 594 1000 l 781 1000 l 473 410 l 473 0 l 309 0 m 412 1067 l 351 1128 q 390 1160 374 1141 q 406 1200 406 1179 q 389 1234 406 1221 q 340 1246 372 1246 q 306 1242 328 1246 q 269 1232 285 1239 l 269 1331 q 311 1341 284 1337 q 357 1345 338 1345 q 466 1313 426 1345 q 506 1221 506 1281 q 477 1126 506 1168 q 412 1067 448 1084 z "},"Ȳ":{"ha":781,"x_min":1,"x_max":781,"o":"m 309 0 l 309 410 l 1 1000 l 187 1000 l 295 774 l 388 573 l 393 573 l 486 774 l 594 1000 l 781 1000 l 473 410 l 473 0 l 309 0 m 137 1105 l 137 1216 l 644 1216 l 644 1105 l 137 1105 z "},"Ỹ":{"ha":781,"x_min":1,"x_max":781,"o":"m 309 0 l 309 410 l 1 1000 l 187 1000 l 295 774 l 388 573 l 393 573 l 486 774 l 594 1000 l 781 1000 l 473 410 l 473 0 l 309 0 m 156 1073 q 194 1203 156 1152 q 297 1253 231 1253 q 358 1241 334 1253 q 400 1213 382 1229 q 434 1185 418 1197 q 469 1173 450 1173 q 510 1197 496 1173 q 524 1253 524 1221 l 625 1253 q 588 1125 627 1177 q 481 1073 550 1073 q 423 1085 447 1073 q 380 1114 399 1098 q 346 1142 362 1130 q 309 1154 329 1154 q 270 1132 283 1154 q 258 1073 258 1109 l 156 1073 z "},"Z":{"ha":781,"x_min":56,"x_max":725,"o":"m 56 0 l 56 29 l 471 848 l 471 850 l 80 850 l 80 1000 l 716 1000 l 716 970 l 304 152 l 304 149 l 725 149 l 725 0 l 56 0 z "},"Ź":{"ha":781,"x_min":56,"x_max":725,"o":"m 56 0 l 56 29 l 471 848 l 471 850 l 80 850 l 80 1000 l 716 1000 l 716 970 l 304 152 l 304 149 l 725 149 l 725 0 l 56 0 m 395 1050 l 326 1122 l 541 1323 l 618 1223 l 395 1050 z "},"Ž":{"ha":781,"x_min":56,"x_max":725,"o":"m 56 0 l 56 29 l 471 848 l 471 850 l 80 850 l 80 1000 l 716 1000 l 716 970 l 304 152 l 304 149 l 725 149 l 725 0 l 56 0 m 229 1286 l 392 1158 l 396 1158 l 561 1286 l 634 1207 l 413 1047 l 377 1047 l 154 1207 l 229 1286 z "},"Ż":{"ha":781,"x_min":56,"x_max":725,"o":"m 56 0 l 56 29 l 471 848 l 471 850 l 80 850 l 80 1000 l 716 1000 l 716 970 l 304 152 l 304 149 l 725 149 l 725 0 l 56 0 m 394 1065 q 318 1096 349 1065 q 287 1173 287 1127 q 318 1249 287 1218 q 394 1280 349 1280 q 470 1249 439 1280 q 501 1173 501 1218 q 470 1096 501 1127 q 394 1065 439 1065 z "},"Ẓ":{"ha":781,"x_min":56,"x_max":725,"o":"m 56 0 l 56 29 l 471 848 l 471 850 l 80 850 l 80 1000 l 716 1000 l 716 970 l 304 152 l 304 149 l 725 149 l 725 0 l 56 0 m 396 -298 q 320 -268 351 -298 q 289 -191 289 -237 q 320 -115 289 -146 q 396 -84 351 -84 q 472 -115 441 -84 q 503 -191 503 -146 q 472 -268 503 -237 q 396 -298 441 -298 z "},"a":{"ha":781,"x_min":77,"x_max":722,"o":"m 314 -11 q 191 17 245 -11 q 107 94 138 45 q 77 208 77 143 q 112 326 77 273 q 214 409 146 378 q 382 439 281 439 l 543 439 l 543 330 l 406 330 q 323 318 363 330 q 257 281 283 307 q 231 214 231 256 q 247 161 231 184 q 288 127 262 139 q 348 115 315 115 q 427 132 387 115 q 494 181 467 149 q 521 259 521 213 l 521 340 l 514 377 l 514 466 q 510 508 514 485 q 493 551 506 530 q 454 585 480 572 q 382 599 427 599 q 312 591 349 599 q 239 568 274 583 q 177 535 204 553 l 122 666 q 203 703 157 687 q 298 727 249 719 q 395 736 348 736 q 551 700 491 736 q 638 603 611 664 q 666 469 666 543 l 666 230 q 675 165 666 189 q 707 133 685 142 l 722 127 l 665 -11 l 643 -3 q 567 46 597 14 q 532 113 536 79 l 568 94 l 501 94 l 546 111 q 459 25 522 62 q 314 -11 397 -11 z "},"á":{"ha":781,"x_min":77,"x_max":722,"o":"m 314 -11 q 191 17 245 -11 q 107 94 138 45 q 77 208 77 143 q 112 326 77 273 q 214 409 146 378 q 382 439 281 439 l 543 439 l 543 330 l 406 330 q 323 318 363 330 q 257 281 283 307 q 231 214 231 256 q 247 161 231 184 q 288 127 262 139 q 348 115 315 115 q 427 132 387 115 q 494 181 467 149 q 521 259 521 213 l 521 340 l 514 377 l 514 466 q 510 508 514 485 q 493 551 506 530 q 454 585 480 572 q 382 599 427 599 q 312 591 349 599 q 239 568 274 583 q 177 535 204 553 l 122 666 q 203 703 157 687 q 298 727 249 719 q 395 736 348 736 q 551 700 491 736 q 638 603 611 664 q 666 469 666 543 l 666 230 q 675 165 666 189 q 707 133 685 142 l 722 127 l 665 -11 l 643 -3 q 567 46 597 14 q 532 113 536 79 l 568 94 l 501 94 l 546 111 q 459 25 522 62 q 314 -11 397 -11 m 397 791 l 326 853 l 503 1099 l 604 1003 l 397 791 z "},"ă":{"ha":781,"x_min":77,"x_max":722,"o":"m 314 -11 q 191 17 245 -11 q 107 94 138 45 q 77 208 77 143 q 112 326 77 273 q 214 409 146 378 q 382 439 281 439 l 543 439 l 543 330 l 406 330 q 323 318 363 330 q 257 281 283 307 q 231 214 231 256 q 247 161 231 184 q 288 127 262 139 q 348 115 315 115 q 427 132 387 115 q 494 181 467 149 q 521 259 521 213 l 521 340 l 514 377 l 514 466 q 510 508 514 485 q 493 551 506 530 q 454 585 480 572 q 382 599 427 599 q 312 591 349 599 q 239 568 274 583 q 177 535 204 553 l 122 666 q 203 703 157 687 q 298 727 249 719 q 395 736 348 736 q 551 700 491 736 q 638 603 611 664 q 666 469 666 543 l 666 230 q 675 165 666 189 q 707 133 685 142 l 722 127 l 665 -11 l 643 -3 q 567 46 597 14 q 532 113 536 79 l 568 94 l 501 94 l 546 111 q 459 25 522 62 q 314 -11 397 -11 m 396 817 q 277 845 330 817 q 193 924 224 874 q 161 1036 161 973 l 264 1036 q 302 945 264 982 q 396 908 340 908 q 491 945 454 908 q 529 1036 528 982 l 632 1036 q 601 924 633 973 q 517 845 570 874 q 396 817 464 817 z "},"ắ":{"ha":781,"x_min":77,"x_max":722,"o":"m 314 -11 q 191 17 245 -11 q 107 94 138 45 q 77 208 77 143 q 112 326 77 273 q 214 409 146 378 q 382 439 281 439 l 543 439 l 543 330 l 406 330 q 323 318 363 330 q 257 281 283 307 q 231 214 231 256 q 247 161 231 184 q 288 127 262 139 q 348 115 315 115 q 427 132 387 115 q 494 181 467 149 q 521 259 521 213 l 521 340 l 514 377 l 514 466 q 510 508 514 485 q 493 551 506 530 q 454 585 480 572 q 382 599 427 599 q 312 591 349 599 q 239 568 274 583 q 177 535 204 553 l 122 666 q 203 703 157 687 q 298 727 249 719 q 395 736 348 736 q 551 700 491 736 q 638 603 611 664 q 666 469 666 543 l 666 230 q 675 165 666 189 q 707 133 685 142 l 722 127 l 665 -11 l 643 -3 q 567 46 597 14 q 532 113 536 79 l 568 94 l 501 94 l 546 111 q 459 25 522 62 q 314 -11 397 -11 m 379 971 l 319 1048 l 532 1241 l 605 1142 l 379 971 m 397 817 q 276 842 329 817 q 193 913 223 867 q 163 1017 163 958 l 262 1017 q 300 936 262 968 q 397 905 338 905 q 495 936 457 905 q 533 1017 533 968 l 631 1017 q 602 913 631 958 q 519 842 572 867 q 397 817 467 817 z "},"ặ":{"ha":781,"x_min":77,"x_max":722,"o":"m 314 -11 q 191 17 245 -11 q 107 94 138 45 q 77 208 77 143 q 112 326 77 273 q 214 409 146 378 q 382 439 281 439 l 543 439 l 543 330 l 406 330 q 323 318 363 330 q 257 281 283 307 q 231 214 231 256 q 247 161 231 184 q 288 127 262 139 q 348 115 315 115 q 427 132 387 115 q 494 181 467 149 q 521 259 521 213 l 521 340 l 514 377 l 514 466 q 510 508 514 485 q 493 551 506 530 q 454 585 480 572 q 382 599 427 599 q 312 591 349 599 q 239 568 274 583 q 177 535 204 553 l 122 666 q 203 703 157 687 q 298 727 249 719 q 395 736 348 736 q 551 700 491 736 q 638 603 611 664 q 666 469 666 543 l 666 230 q 675 165 666 189 q 707 133 685 142 l 722 127 l 665 -11 l 643 -3 q 567 46 597 14 q 532 113 536 79 l 568 94 l 501 94 l 546 111 q 459 25 522 62 q 314 -11 397 -11 m 388 -298 q 312 -268 343 -298 q 281 -191 281 -237 q 312 -115 281 -146 q 388 -84 343 -84 q 464 -115 433 -84 q 495 -191 495 -146 q 464 -268 495 -237 q 388 -298 433 -298 m 396 817 q 277 845 330 817 q 193 924 224 874 q 161 1036 161 973 l 264 1036 q 302 945 264 982 q 396 908 340 908 q 491 945 454 908 q 529 1036 528 982 l 632 1036 q 601 924 633 973 q 517 845 570 874 q 396 817 464 817 z "},"ằ":{"ha":781,"x_min":77,"x_max":722,"o":"m 314 -11 q 191 17 245 -11 q 107 94 138 45 q 77 208 77 143 q 112 326 77 273 q 214 409 146 378 q 382 439 281 439 l 543 439 l 543 330 l 406 330 q 323 318 363 330 q 257 281 283 307 q 231 214 231 256 q 247 161 231 184 q 288 127 262 139 q 348 115 315 115 q 427 132 387 115 q 494 181 467 149 q 521 259 521 213 l 521 340 l 514 377 l 514 466 q 510 508 514 485 q 493 551 506 530 q 454 585 480 572 q 382 599 427 599 q 312 591 349 599 q 239 568 274 583 q 177 535 204 553 l 122 666 q 203 703 157 687 q 298 727 249 719 q 395 736 348 736 q 551 700 491 736 q 638 603 611 664 q 666 469 666 543 l 666 230 q 675 165 666 189 q 707 133 685 142 l 722 127 l 665 -11 l 643 -3 q 567 46 597 14 q 532 113 536 79 l 568 94 l 501 94 l 546 111 q 459 25 522 62 q 314 -11 397 -11 m 416 971 l 190 1142 l 262 1241 l 476 1048 l 416 971 m 397 817 q 276 842 329 817 q 193 913 223 867 q 163 1017 163 958 l 262 1017 q 300 936 262 968 q 397 905 338 905 q 495 936 457 905 q 532 1017 532 968 l 631 1017 q 602 913 631 958 q 519 842 572 867 q 397 817 467 817 z "},"ẳ":{"ha":781,"x_min":77,"x_max":722,"o":"m 314 -11 q 191 17 245 -11 q 107 94 138 45 q 77 208 77 143 q 112 326 77 273 q 214 409 146 378 q 382 439 281 439 l 543 439 l 543 330 l 406 330 q 323 318 363 330 q 257 281 283 307 q 231 214 231 256 q 247 161 231 184 q 288 127 262 139 q 348 115 315 115 q 427 132 387 115 q 494 181 467 149 q 521 259 521 213 l 521 340 l 514 377 l 514 466 q 510 508 514 485 q 493 551 506 530 q 454 585 480 572 q 382 599 427 599 q 312 591 349 599 q 239 568 274 583 q 177 535 204 553 l 122 666 q 203 703 157 687 q 298 727 249 719 q 395 736 348 736 q 551 700 491 736 q 638 603 611 664 q 666 469 666 543 l 666 230 q 675 165 666 189 q 707 133 685 142 l 722 127 l 665 -11 l 643 -3 q 567 46 597 14 q 532 113 536 79 l 568 94 l 501 94 l 546 111 q 459 25 522 62 q 314 -11 397 -11 m 397 817 q 276 842 329 817 q 193 913 223 867 q 163 1017 163 958 l 262 1017 q 300 936 262 968 q 397 905 338 905 q 495 936 457 905 q 532 1017 532 968 l 631 1017 q 602 913 631 958 q 519 842 572 867 q 397 817 467 817 m 411 962 l 351 1023 q 389 1056 372 1037 q 405 1096 405 1074 q 388 1129 405 1118 q 340 1141 371 1141 q 305 1138 326 1141 q 268 1128 283 1135 l 268 1226 q 310 1237 283 1233 q 357 1241 336 1241 q 465 1209 425 1241 q 505 1116 505 1177 q 476 1022 505 1064 q 411 962 447 980 z "},"ẵ":{"ha":781,"x_min":77,"x_max":722,"o":"m 314 -11 q 191 17 245 -11 q 107 94 138 45 q 77 208 77 143 q 112 326 77 273 q 214 409 146 378 q 382 439 281 439 l 543 439 l 543 330 l 406 330 q 323 318 363 330 q 257 281 283 307 q 231 214 231 256 q 247 161 231 184 q 288 127 262 139 q 348 115 315 115 q 427 132 387 115 q 494 181 467 149 q 521 259 521 213 l 521 340 l 514 377 l 514 466 q 510 508 514 485 q 493 551 506 530 q 454 585 480 572 q 382 599 427 599 q 312 591 349 599 q 239 568 274 583 q 177 535 204 553 l 122 666 q 203 703 157 687 q 298 727 249 719 q 395 736 348 736 q 551 700 491 736 q 638 603 611 664 q 666 469 666 543 l 666 230 q 675 165 666 189 q 707 133 685 142 l 722 127 l 665 -11 l 643 -3 q 567 46 597 14 q 532 113 536 79 l 568 94 l 501 94 l 546 111 q 459 25 522 62 q 314 -11 397 -11 m 163 1062 q 201 1192 163 1143 q 305 1242 239 1242 q 366 1230 341 1242 q 408 1203 390 1219 q 442 1176 426 1187 q 478 1164 458 1164 q 518 1185 505 1164 q 530 1242 530 1206 l 632 1242 q 616 1150 633 1191 q 566 1086 599 1109 q 488 1062 533 1062 q 431 1074 454 1062 q 389 1102 407 1086 q 353 1130 370 1118 q 315 1142 336 1142 q 278 1122 291 1142 q 264 1062 264 1102 l 163 1062 m 397 817 q 276 842 329 817 q 193 913 223 867 q 163 1017 163 958 l 262 1017 q 300 936 262 968 q 397 905 338 905 q 495 936 457 905 q 532 1017 532 968 l 631 1017 q 602 913 631 958 q 519 842 572 867 q 397 817 467 817 z "},"ǎ":{"ha":781,"x_min":77,"x_max":722,"o":"m 314 -11 q 191 17 245 -11 q 107 94 138 45 q 77 208 77 143 q 112 326 77 273 q 214 409 146 378 q 382 439 281 439 l 543 439 l 543 330 l 406 330 q 323 318 363 330 q 257 281 283 307 q 231 214 231 256 q 247 161 231 184 q 288 127 262 139 q 348 115 315 115 q 427 132 387 115 q 494 181 467 149 q 521 259 521 213 l 521 340 l 514 377 l 514 466 q 510 508 514 485 q 493 551 506 530 q 454 585 480 572 q 382 599 427 599 q 312 591 349 599 q 239 568 274 583 q 177 535 204 553 l 122 666 q 203 703 157 687 q 298 727 249 719 q 395 736 348 736 q 551 700 491 736 q 638 603 611 664 q 666 469 666 543 l 666 230 q 675 165 666 189 q 707 133 685 142 l 722 127 l 665 -11 l 643 -3 q 567 46 597 14 q 532 113 536 79 l 568 94 l 501 94 l 546 111 q 459 25 522 62 q 314 -11 397 -11 m 227 1070 l 395 912 l 401 912 l 566 1070 l 633 993 l 414 795 l 378 795 l 161 993 l 227 1070 z "},"â":{"ha":781,"x_min":77,"x_max":722,"o":"m 314 -11 q 191 17 245 -11 q 107 94 138 45 q 77 208 77 143 q 112 326 77 273 q 214 409 146 378 q 382 439 281 439 l 543 439 l 543 330 l 406 330 q 323 318 363 330 q 257 281 283 307 q 231 214 231 256 q 247 161 231 184 q 288 127 262 139 q 348 115 315 115 q 427 132 387 115 q 494 181 467 149 q 521 259 521 213 l 521 340 l 514 377 l 514 466 q 510 508 514 485 q 493 551 506 530 q 454 585 480 572 q 382 599 427 599 q 312 591 349 599 q 239 568 274 583 q 177 535 204 553 l 122 666 q 203 703 157 687 q 298 727 249 719 q 395 736 348 736 q 551 700 491 736 q 638 603 611 664 q 666 469 666 543 l 666 230 q 675 165 666 189 q 707 133 685 142 l 722 127 l 665 -11 l 643 -3 q 567 46 597 14 q 532 113 536 79 l 568 94 l 501 94 l 546 111 q 459 25 522 62 q 314 -11 397 -11 m 226 791 l 160 868 l 378 1066 l 414 1066 l 632 868 l 566 791 l 400 949 l 395 949 l 226 791 z "},"ấ":{"ha":781,"x_min":77,"x_max":810,"o":"m 314 -11 q 191 17 245 -11 q 107 94 138 45 q 77 208 77 143 q 112 326 77 273 q 214 409 146 378 q 382 439 281 439 l 543 439 l 543 330 l 406 330 q 323 318 363 330 q 257 281 283 307 q 231 214 231 256 q 247 161 231 184 q 288 127 262 139 q 348 115 315 115 q 427 132 387 115 q 494 181 467 149 q 521 259 521 213 l 521 340 l 514 377 l 514 466 q 510 508 514 485 q 493 551 506 530 q 454 585 480 572 q 382 599 427 599 q 312 591 349 599 q 239 568 274 583 q 177 535 204 553 l 122 666 q 203 703 157 687 q 298 727 249 719 q 395 736 348 736 q 551 700 491 736 q 638 603 611 664 q 666 469 666 543 l 666 230 q 675 165 666 189 q 707 133 685 142 l 722 127 l 665 -11 l 643 -3 q 567 46 597 14 q 532 113 536 79 l 568 94 l 501 94 l 546 111 q 459 25 522 62 q 314 -11 397 -11 m 602 975 l 529 1028 l 730 1238 l 809 1136 l 602 975 m 231 800 l 157 877 l 379 1038 l 415 1038 l 637 877 l 563 800 l 399 926 l 394 926 l 231 800 z "},"ậ":{"ha":781,"x_min":77,"x_max":722,"o":"m 314 -11 q 191 17 245 -11 q 107 94 138 45 q 77 208 77 143 q 112 326 77 273 q 214 409 146 378 q 382 439 281 439 l 543 439 l 543 330 l 406 330 q 323 318 363 330 q 257 281 283 307 q 231 214 231 256 q 247 161 231 184 q 288 127 262 139 q 348 115 315 115 q 427 132 387 115 q 494 181 467 149 q 521 259 521 213 l 521 340 l 514 377 l 514 466 q 510 508 514 485 q 493 551 506 530 q 454 585 480 572 q 382 599 427 599 q 312 591 349 599 q 239 568 274 583 q 177 535 204 553 l 122 666 q 203 703 157 687 q 298 727 249 719 q 395 736 348 736 q 551 700 491 736 q 638 603 611 664 q 666 469 666 543 l 666 230 q 675 165 666 189 q 707 133 685 142 l 722 127 l 665 -11 l 643 -3 q 567 46 597 14 q 532 113 536 79 l 568 94 l 501 94 l 546 111 q 459 25 522 62 q 314 -11 397 -11 m 388 -298 q 312 -268 343 -298 q 281 -191 281 -237 q 312 -115 281 -146 q 388 -84 343 -84 q 464 -115 433 -84 q 495 -191 495 -146 q 464 -268 495 -237 q 388 -298 433 -298 m 226 791 l 160 868 l 378 1066 l 414 1066 l 632 868 l 566 791 l 400 949 l 395 949 l 226 791 z "},"ầ":{"ha":781,"x_min":-15,"x_max":722,"o":"m 314 -11 q 191 17 245 -11 q 107 94 138 45 q 77 208 77 143 q 112 326 77 273 q 214 409 146 378 q 382 439 281 439 l 543 439 l 543 330 l 406 330 q 323 318 363 330 q 257 281 283 307 q 231 214 231 256 q 247 161 231 184 q 288 127 262 139 q 348 115 315 115 q 427 132 387 115 q 494 181 467 149 q 521 259 521 213 l 521 340 l 514 377 l 514 466 q 510 508 514 485 q 493 551 506 530 q 454 585 480 572 q 382 599 427 599 q 312 591 349 599 q 239 568 274 583 q 177 535 204 553 l 122 666 q 203 703 157 687 q 298 727 249 719 q 395 736 348 736 q 551 700 491 736 q 638 603 611 664 q 666 469 666 543 l 666 230 q 675 165 666 189 q 707 133 685 142 l 722 127 l 665 -11 l 643 -3 q 567 46 597 14 q 532 113 536 79 l 568 94 l 501 94 l 546 111 q 459 25 522 62 q 314 -11 397 -11 m 193 975 l -15 1136 l 64 1238 l 266 1028 l 193 975 m 564 800 l 401 926 l 396 926 l 231 800 l 158 877 l 380 1038 l 416 1038 l 638 877 l 564 800 z "},"ẩ":{"ha":781,"x_min":77,"x_max":722,"o":"m 314 -11 q 191 17 245 -11 q 107 94 138 45 q 77 208 77 143 q 112 326 77 273 q 214 409 146 378 q 382 439 281 439 l 543 439 l 543 330 l 406 330 q 323 318 363 330 q 257 281 283 307 q 231 214 231 256 q 247 161 231 184 q 288 127 262 139 q 348 115 315 115 q 427 132 387 115 q 494 181 467 149 q 521 259 521 213 l 521 340 l 514 377 l 514 466 q 510 508 514 485 q 493 551 506 530 q 454 585 480 572 q 382 599 427 599 q 312 591 349 599 q 239 568 274 583 q 177 535 204 553 l 122 666 q 203 703 157 687 q 298 727 249 719 q 395 736 348 736 q 551 700 491 736 q 638 603 611 664 q 666 469 666 543 l 666 230 q 675 165 666 189 q 707 133 685 142 l 722 127 l 665 -11 l 643 -3 q 567 46 597 14 q 532 113 536 79 l 568 94 l 501 94 l 546 111 q 459 25 522 62 q 314 -11 397 -11 m 589 974 l 527 1020 q 562 1056 548 1037 q 575 1093 575 1075 q 558 1128 575 1115 q 509 1141 541 1141 q 474 1137 492 1141 q 439 1127 456 1134 l 439 1226 q 480 1236 453 1233 q 530 1240 507 1240 q 635 1209 595 1240 q 675 1115 675 1179 q 661 1056 675 1083 q 627 1007 647 1028 q 589 974 607 986 m 233 800 l 158 877 l 380 1038 l 416 1038 l 638 877 l 565 800 l 400 926 l 395 926 l 233 800 z "},"ẫ":{"ha":781,"x_min":77,"x_max":722,"o":"m 314 -11 q 191 17 245 -11 q 107 94 138 45 q 77 208 77 143 q 112 326 77 273 q 214 409 146 378 q 382 439 281 439 l 543 439 l 543 330 l 406 330 q 323 318 363 330 q 257 281 283 307 q 231 214 231 256 q 247 161 231 184 q 288 127 262 139 q 348 115 315 115 q 427 132 387 115 q 494 181 467 149 q 521 259 521 213 l 521 340 l 514 377 l 514 466 q 510 508 514 485 q 493 551 506 530 q 454 585 480 572 q 382 599 427 599 q 312 591 349 599 q 239 568 274 583 q 177 535 204 553 l 122 666 q 203 703 157 687 q 298 727 249 719 q 395 736 348 736 q 551 700 491 736 q 638 603 611 664 q 666 469 666 543 l 666 230 q 675 165 666 189 q 707 133 685 142 l 722 127 l 665 -11 l 643 -3 q 567 46 597 14 q 532 113 536 79 l 568 94 l 501 94 l 546 111 q 459 25 522 62 q 314 -11 397 -11 m 162 1062 q 200 1192 161 1143 q 305 1242 239 1242 q 365 1230 341 1242 q 406 1203 389 1219 q 440 1176 424 1187 q 477 1164 457 1164 q 516 1185 503 1164 q 530 1242 529 1206 l 633 1242 q 618 1150 633 1191 q 573 1086 604 1109 q 499 1062 543 1062 q 440 1074 465 1062 q 398 1102 416 1086 q 364 1130 380 1118 q 328 1142 348 1142 q 282 1122 300 1142 q 264 1062 264 1103 l 162 1062 m 232 800 l 157 877 l 380 1038 l 415 1038 l 637 877 l 564 800 l 399 926 l 395 926 l 232 800 z "},"ȁ":{"ha":781,"x_min":77,"x_max":722,"o":"m 314 -11 q 191 17 245 -11 q 107 94 138 45 q 77 208 77 143 q 112 326 77 273 q 214 409 146 378 q 382 439 281 439 l 543 439 l 543 330 l 406 330 q 323 318 363 330 q 257 281 283 307 q 231 214 231 256 q 247 161 231 184 q 288 127 262 139 q 348 115 315 115 q 427 132 387 115 q 494 181 467 149 q 521 259 521 213 l 521 340 l 514 377 l 514 466 q 510 508 514 485 q 493 551 506 530 q 454 585 480 572 q 382 599 427 599 q 312 591 349 599 q 239 568 274 583 q 177 535 204 553 l 122 666 q 203 703 157 687 q 298 727 249 719 q 395 736 348 736 q 551 700 491 736 q 638 603 611 664 q 666 469 666 543 l 666 230 q 675 165 666 189 q 707 133 685 142 l 722 127 l 665 -11 l 643 -3 q 567 46 597 14 q 532 113 536 79 l 568 94 l 501 94 l 546 111 q 459 25 522 62 q 314 -11 397 -11 m 500 799 l 349 1036 l 460 1091 l 587 821 l 500 799 m 276 799 l 122 1036 l 231 1091 l 361 821 l 276 799 z "},"ä":{"ha":781,"x_min":77,"x_max":722,"o":"m 314 -11 q 191 17 245 -11 q 107 94 138 45 q 77 208 77 143 q 112 326 77 273 q 214 409 146 378 q 382 439 281 439 l 543 439 l 543 330 l 406 330 q 323 318 363 330 q 257 281 283 307 q 231 214 231 256 q 247 161 231 184 q 288 127 262 139 q 348 115 315 115 q 427 132 387 115 q 494 181 467 149 q 521 259 521 213 l 521 340 l 514 377 l 514 466 q 510 508 514 485 q 493 551 506 530 q 454 585 480 572 q 382 599 427 599 q 312 591 349 599 q 239 568 274 583 q 177 535 204 553 l 122 666 q 203 703 157 687 q 298 727 249 719 q 395 736 348 736 q 551 700 491 736 q 638 603 611 664 q 666 469 666 543 l 666 230 q 675 165 666 189 q 707 133 685 142 l 722 127 l 665 -11 l 643 -3 q 567 46 597 14 q 532 113 536 79 l 568 94 l 501 94 l 546 111 q 459 25 522 62 q 314 -11 397 -11 m 546 834 q 475 863 504 834 q 446 935 446 892 q 475 1006 446 977 q 546 1034 504 1034 q 617 1006 589 1034 q 646 935 646 977 q 617 863 646 892 q 546 834 589 834 m 249 834 q 178 863 208 834 q 149 935 149 892 q 178 1006 149 977 q 249 1034 208 1034 q 320 1006 292 1034 q 349 935 349 977 q 320 863 349 892 q 249 834 292 834 z "},"ȧ":{"ha":781,"x_min":77,"x_max":722,"o":"m 314 -11 q 191 17 245 -11 q 107 94 138 45 q 77 208 77 143 q 112 326 77 273 q 214 409 146 378 q 382 439 281 439 l 543 439 l 543 330 l 406 330 q 323 318 363 330 q 257 281 283 307 q 231 214 231 256 q 247 161 231 184 q 288 127 262 139 q 348 115 315 115 q 427 132 387 115 q 494 181 467 149 q 521 259 521 213 l 521 340 l 514 377 l 514 466 q 510 508 514 485 q 493 551 506 530 q 454 585 480 572 q 382 599 427 599 q 312 591 349 599 q 239 568 274 583 q 177 535 204 553 l 122 666 q 203 703 157 687 q 298 727 249 719 q 395 736 348 736 q 551 700 491 736 q 638 603 611 664 q 666 469 666 543 l 666 230 q 675 165 666 189 q 707 133 685 142 l 722 127 l 665 -11 l 643 -3 q 567 46 597 14 q 532 113 536 79 l 568 94 l 501 94 l 546 111 q 459 25 522 62 q 314 -11 397 -11 m 397 825 q 321 856 353 825 q 290 932 290 886 q 321 1008 290 977 q 397 1039 353 1039 q 474 1008 443 1039 q 505 932 505 977 q 474 856 505 886 q 397 825 443 825 z "},"ạ":{"ha":781,"x_min":77,"x_max":722,"o":"m 314 -11 q 191 17 245 -11 q 107 94 138 45 q 77 208 77 143 q 112 326 77 273 q 214 409 146 378 q 382 439 281 439 l 543 439 l 543 330 l 406 330 q 323 318 363 330 q 257 281 283 307 q 231 214 231 256 q 247 161 231 184 q 288 127 262 139 q 348 115 315 115 q 427 132 387 115 q 494 181 467 149 q 521 259 521 213 l 521 340 l 514 377 l 514 466 q 510 508 514 485 q 493 551 506 530 q 454 585 480 572 q 382 599 427 599 q 312 591 349 599 q 239 568 274 583 q 177 535 204 553 l 122 666 q 203 703 157 687 q 298 727 249 719 q 395 736 348 736 q 551 700 491 736 q 638 603 611 664 q 666 469 666 543 l 666 230 q 675 165 666 189 q 707 133 685 142 l 722 127 l 665 -11 l 643 -3 q 567 46 597 14 q 532 113 536 79 l 568 94 l 501 94 l 546 111 q 459 25 522 62 q 314 -11 397 -11 m 388 -298 q 312 -268 343 -298 q 281 -191 281 -237 q 312 -115 281 -146 q 388 -84 343 -84 q 464 -115 433 -84 q 495 -191 495 -146 q 464 -268 495 -237 q 388 -298 433 -298 z "},"à":{"ha":781,"x_min":77,"x_max":722,"o":"m 314 -11 q 191 17 245 -11 q 107 94 138 45 q 77 208 77 143 q 112 326 77 273 q 214 409 146 378 q 382 439 281 439 l 543 439 l 543 330 l 406 330 q 323 318 363 330 q 257 281 283 307 q 231 214 231 256 q 247 161 231 184 q 288 127 262 139 q 348 115 315 115 q 427 132 387 115 q 494 181 467 149 q 521 259 521 213 l 521 340 l 514 377 l 514 466 q 510 508 514 485 q 493 551 506 530 q 454 585 480 572 q 382 599 427 599 q 312 591 349 599 q 239 568 274 583 q 177 535 204 553 l 122 666 q 203 703 157 687 q 298 727 249 719 q 395 736 348 736 q 551 700 491 736 q 638 603 611 664 q 666 469 666 543 l 666 230 q 675 165 666 189 q 707 133 685 142 l 722 127 l 665 -11 l 643 -3 q 567 46 597 14 q 532 113 536 79 l 568 94 l 501 94 l 546 111 q 459 25 522 62 q 314 -11 397 -11 m 398 791 l 191 1003 l 292 1099 l 469 853 l 398 791 z "},"ả":{"ha":781,"x_min":77,"x_max":722,"o":"m 314 -11 q 191 17 245 -11 q 107 94 138 45 q 77 208 77 143 q 112 326 77 273 q 214 409 146 378 q 382 439 281 439 l 543 439 l 543 330 l 406 330 q 323 318 363 330 q 257 281 283 307 q 231 214 231 256 q 247 161 231 184 q 288 127 262 139 q 348 115 315 115 q 427 132 387 115 q 494 181 467 149 q 521 259 521 213 l 521 340 l 514 377 l 514 466 q 510 508 514 485 q 493 551 506 530 q 454 585 480 572 q 382 599 427 599 q 312 591 349 599 q 239 568 274 583 q 177 535 204 553 l 122 666 q 203 703 157 687 q 298 727 249 719 q 395 736 348 736 q 551 700 491 736 q 638 603 611 664 q 666 469 666 543 l 666 230 q 675 165 666 189 q 707 133 685 142 l 722 127 l 665 -11 l 643 -3 q 567 46 597 14 q 532 113 536 79 l 568 94 l 501 94 l 546 111 q 459 25 522 62 q 314 -11 397 -11 m 418 791 l 358 852 q 397 884 380 865 q 413 924 413 903 q 396 958 413 945 q 347 970 379 970 q 313 966 334 970 q 276 956 292 963 l 276 1055 q 318 1065 291 1061 q 364 1069 345 1069 q 473 1037 433 1069 q 513 945 513 1005 q 484 850 513 892 q 418 791 455 808 z "},"ȃ":{"ha":781,"x_min":77,"x_max":722,"o":"m 314 -11 q 191 17 245 -11 q 107 94 138 45 q 77 208 77 143 q 112 326 77 273 q 214 409 146 378 q 382 439 281 439 l 543 439 l 543 330 l 406 330 q 323 318 363 330 q 257 281 283 307 q 231 214 231 256 q 247 161 231 184 q 288 127 262 139 q 348 115 315 115 q 427 132 387 115 q 494 181 467 149 q 521 259 521 213 l 521 340 l 514 377 l 514 466 q 510 508 514 485 q 493 551 506 530 q 454 585 480 572 q 382 599 427 599 q 312 591 349 599 q 239 568 274 583 q 177 535 204 553 l 122 666 q 203 703 157 687 q 298 727 249 719 q 395 736 348 736 q 551 700 491 736 q 638 603 611 664 q 666 469 666 543 l 666 230 q 675 165 666 189 q 707 133 685 142 l 722 127 l 665 -11 l 643 -3 q 567 46 597 14 q 532 113 536 79 l 568 94 l 501 94 l 546 111 q 459 25 522 62 q 314 -11 397 -11 m 396 1039 q 517 1010 464 1039 q 602 932 570 981 q 632 820 633 882 l 529 820 q 491 911 528 874 q 396 947 454 947 q 302 911 340 947 q 264 820 264 874 l 161 820 q 193 932 161 882 q 277 1010 224 981 q 396 1039 330 1039 z "},"ā":{"ha":781,"x_min":77,"x_max":722,"o":"m 314 -11 q 191 17 245 -11 q 107 94 138 45 q 77 208 77 143 q 112 326 77 273 q 214 409 146 378 q 382 439 281 439 l 543 439 l 543 330 l 406 330 q 323 318 363 330 q 257 281 283 307 q 231 214 231 256 q 247 161 231 184 q 288 127 262 139 q 348 115 315 115 q 427 132 387 115 q 494 181 467 149 q 521 259 521 213 l 521 340 l 514 377 l 514 466 q 510 508 514 485 q 493 551 506 530 q 454 585 480 572 q 382 599 427 599 q 312 591 349 599 q 239 568 274 583 q 177 535 204 553 l 122 666 q 203 703 157 687 q 298 727 249 719 q 395 736 348 736 q 551 700 491 736 q 638 603 611 664 q 666 469 666 543 l 666 230 q 675 165 666 189 q 707 133 685 142 l 722 127 l 665 -11 l 643 -3 q 567 46 597 14 q 532 113 536 79 l 568 94 l 501 94 l 546 111 q 459 25 522 62 q 314 -11 397 -11 m 143 863 l 143 964 l 650 964 l 650 863 l 143 863 z "},"ą":{"ha":781,"x_min":77,"x_max":722,"o":"m 630 -290 q 532 -254 569 -290 q 496 -167 496 -218 q 514 -90 496 -125 q 556 -24 532 -54 q 596 28 580 5 l 665 -11 q 618 -78 637 -45 q 600 -140 600 -111 q 616 -179 600 -168 q 654 -191 633 -191 q 686 -187 669 -191 q 720 -173 703 -183 l 720 -271 q 675 -286 702 -281 q 630 -290 648 -290 m 314 -11 q 191 17 245 -11 q 107 94 138 45 q 77 208 77 143 q 112 326 77 273 q 214 409 146 378 q 382 439 281 439 l 543 439 l 543 330 l 406 330 q 323 318 363 330 q 257 281 283 307 q 231 214 231 256 q 247 161 231 184 q 288 127 262 139 q 348 115 315 115 q 427 132 387 115 q 494 181 467 149 q 521 259 521 213 l 521 340 l 514 377 l 514 466 q 510 508 514 485 q 493 551 506 530 q 454 585 480 572 q 382 599 427 599 q 312 591 349 599 q 239 568 274 583 q 177 535 204 553 l 122 666 q 203 703 157 687 q 298 727 249 719 q 395 736 348 736 q 551 700 491 736 q 638 603 611 664 q 666 469 666 543 l 666 230 q 675 165 666 189 q 707 133 685 142 l 722 127 l 665 -11 l 643 -3 q 567 46 597 14 q 532 113 536 79 l 568 94 l 501 94 l 546 111 q 459 25 522 62 q 314 -11 397 -11 z "},"å":{"ha":781,"x_min":77,"x_max":722,"o":"m 314 -11 q 191 17 245 -11 q 107 94 138 45 q 77 208 77 143 q 112 326 77 273 q 214 409 146 378 q 382 439 281 439 l 543 439 l 543 330 l 406 330 q 323 318 363 330 q 257 281 283 307 q 231 214 231 256 q 247 161 231 184 q 288 127 262 139 q 348 115 315 115 q 427 132 387 115 q 494 181 467 149 q 521 259 521 213 l 521 340 l 514 377 l 514 466 q 510 508 514 485 q 493 551 506 530 q 454 585 480 572 q 382 599 427 599 q 312 591 349 599 q 239 568 274 583 q 177 535 204 553 l 122 666 q 203 703 157 687 q 298 727 249 719 q 395 736 348 736 q 551 700 491 736 q 638 603 611 664 q 666 469 666 543 l 666 230 q 675 165 666 189 q 707 133 685 142 l 722 127 l 665 -11 l 643 -3 q 567 46 597 14 q 532 113 536 79 l 568 94 l 501 94 l 546 111 q 459 25 522 62 q 314 -11 397 -11 m 397 814 q 287 858 332 814 q 243 964 243 901 q 287 1070 243 1028 q 397 1112 332 1112 q 508 1070 463 1112 q 552 964 552 1028 q 508 858 552 901 q 397 814 464 814 m 397 893 q 448 914 429 893 q 467 964 467 935 q 448 1014 467 995 q 397 1034 429 1034 q 348 1015 369 1034 q 328 964 328 996 q 348 914 328 935 q 397 893 369 893 z "},"ǻ":{"ha":781,"x_min":77,"x_max":722,"o":"m 397 814 q 287 858 332 814 q 243 964 243 901 q 287 1070 243 1028 q 397 1112 332 1112 q 508 1070 463 1112 q 552 964 552 1028 q 508 858 552 901 q 397 814 464 814 m 397 893 q 448 914 429 893 q 467 964 467 935 q 448 1014 467 995 q 397 1034 429 1034 q 348 1015 369 1034 q 328 964 328 996 q 348 914 328 935 q 397 893 369 893 m 444 1144 l 374 1216 l 589 1417 l 668 1316 l 444 1144 m 314 -11 q 191 17 245 -11 q 107 94 138 45 q 77 208 77 143 q 112 326 77 273 q 214 409 146 378 q 382 439 281 439 l 543 439 l 543 330 l 406 330 q 323 318 363 330 q 257 281 283 307 q 231 214 231 256 q 247 161 231 184 q 288 127 262 139 q 348 115 315 115 q 427 132 387 115 q 494 181 467 149 q 521 259 521 213 l 521 340 l 514 377 l 514 466 q 510 508 514 485 q 493 551 506 530 q 454 585 480 572 q 382 599 427 599 q 312 591 349 599 q 239 568 274 583 q 177 535 204 553 l 122 666 q 203 703 157 687 q 298 727 249 719 q 395 736 348 736 q 551 700 491 736 q 638 603 611 664 q 666 469 666 543 l 666 230 q 675 165 666 189 q 707 133 685 142 l 722 127 l 665 -11 l 643 -3 q 567 46 597 14 q 532 113 536 79 l 568 94 l 501 94 l 546 111 q 459 25 522 62 q 314 -11 397 -11 z "},"ã":{"ha":781,"x_min":77,"x_max":722,"o":"m 314 -11 q 191 17 245 -11 q 107 94 138 45 q 77 208 77 143 q 112 326 77 273 q 214 409 146 378 q 382 439 281 439 l 543 439 l 543 330 l 406 330 q 323 318 363 330 q 257 281 283 307 q 231 214 231 256 q 247 161 231 184 q 288 127 262 139 q 348 115 315 115 q 427 132 387 115 q 494 181 467 149 q 521 259 521 213 l 521 340 l 514 377 l 514 466 q 510 508 514 485 q 493 551 506 530 q 454 585 480 572 q 382 599 427 599 q 312 591 349 599 q 239 568 274 583 q 177 535 204 553 l 122 666 q 203 703 157 687 q 298 727 249 719 q 395 736 348 736 q 551 700 491 736 q 638 603 611 664 q 666 469 666 543 l 666 230 q 675 165 666 189 q 707 133 685 142 l 722 127 l 665 -11 l 643 -3 q 567 46 597 14 q 532 113 536 79 l 568 94 l 501 94 l 546 111 q 459 25 522 62 q 314 -11 397 -11 m 155 822 q 196 964 155 915 q 302 1013 237 1013 q 365 1000 339 1013 q 408 969 390 987 q 443 937 426 951 q 479 924 459 924 q 519 949 506 924 q 532 1013 533 975 l 637 1013 q 596 872 637 922 q 490 822 555 822 q 430 836 454 822 q 386 868 405 850 q 350 900 368 886 q 312 914 333 914 q 274 889 287 914 q 259 822 260 863 l 155 822 z "},"æ":{"ha":781,"x_min":20,"x_max":760,"o":"m 206 -11 q 107 18 149 -11 q 43 97 66 47 q 20 209 20 146 q 83 369 20 313 q 248 425 146 425 l 336 425 l 336 309 l 282 309 q 199 284 233 309 q 165 212 165 260 q 185 150 165 174 q 231 126 204 126 q 292 167 267 126 q 316 271 316 208 l 316 442 q 310 525 316 491 q 285 577 303 559 q 233 595 267 595 q 162 581 200 595 q 100 547 125 566 l 52 681 q 135 720 83 703 q 241 736 186 736 q 361 701 318 736 q 422 600 405 665 l 376 600 q 441 698 389 660 q 556 736 492 736 q 665 696 620 736 q 735 580 711 655 q 760 403 760 505 q 758 349 760 374 q 753 309 756 323 l 427 309 l 420 425 l 624 425 q 607 548 625 501 q 547 595 589 595 q 490 569 515 595 q 452 493 466 543 q 438 377 438 444 q 455 246 438 302 q 505 160 473 191 q 582 130 537 130 q 635 143 604 130 q 693 183 666 157 l 746 47 q 702 18 729 31 q 642 -3 674 5 q 579 -11 610 -11 q 443 35 500 -11 q 358 159 387 81 l 400 159 q 369 75 395 114 q 301 13 342 37 q 206 -11 259 -11 z "},"ǽ":{"ha":781,"x_min":20,"x_max":760,"o":"m 206 -11 q 107 18 149 -11 q 43 97 66 47 q 20 209 20 146 q 83 369 20 313 q 248 425 146 425 l 336 425 l 336 309 l 282 309 q 199 284 233 309 q 165 212 165 260 q 185 150 165 174 q 231 126 204 126 q 292 167 267 126 q 316 271 316 208 l 316 442 q 310 525 316 491 q 285 577 303 559 q 233 595 267 595 q 162 581 200 595 q 100 547 125 566 l 52 681 q 135 720 83 703 q 241 736 186 736 q 361 701 318 736 q 422 600 405 665 l 376 600 q 441 698 389 660 q 556 736 492 736 q 665 696 620 736 q 735 580 711 655 q 760 403 760 505 q 758 349 760 374 q 753 309 756 323 l 427 309 l 420 425 l 624 425 q 607 548 625 501 q 547 595 589 595 q 490 569 515 595 q 452 493 466 543 q 438 377 438 444 q 455 246 438 302 q 505 160 473 191 q 582 130 537 130 q 635 143 604 130 q 693 183 666 157 l 746 47 q 702 18 729 31 q 642 -3 674 5 q 579 -11 610 -11 q 443 35 500 -11 q 358 159 387 81 l 400 159 q 369 75 395 114 q 301 13 342 37 q 206 -11 259 -11 m 391 791 l 321 852 l 498 1098 l 599 1002 l 391 791 z "},"b":{"ha":781,"x_min":92,"x_max":723,"o":"m 92 0 l 92 1044 l 251 1044 l 251 646 l 264 646 l 236 553 l 236 162 l 267 91 l 245 91 l 245 0 l 92 0 m 444 -11 q 297 36 359 -11 q 199 166 234 82 q 164 363 164 250 q 199 559 164 475 q 295 689 233 643 q 441 735 357 735 q 590 689 526 735 q 688 559 653 644 q 723 363 723 475 q 688 165 723 249 q 591 35 654 81 q 444 -11 528 -11 m 406 127 q 491 157 454 127 q 547 239 527 186 q 567 363 567 292 q 547 486 567 433 q 489 568 526 538 q 403 597 452 597 q 318 568 355 597 q 262 487 282 539 q 241 363 241 434 q 262 239 241 292 q 319 157 282 186 q 406 127 356 127 z "},"c":{"ha":781,"x_min":88,"x_max":685,"o":"m 454 -8 q 263 39 346 -8 q 135 171 181 86 q 88 366 88 255 q 134 558 88 475 q 260 688 179 642 q 448 735 341 735 q 572 714 507 735 q 683 657 637 692 l 623 527 q 547 575 594 555 q 455 594 500 594 q 346 565 393 594 q 272 484 299 536 q 245 364 245 433 q 272 244 245 296 q 347 163 299 192 q 456 134 394 134 q 553 153 506 134 q 626 200 600 172 l 685 67 q 577 13 641 34 q 454 -8 514 -8 z "},"ć":{"ha":781,"x_min":88,"x_max":685,"o":"m 454 -8 q 263 39 346 -8 q 135 171 181 86 q 88 366 88 255 q 134 558 88 475 q 260 688 179 642 q 448 735 341 735 q 572 714 507 735 q 683 657 637 692 l 623 527 q 547 575 594 555 q 455 594 500 594 q 346 565 393 594 q 272 484 299 536 q 245 364 245 433 q 272 244 245 296 q 347 163 299 192 q 456 134 394 134 q 553 153 506 134 q 626 200 600 172 l 685 67 q 577 13 641 34 q 454 -8 514 -8 m 449 791 l 378 853 l 555 1099 l 656 1003 l 449 791 z "},"č":{"ha":781,"x_min":88,"x_max":685,"o":"m 454 -8 q 263 39 346 -8 q 135 171 181 86 q 88 366 88 255 q 134 558 88 475 q 260 688 179 642 q 448 735 341 735 q 572 714 507 735 q 683 657 637 692 l 623 527 q 547 575 594 555 q 455 594 500 594 q 346 565 393 594 q 272 484 299 536 q 245 364 245 433 q 272 244 245 296 q 347 163 299 192 q 456 134 394 134 q 553 153 506 134 q 626 200 600 172 l 685 67 q 577 13 641 34 q 454 -8 514 -8 m 279 1070 l 448 912 l 453 912 l 619 1070 l 685 993 l 467 795 l 431 795 l 214 993 l 279 1070 z "},"ç":{"ha":781,"x_min":88,"x_max":685,"o":"m 454 -8 q 263 39 346 -8 q 135 171 181 86 q 88 366 88 255 q 134 558 88 475 q 260 688 179 642 q 448 735 341 735 q 572 714 507 735 q 683 657 637 692 l 623 527 q 547 575 594 555 q 455 594 500 594 q 346 565 393 594 q 272 484 299 536 q 245 364 245 433 q 272 244 245 296 q 347 163 299 192 q 456 134 394 134 q 553 153 506 134 q 626 200 600 172 l 685 67 q 577 13 641 34 q 454 -8 514 -8 m 341 -330 l 341 -245 q 445 -232 411 -248 q 478 -185 478 -216 q 451 -147 478 -163 q 378 -130 425 -131 l 418 0 l 493 0 l 456 -111 l 448 -70 q 542 -112 508 -80 q 576 -194 576 -144 q 519 -294 576 -256 q 341 -330 461 -331 z "},"ḉ":{"ha":781,"x_min":88,"x_max":685,"o":"m 454 -8 q 263 39 346 -8 q 135 171 181 86 q 88 366 88 255 q 134 558 88 475 q 260 688 179 642 q 448 735 341 735 q 572 714 507 735 q 683 657 637 692 l 623 527 q 547 575 594 555 q 455 594 500 594 q 346 565 393 594 q 272 484 299 536 q 245 364 245 433 q 272 244 245 296 q 347 163 299 192 q 456 134 394 134 q 553 153 506 134 q 626 200 600 172 l 685 67 q 577 13 641 34 q 454 -8 514 -8 m 341 -330 l 341 -245 q 445 -232 411 -248 q 478 -185 478 -216 q 451 -147 478 -163 q 378 -130 425 -131 l 418 0 l 493 0 l 456 -111 l 448 -70 q 542 -112 508 -80 q 576 -194 576 -144 q 519 -294 576 -256 q 341 -330 461 -331 m 449 791 l 378 853 l 555 1099 l 656 1003 l 449 791 z "},"ĉ":{"ha":781,"x_min":88,"x_max":685,"o":"m 454 -8 q 263 39 346 -8 q 135 171 181 86 q 88 366 88 255 q 134 558 88 475 q 260 688 179 642 q 448 735 341 735 q 572 714 507 735 q 683 657 637 692 l 623 527 q 547 575 594 555 q 455 594 500 594 q 346 565 393 594 q 272 484 299 536 q 245 364 245 433 q 272 244 245 296 q 347 163 299 192 q 456 134 394 134 q 553 153 506 134 q 626 200 600 172 l 685 67 q 577 13 641 34 q 454 -8 514 -8 m 279 791 l 213 868 l 431 1066 l 467 1066 l 685 868 l 618 791 l 453 949 l 448 949 l 279 791 z "},"ċ":{"ha":781,"x_min":88,"x_max":685,"o":"m 454 -8 q 263 39 346 -8 q 135 171 181 86 q 88 366 88 255 q 134 558 88 475 q 260 688 179 642 q 448 735 341 735 q 572 714 507 735 q 683 657 637 692 l 623 527 q 547 575 594 555 q 455 594 500 594 q 346 565 393 594 q 272 484 299 536 q 245 364 245 433 q 272 244 245 296 q 347 163 299 192 q 456 134 394 134 q 553 153 506 134 q 626 200 600 172 l 685 67 q 577 13 641 34 q 454 -8 514 -8 m 450 825 q 374 856 406 825 q 343 932 343 886 q 374 1008 343 977 q 450 1039 406 1039 q 527 1008 496 1039 q 557 932 557 977 q 527 856 557 886 q 450 825 496 825 z "},"d":{"ha":781,"x_min":58,"x_max":741,"o":"m 684 -11 q 593 51 628 14 q 553 124 558 88 l 571 110 l 517 110 l 545 193 l 545 575 l 515 648 l 530 648 l 530 1044 l 690 1044 l 690 223 q 704 165 690 191 q 741 127 718 138 l 684 -11 m 338 -11 q 191 35 254 -11 q 93 165 127 81 q 58 363 58 249 q 93 559 58 475 q 192 689 128 644 q 340 735 255 735 q 486 689 424 735 q 583 559 548 643 q 617 363 617 475 q 582 166 617 250 q 485 36 547 82 q 338 -11 422 -11 m 376 127 q 462 157 425 127 q 519 239 499 186 q 540 363 540 292 q 519 487 540 434 q 463 568 499 539 q 378 597 427 597 q 292 568 329 597 q 235 486 255 538 q 214 363 214 433 q 234 239 214 292 q 291 157 254 186 q 376 127 327 127 z "},"ď":{"ha":781,"x_min":38,"x_max":775,"o":"m 286 -11 q 152 34 208 -11 q 67 163 96 79 q 38 363 38 247 q 67 562 38 479 q 151 690 97 646 q 280 735 205 735 q 407 690 354 735 q 489 562 460 646 q 518 363 518 479 q 491 163 518 247 q 411 34 463 79 q 286 -11 359 -11 m 318 127 q 386 156 357 127 q 429 237 414 184 q 445 363 445 290 q 430 488 445 435 q 387 568 415 540 q 321 597 359 597 q 253 568 282 597 q 209 488 224 540 q 193 363 193 435 q 209 237 193 290 q 252 156 224 184 q 318 127 280 127 m 610 -11 q 511 51 549 15 q 467 124 473 87 l 480 110 l 431 110 l 449 193 l 449 575 l 423 648 l 437 648 l 437 1044 l 596 1044 l 596 223 q 616 165 596 191 q 666 127 637 139 l 610 -11 m 645 721 l 648 1044 l 775 1044 l 758 721 l 645 721 z "},"đ":{"ha":781,"x_min":58,"x_max":810,"o":"m 684 -11 q 593 51 628 14 q 553 124 558 88 l 571 110 l 517 110 l 545 193 l 545 575 l 515 648 l 530 648 l 530 1044 l 690 1044 l 690 223 q 704 165 690 191 q 741 127 718 138 l 684 -11 m 338 -11 q 191 35 254 -11 q 93 165 127 81 q 58 363 58 249 q 93 559 58 475 q 192 689 128 644 q 340 735 255 735 q 486 689 424 735 q 583 559 548 643 q 617 363 617 475 q 582 166 617 250 q 485 36 547 82 q 338 -11 422 -11 m 376 127 q 462 157 425 127 q 519 239 499 186 q 540 363 540 292 q 519 487 540 434 q 463 568 499 539 q 378 597 427 597 q 292 568 329 597 q 235 486 255 538 q 214 363 214 433 q 234 239 214 292 q 291 157 254 186 q 376 127 327 127 m 412 818 l 412 920 l 810 920 l 810 818 l 412 818 z "},"ḍ":{"ha":781,"x_min":58,"x_max":741,"o":"m 684 -11 q 593 51 628 14 q 553 124 558 88 l 571 110 l 517 110 l 545 193 l 545 575 l 515 648 l 530 648 l 530 1044 l 690 1044 l 690 223 q 704 165 690 191 q 741 127 718 138 l 684 -11 m 338 -11 q 191 35 254 -11 q 93 165 127 81 q 58 363 58 249 q 93 559 58 475 q 192 689 128 644 q 340 735 255 735 q 486 689 424 735 q 583 559 548 643 q 617 363 617 475 q 582 166 617 250 q 485 36 547 82 q 338 -11 422 -11 m 376 127 q 462 157 425 127 q 519 239 499 186 q 540 363 540 292 q 519 487 540 434 q 463 568 499 539 q 378 597 427 597 q 292 568 329 597 q 235 486 255 538 q 214 363 214 433 q 234 239 214 292 q 291 157 254 186 q 376 127 327 127 m 387 -298 q 311 -268 342 -298 q 280 -191 280 -237 q 311 -115 280 -146 q 387 -84 342 -84 q 464 -115 433 -84 q 494 -191 494 -146 q 464 -268 494 -237 q 387 -298 433 -298 z "},"ḏ":{"ha":781,"x_min":58,"x_max":741,"o":"m 684 -11 q 593 51 628 14 q 553 124 558 88 l 571 110 l 517 110 l 545 193 l 545 575 l 515 648 l 530 648 l 530 1044 l 690 1044 l 690 223 q 704 165 690 191 q 741 127 718 138 l 684 -11 m 338 -11 q 191 35 254 -11 q 93 165 127 81 q 58 363 58 249 q 93 559 58 475 q 192 689 128 644 q 340 735 255 735 q 486 689 424 735 q 583 559 548 643 q 617 363 617 475 q 582 166 617 250 q 485 36 547 82 q 338 -11 422 -11 m 376 127 q 462 157 425 127 q 519 239 499 186 q 540 363 540 292 q 519 487 540 434 q 463 568 499 539 q 378 597 427 597 q 292 568 329 597 q 235 486 255 538 q 214 363 214 433 q 234 239 214 292 q 291 157 254 186 q 376 127 327 127 m 134 -277 l 134 -176 l 641 -176 l 641 -277 l 134 -277 z "},"ǆ":{"ha":781,"x_min":19,"x_max":764,"o":"m 170 -11 q 58 85 96 -11 q 19 363 19 181 q 56 640 19 545 q 165 735 94 735 q 268 640 237 735 q 299 363 299 545 q 269 85 299 180 q 170 -11 239 -11 m 201 125 q 250 186 234 125 q 265 363 265 248 q 250 539 265 478 q 202 600 235 600 q 153 539 170 600 q 136 363 136 478 q 153 186 136 248 q 201 125 169 125 m 363 -11 q 296 47 321 13 q 268 113 272 81 l 281 90 l 245 90 l 271 179 l 271 568 l 231 664 l 260 664 l 260 1044 l 379 1044 l 379 189 q 388 152 379 168 q 414 126 397 136 l 363 -11 m 418 0 l 418 31 l 610 600 l 610 604 l 450 604 l 450 723 l 755 723 l 755 688 l 564 123 l 564 119 l 747 119 l 747 0 l 418 0 m 577 820 l 420 983 l 477 1053 l 591 926 l 593 926 l 706 1053 l 764 983 l 607 820 l 577 820 z "},"ð":{"ha":781,"x_min":50,"x_max":732,"o":"m 389 -11 q 220 35 297 -11 q 96 162 142 81 q 50 348 50 243 q 93 528 50 449 q 209 653 136 608 q 372 699 282 699 q 458 686 415 699 q 535 648 502 673 q 581 589 568 623 l 552 622 l 594 622 l 572 597 q 510 727 549 667 q 417 835 471 786 q 301 922 364 884 q 167 988 238 961 l 229 1115 q 431 998 339 1065 q 591 846 524 931 q 695 657 659 761 q 732 429 732 553 q 688 195 732 294 q 567 43 644 96 q 389 -11 490 -11 m 393 133 q 488 164 446 134 q 554 244 530 194 q 578 359 578 295 q 553 469 578 422 q 486 539 528 515 q 393 564 444 564 q 297 537 340 564 q 231 464 255 511 q 206 354 206 416 q 231 239 206 289 q 299 160 256 189 q 393 133 342 132 m 214 759 l 166 833 l 593 1115 l 649 1029 l 214 759 z "},"e":{"ha":781,"x_min":68,"x_max":713,"o":"m 419 -11 q 236 36 315 -11 q 113 167 157 83 q 68 361 68 251 q 110 557 68 473 q 227 688 152 641 q 402 734 302 734 q 565 692 494 734 q 674 575 635 650 q 713 399 713 499 q 711 350 713 376 q 704 304 709 323 l 194 304 l 194 417 l 560 417 q 539 513 560 471 q 483 577 519 554 q 399 600 446 600 q 302 570 344 600 q 237 488 260 541 q 214 365 214 435 q 240 239 214 293 q 313 155 266 185 q 421 125 359 125 q 515 142 468 125 q 595 187 562 159 l 648 59 q 544 9 607 28 q 419 -11 481 -11 z "},"é":{"ha":781,"x_min":68,"x_max":713,"o":"m 419 -11 q 236 36 315 -11 q 113 167 157 83 q 68 361 68 251 q 110 557 68 473 q 227 688 152 641 q 402 734 302 734 q 565 692 494 734 q 674 575 635 650 q 713 399 713 499 q 711 350 713 376 q 704 304 709 323 l 194 304 l 194 417 l 560 417 q 539 513 560 471 q 483 577 519 554 q 399 600 446 600 q 302 570 344 600 q 237 488 260 541 q 214 365 214 435 q 240 239 214 293 q 313 155 266 185 q 421 125 359 125 q 515 142 468 125 q 595 187 562 159 l 648 59 q 544 9 607 28 q 419 -11 481 -11 m 400 791 l 330 853 l 507 1099 l 608 1003 l 400 791 z "},"ĕ":{"ha":781,"x_min":68,"x_max":713,"o":"m 419 -11 q 236 36 315 -11 q 113 167 157 83 q 68 361 68 251 q 110 557 68 473 q 227 688 152 641 q 402 734 302 734 q 565 692 494 734 q 674 575 635 650 q 713 399 713 499 q 711 350 713 376 q 704 304 709 323 l 194 304 l 194 417 l 560 417 q 539 513 560 471 q 483 577 519 554 q 399 600 446 600 q 302 570 344 600 q 237 488 260 541 q 214 365 214 435 q 240 239 214 293 q 313 155 266 185 q 421 125 359 125 q 515 142 468 125 q 595 187 562 159 l 648 59 q 544 9 607 28 q 419 -11 481 -11 m 399 817 q 280 845 334 817 q 196 924 227 874 q 165 1036 165 973 l 268 1036 q 306 945 268 982 q 399 908 343 908 q 494 945 457 908 q 532 1036 532 982 l 635 1036 q 605 924 636 973 q 520 845 573 874 q 399 817 467 817 z "},"ě":{"ha":781,"x_min":68,"x_max":713,"o":"m 419 -11 q 236 36 315 -11 q 113 167 157 83 q 68 361 68 251 q 110 557 68 473 q 227 688 152 641 q 402 734 302 734 q 565 692 494 734 q 674 575 635 650 q 713 399 713 499 q 711 350 713 376 q 704 304 709 323 l 194 304 l 194 417 l 560 417 q 539 513 560 471 q 483 577 519 554 q 399 600 446 600 q 302 570 344 600 q 237 488 260 541 q 214 365 214 435 q 240 239 214 293 q 313 155 266 185 q 421 125 359 125 q 515 142 468 125 q 595 187 562 159 l 648 59 q 544 9 607 28 q 419 -11 481 -11 m 229 1070 l 398 912 l 404 912 l 570 1070 l 635 993 l 417 795 l 382 795 l 164 993 l 229 1070 z "},"ḝ":{"ha":781,"x_min":68,"x_max":713,"o":"m 419 -11 q 236 36 315 -11 q 113 167 157 83 q 68 361 68 251 q 110 557 68 473 q 227 688 152 641 q 402 734 302 734 q 565 692 494 734 q 674 575 635 650 q 713 399 713 499 q 711 350 713 376 q 704 304 709 323 l 194 304 l 194 417 l 560 417 q 539 513 560 471 q 483 577 519 554 q 399 600 446 600 q 302 570 344 600 q 237 488 260 541 q 214 365 214 435 q 240 239 214 293 q 313 155 266 185 q 421 125 359 125 q 515 142 468 125 q 595 187 562 159 l 648 59 q 544 9 607 28 q 419 -11 481 -11 m 300 -330 l 300 -245 q 403 -232 370 -248 q 437 -185 437 -216 q 410 -147 437 -163 q 336 -130 383 -131 l 377 0 l 452 0 l 415 -111 l 406 -70 q 501 -112 467 -80 q 535 -194 535 -144 q 477 -294 535 -256 q 300 -330 420 -331 m 399 817 q 280 845 334 817 q 196 924 227 874 q 165 1036 165 973 l 268 1036 q 306 945 268 982 q 399 908 343 908 q 494 945 457 908 q 532 1036 532 982 l 635 1036 q 605 924 636 973 q 520 845 573 874 q 399 817 467 817 z "},"ê":{"ha":781,"x_min":68,"x_max":713,"o":"m 419 -11 q 236 36 315 -11 q 113 167 157 83 q 68 361 68 251 q 110 557 68 473 q 227 688 152 641 q 402 734 302 734 q 565 692 494 734 q 674 575 635 650 q 713 399 713 499 q 711 350 713 376 q 704 304 709 323 l 194 304 l 194 417 l 560 417 q 539 513 560 471 q 483 577 519 554 q 399 600 446 600 q 302 570 344 600 q 237 488 260 541 q 214 365 214 435 q 240 239 214 293 q 313 155 266 185 q 421 125 359 125 q 515 142 468 125 q 595 187 562 159 l 648 59 q 544 9 607 28 q 419 -11 481 -11 m 229 791 l 163 868 l 381 1066 l 417 1066 l 635 868 l 569 791 l 404 949 l 398 949 l 229 791 z "},"ế":{"ha":781,"x_min":68,"x_max":812,"o":"m 419 -11 q 236 36 315 -11 q 113 167 157 83 q 68 361 68 251 q 110 557 68 473 q 227 688 152 641 q 402 734 302 734 q 565 692 494 734 q 674 575 635 650 q 713 399 713 499 q 711 350 713 376 q 704 304 709 323 l 194 304 l 194 417 l 560 417 q 539 513 560 471 q 483 577 519 554 q 399 600 446 600 q 302 570 344 600 q 237 488 260 541 q 214 365 214 435 q 240 239 214 293 q 313 155 266 185 q 421 125 359 125 q 515 142 468 125 q 595 187 562 159 l 648 59 q 544 9 607 28 q 419 -11 481 -11 m 605 975 l 532 1028 l 734 1238 l 812 1136 l 605 975 m 235 800 l 160 877 l 382 1038 l 418 1038 l 640 877 l 566 800 l 402 926 l 397 926 l 235 800 z "},"ệ":{"ha":781,"x_min":68,"x_max":713,"o":"m 419 -11 q 236 36 315 -11 q 113 167 157 83 q 68 361 68 251 q 110 557 68 473 q 227 688 152 641 q 402 734 302 734 q 565 692 494 734 q 674 575 635 650 q 713 399 713 499 q 711 350 713 376 q 704 304 709 323 l 194 304 l 194 417 l 560 417 q 539 513 560 471 q 483 577 519 554 q 399 600 446 600 q 302 570 344 600 q 237 488 260 541 q 214 365 214 435 q 240 239 214 293 q 313 155 266 185 q 421 125 359 125 q 515 142 468 125 q 595 187 562 159 l 648 59 q 544 9 607 28 q 419 -11 481 -11 m 403 -298 q 327 -268 358 -298 q 296 -191 296 -237 q 327 -115 296 -146 q 403 -84 358 -84 q 479 -115 448 -84 q 510 -191 510 -146 q 479 -268 510 -237 q 403 -298 448 -298 m 229 791 l 163 868 l 381 1066 l 417 1066 l 635 868 l 569 791 l 404 949 l 398 949 l 229 791 z "},"ề":{"ha":781,"x_min":-12,"x_max":713,"o":"m 419 -11 q 236 36 315 -11 q 113 167 157 83 q 68 361 68 251 q 110 557 68 473 q 227 688 152 641 q 402 734 302 734 q 565 692 494 734 q 674 575 635 650 q 713 399 713 499 q 711 350 713 376 q 704 304 709 323 l 194 304 l 194 417 l 560 417 q 539 513 560 471 q 483 577 519 554 q 399 600 446 600 q 302 570 344 600 q 237 488 260 541 q 214 365 214 435 q 240 239 214 293 q 313 155 266 185 q 421 125 359 125 q 515 142 468 125 q 595 187 562 159 l 648 59 q 544 9 607 28 q 419 -11 481 -11 m 196 975 l -12 1136 l 67 1238 l 269 1028 l 196 975 m 566 800 l 404 926 l 399 926 l 235 800 l 161 877 l 383 1038 l 419 1038 l 642 877 l 566 800 z "},"ể":{"ha":781,"x_min":68,"x_max":713,"o":"m 419 -11 q 236 36 315 -11 q 113 167 157 83 q 68 361 68 251 q 110 557 68 473 q 227 688 152 641 q 402 734 302 734 q 565 692 494 734 q 674 575 635 650 q 713 399 713 499 q 711 350 713 376 q 704 304 709 323 l 194 304 l 194 417 l 560 417 q 539 513 560 471 q 483 577 519 554 q 399 600 446 600 q 302 570 344 600 q 237 488 260 541 q 214 365 214 435 q 240 239 214 293 q 313 155 266 185 q 421 125 359 125 q 515 142 468 125 q 595 187 562 159 l 648 59 q 544 9 607 28 q 419 -11 481 -11 m 591 974 l 530 1020 q 564 1056 551 1037 q 578 1093 578 1075 q 561 1128 578 1115 q 511 1141 544 1141 q 477 1137 495 1141 q 441 1127 459 1134 l 441 1226 q 483 1236 456 1233 q 532 1240 510 1240 q 637 1209 597 1240 q 677 1115 677 1179 q 664 1056 677 1083 q 630 1007 650 1028 q 591 974 610 986 m 235 800 l 161 877 l 383 1038 l 419 1038 l 641 877 l 568 800 l 403 926 l 398 926 l 235 800 z "},"ễ":{"ha":781,"x_min":68,"x_max":713,"o":"m 419 -11 q 236 36 315 -11 q 113 167 157 83 q 68 361 68 251 q 110 557 68 473 q 227 688 152 641 q 402 734 302 734 q 565 692 494 734 q 674 575 635 650 q 713 399 713 499 q 711 350 713 376 q 704 304 709 323 l 194 304 l 194 417 l 560 417 q 539 513 560 471 q 483 577 519 554 q 399 600 446 600 q 302 570 344 600 q 237 488 260 541 q 214 365 214 435 q 240 239 214 293 q 313 155 266 185 q 421 125 359 125 q 515 142 468 125 q 595 187 562 159 l 648 59 q 544 9 607 28 q 419 -11 481 -11 m 165 1062 q 203 1192 165 1143 q 309 1242 242 1242 q 368 1230 345 1242 q 410 1203 392 1219 q 444 1176 427 1187 q 481 1164 460 1164 q 519 1185 506 1164 q 533 1242 532 1206 l 636 1242 q 622 1150 637 1191 q 577 1086 607 1109 q 503 1062 547 1062 q 444 1074 468 1062 q 402 1102 420 1086 q 368 1130 384 1118 q 331 1142 351 1142 q 286 1122 304 1142 q 267 1062 268 1103 l 165 1062 m 235 800 l 160 877 l 383 1038 l 418 1038 l 640 877 l 567 800 l 402 926 l 398 926 l 235 800 z "},"ȅ":{"ha":781,"x_min":68,"x_max":713,"o":"m 419 -11 q 236 36 315 -11 q 113 167 157 83 q 68 361 68 251 q 110 557 68 473 q 227 688 152 641 q 402 734 302 734 q 565 692 494 734 q 674 575 635 650 q 713 399 713 499 q 711 350 713 376 q 704 304 709 323 l 194 304 l 194 417 l 560 417 q 539 513 560 471 q 483 577 519 554 q 399 600 446 600 q 302 570 344 600 q 237 488 260 541 q 214 365 214 435 q 240 239 214 293 q 313 155 266 185 q 421 125 359 125 q 515 142 468 125 q 595 187 562 159 l 648 59 q 544 9 607 28 q 419 -11 481 -11 m 504 799 l 352 1036 l 463 1091 l 591 821 l 504 799 m 279 799 l 125 1036 l 235 1091 l 364 821 l 279 799 z "},"ë":{"ha":781,"x_min":68,"x_max":713,"o":"m 419 -11 q 236 36 315 -11 q 113 167 157 83 q 68 361 68 251 q 110 557 68 473 q 227 688 152 641 q 402 734 302 734 q 565 692 494 734 q 674 575 635 650 q 713 399 713 499 q 711 350 713 376 q 704 304 709 323 l 194 304 l 194 417 l 560 417 q 539 513 560 471 q 483 577 519 554 q 399 600 446 600 q 302 570 344 600 q 237 488 260 541 q 214 365 214 435 q 240 239 214 293 q 313 155 266 185 q 421 125 359 125 q 515 142 468 125 q 595 187 562 159 l 648 59 q 544 9 607 28 q 419 -11 481 -11 m 549 834 q 478 863 507 834 q 449 935 449 892 q 478 1006 449 977 q 549 1034 507 1034 q 621 1006 592 1034 q 649 935 649 977 q 621 863 649 892 q 549 834 592 834 m 252 834 q 182 863 211 834 q 153 935 153 892 q 182 1006 153 977 q 252 1034 211 1034 q 324 1006 295 1034 q 353 935 353 977 q 324 863 353 892 q 252 834 295 834 z "},"ė":{"ha":781,"x_min":68,"x_max":713,"o":"m 419 -11 q 236 36 315 -11 q 113 167 157 83 q 68 361 68 251 q 110 557 68 473 q 227 688 152 641 q 402 734 302 734 q 565 692 494 734 q 674 575 635 650 q 713 399 713 499 q 711 350 713 376 q 704 304 709 323 l 194 304 l 194 417 l 560 417 q 539 513 560 471 q 483 577 519 554 q 399 600 446 600 q 302 570 344 600 q 237 488 260 541 q 214 365 214 435 q 240 239 214 293 q 313 155 266 185 q 421 125 359 125 q 515 142 468 125 q 595 187 562 159 l 648 59 q 544 9 607 28 q 419 -11 481 -11 m 401 825 q 325 856 356 825 q 294 932 294 886 q 325 1008 294 977 q 401 1039 356 1039 q 477 1008 446 1039 q 508 932 508 977 q 477 856 508 886 q 401 825 446 825 z "},"ẹ":{"ha":781,"x_min":68,"x_max":713,"o":"m 419 -11 q 236 36 315 -11 q 113 167 157 83 q 68 361 68 251 q 110 557 68 473 q 227 688 152 641 q 402 734 302 734 q 565 692 494 734 q 674 575 635 650 q 713 399 713 499 q 711 350 713 376 q 704 304 709 323 l 194 304 l 194 417 l 560 417 q 539 513 560 471 q 483 577 519 554 q 399 600 446 600 q 302 570 344 600 q 237 488 260 541 q 214 365 214 435 q 240 239 214 293 q 313 155 266 185 q 421 125 359 125 q 515 142 468 125 q 595 187 562 159 l 648 59 q 544 9 607 28 q 419 -11 481 -11 m 403 -298 q 327 -268 358 -298 q 296 -191 296 -237 q 327 -115 296 -146 q 403 -84 358 -84 q 479 -115 448 -84 q 510 -191 510 -146 q 479 -268 510 -237 q 403 -298 448 -298 z "},"è":{"ha":781,"x_min":68,"x_max":713,"o":"m 419 -11 q 236 36 315 -11 q 113 167 157 83 q 68 361 68 251 q 110 557 68 473 q 227 688 152 641 q 402 734 302 734 q 565 692 494 734 q 674 575 635 650 q 713 399 713 499 q 711 350 713 376 q 704 304 709 323 l 194 304 l 194 417 l 560 417 q 539 513 560 471 q 483 577 519 554 q 399 600 446 600 q 302 570 344 600 q 237 488 260 541 q 214 365 214 435 q 240 239 214 293 q 313 155 266 185 q 421 125 359 125 q 515 142 468 125 q 595 187 562 159 l 648 59 q 544 9 607 28 q 419 -11 481 -11 m 401 791 l 194 1003 l 295 1099 l 472 853 l 401 791 z "},"ẻ":{"ha":781,"x_min":68,"x_max":713,"o":"m 419 -11 q 236 36 315 -11 q 113 167 157 83 q 68 361 68 251 q 110 557 68 473 q 227 688 152 641 q 402 734 302 734 q 565 692 494 734 q 674 575 635 650 q 713 399 713 499 q 711 350 713 376 q 704 304 709 323 l 194 304 l 194 417 l 560 417 q 539 513 560 471 q 483 577 519 554 q 399 600 446 600 q 302 570 344 600 q 237 488 260 541 q 214 365 214 435 q 240 239 214 293 q 313 155 266 185 q 421 125 359 125 q 515 142 468 125 q 595 187 562 159 l 648 59 q 544 9 607 28 q 419 -11 481 -11 m 422 791 l 361 852 q 400 884 384 865 q 416 924 416 903 q 399 958 416 945 q 351 970 382 970 q 316 966 338 970 q 279 956 295 963 l 279 1055 q 321 1065 294 1061 q 368 1069 348 1069 q 476 1037 436 1069 q 516 945 516 1005 q 487 850 516 892 q 422 791 458 808 z "},"ȇ":{"ha":781,"x_min":68,"x_max":713,"o":"m 419 -11 q 236 36 315 -11 q 113 167 157 83 q 68 361 68 251 q 110 557 68 473 q 227 688 152 641 q 402 734 302 734 q 565 692 494 734 q 674 575 635 650 q 713 399 713 499 q 711 350 713 376 q 704 304 709 323 l 194 304 l 194 417 l 560 417 q 539 513 560 471 q 483 577 519 554 q 399 600 446 600 q 302 570 344 600 q 237 488 260 541 q 214 365 214 435 q 240 239 214 293 q 313 155 266 185 q 421 125 359 125 q 515 142 468 125 q 595 187 562 159 l 648 59 q 544 9 607 28 q 419 -11 481 -11 m 399 1039 q 520 1010 467 1039 q 604 932 573 981 q 635 820 635 882 l 532 820 q 494 911 531 874 q 399 947 457 947 q 306 911 343 947 q 268 820 268 874 l 165 820 q 196 932 165 882 q 280 1010 227 981 q 399 1039 334 1039 z "},"ē":{"ha":781,"x_min":68,"x_max":713,"o":"m 419 -11 q 236 36 315 -11 q 113 167 157 83 q 68 361 68 251 q 110 557 68 473 q 227 688 152 641 q 402 734 302 734 q 565 692 494 734 q 674 575 635 650 q 713 399 713 499 q 711 350 713 376 q 704 304 709 323 l 194 304 l 194 417 l 560 417 q 539 513 560 471 q 483 577 519 554 q 399 600 446 600 q 302 570 344 600 q 237 488 260 541 q 214 365 214 435 q 240 239 214 293 q 313 155 266 185 q 421 125 359 125 q 515 142 468 125 q 595 187 562 159 l 648 59 q 544 9 607 28 q 419 -11 481 -11 m 146 863 l 146 964 l 653 964 l 653 863 l 146 863 z "},"ḗ":{"ha":781,"x_min":68,"x_max":713,"o":"m 419 -11 q 236 36 315 -11 q 113 167 157 83 q 68 361 68 251 q 110 557 68 473 q 227 688 152 641 q 402 734 302 734 q 565 692 494 734 q 674 575 635 650 q 713 399 713 499 q 711 350 713 376 q 704 304 709 323 l 194 304 l 194 417 l 560 417 q 539 513 560 471 q 483 577 519 554 q 399 600 446 600 q 302 570 344 600 q 237 488 260 541 q 214 365 214 435 q 240 239 214 293 q 313 155 266 185 q 421 125 359 125 q 515 142 468 125 q 595 187 562 159 l 648 59 q 544 9 607 28 q 419 -11 481 -11 m 146 863 l 146 964 l 653 964 l 653 863 l 146 863 m 400 1035 l 330 1097 l 507 1342 l 608 1246 l 400 1035 z "},"ḕ":{"ha":781,"x_min":68,"x_max":713,"o":"m 419 -11 q 236 36 315 -11 q 113 167 157 83 q 68 361 68 251 q 110 557 68 473 q 227 688 152 641 q 402 734 302 734 q 565 692 494 734 q 674 575 635 650 q 713 399 713 499 q 711 350 713 376 q 704 304 709 323 l 194 304 l 194 417 l 560 417 q 539 513 560 471 q 483 577 519 554 q 399 600 446 600 q 302 570 344 600 q 237 488 260 541 q 214 365 214 435 q 240 239 214 293 q 313 155 266 185 q 421 125 359 125 q 515 142 468 125 q 595 187 562 159 l 648 59 q 544 9 607 28 q 419 -11 481 -11 m 146 863 l 146 964 l 653 964 l 653 863 l 146 863 m 401 1035 l 194 1246 l 295 1342 l 472 1097 l 401 1035 z "},"ę":{"ha":781,"x_min":68,"x_max":713,"o":"m 419 -11 q 236 36 315 -11 q 113 167 157 83 q 68 361 68 251 q 110 557 68 473 q 227 688 152 641 q 402 734 302 734 q 565 692 494 734 q 674 575 635 650 q 713 399 713 499 q 711 350 713 376 q 704 304 709 323 l 194 304 l 194 417 l 560 417 q 539 513 560 471 q 483 577 519 554 q 399 600 446 600 q 302 570 344 600 q 237 488 260 541 q 214 365 214 435 q 240 239 214 293 q 313 155 266 185 q 421 125 359 125 q 515 142 468 125 q 595 187 562 159 l 648 59 q 544 9 607 28 q 419 -11 481 -11 m 559 -226 q 464 -191 500 -226 q 427 -100 427 -156 q 464 -2 427 -45 q 564 87 502 42 l 649 59 q 591 12 618 35 q 546 -34 564 -11 q 529 -83 529 -57 q 545 -118 529 -105 q 587 -131 560 -131 q 627 -124 606 -131 q 659 -109 649 -117 l 659 -203 q 612 -219 643 -213 q 559 -226 582 -226 z "},"ẽ":{"ha":781,"x_min":68,"x_max":713,"o":"m 419 -11 q 236 36 315 -11 q 113 167 157 83 q 68 361 68 251 q 110 557 68 473 q 227 688 152 641 q 402 734 302 734 q 565 692 494 734 q 674 575 635 650 q 713 399 713 499 q 711 350 713 376 q 704 304 709 323 l 194 304 l 194 417 l 560 417 q 539 513 560 471 q 483 577 519 554 q 399 600 446 600 q 302 570 344 600 q 237 488 260 541 q 214 365 214 435 q 240 239 214 293 q 313 155 266 185 q 421 125 359 125 q 515 142 468 125 q 595 187 562 159 l 648 59 q 544 9 607 28 q 419 -11 481 -11 m 159 822 q 200 964 159 915 q 305 1013 241 1013 q 368 1000 342 1013 q 411 969 393 987 q 446 937 429 951 q 483 924 463 924 q 523 949 509 924 q 536 1013 536 975 l 641 1013 q 600 872 641 922 q 494 822 558 822 q 433 836 458 822 q 390 868 408 850 q 354 900 371 886 q 315 914 336 914 q 277 889 290 914 q 262 822 264 863 l 159 822 z "},"ə":{"ha":781,"x_min":62,"x_max":724,"o":"m 381 -11 q 216 33 288 -11 q 103 152 144 76 q 62 324 62 227 q 64 379 62 353 q 71 418 67 404 l 598 418 l 598 307 l 214 307 q 236 213 214 254 q 296 147 258 171 q 385 123 334 123 q 486 154 442 123 q 554 238 530 184 q 578 359 578 291 q 551 485 578 431 q 474 568 523 538 q 361 598 425 598 q 289 589 323 598 q 227 565 254 579 q 182 536 199 551 l 129 665 q 230 714 168 694 q 363 734 292 734 q 551 688 470 734 q 678 558 632 642 q 724 362 724 474 q 677 164 724 248 q 554 35 631 81 q 381 -11 476 -11 z "},"f":{"ha":781,"x_min":87,"x_max":736,"o":"m 262 0 l 262 782 q 297 935 262 872 q 394 1030 332 998 q 535 1063 456 1063 q 638 1049 584 1063 q 736 1008 692 1035 l 677 880 q 615 911 649 900 q 551 922 581 922 q 458 887 494 922 q 422 785 422 852 l 422 0 l 262 0 m 87 584 l 87 724 l 686 724 l 686 584 l 87 584 z "},"g":{"ha":781,"x_min":59,"x_max":688,"o":"m 362 -296 q 222 -274 288 -296 q 117 -227 155 -253 l 171 -96 q 252 -139 205 -121 q 345 -157 300 -157 q 430 -139 385 -157 q 506 -82 475 -121 q 537 22 537 -42 l 537 107 l 517 107 l 545 173 l 545 569 l 504 641 l 539 641 l 539 724 l 688 724 l 688 31 q 663 -114 688 -53 q 592 -216 637 -176 q 488 -276 547 -256 q 362 -296 429 -296 m 345 5 q 241 29 292 5 q 149 99 190 53 q 83 214 108 146 q 59 370 59 282 q 101 570 59 488 q 211 693 144 651 q 351 734 277 734 q 493 688 431 734 q 590 561 555 642 q 625 377 625 480 q 588 188 625 272 q 488 54 551 104 q 345 5 424 5 m 380 142 q 464 172 427 142 q 522 254 500 202 q 543 375 543 307 q 522 493 543 443 q 464 570 500 543 q 382 597 428 597 q 297 569 334 597 q 239 491 260 541 q 218 373 218 441 q 239 255 218 307 q 296 173 260 203 q 380 142 333 142 z "},"ǵ":{"ha":781,"x_min":59,"x_max":688,"o":"m 362 -296 q 222 -274 288 -296 q 117 -227 155 -253 l 171 -96 q 252 -139 205 -121 q 345 -157 300 -157 q 430 -139 385 -157 q 506 -82 475 -121 q 537 22 537 -42 l 537 107 l 517 107 l 545 173 l 545 569 l 504 641 l 539 641 l 539 724 l 688 724 l 688 31 q 663 -114 688 -53 q 592 -216 637 -176 q 488 -276 547 -256 q 362 -296 429 -296 m 345 5 q 241 29 292 5 q 149 99 190 53 q 83 214 108 146 q 59 370 59 282 q 101 570 59 488 q 211 693 144 651 q 351 734 277 734 q 493 688 431 734 q 590 561 555 642 q 625 377 625 480 q 588 188 625 272 q 488 54 551 104 q 345 5 424 5 m 380 142 q 464 172 427 142 q 522 254 500 202 q 543 375 543 307 q 522 493 543 443 q 464 570 500 543 q 382 597 428 597 q 297 569 334 597 q 239 491 260 541 q 218 373 218 441 q 239 255 218 307 q 296 173 260 203 q 380 142 333 142 m 376 791 l 306 853 l 483 1099 l 584 1003 l 376 791 z "},"ğ":{"ha":781,"x_min":59,"x_max":688,"o":"m 362 -296 q 222 -274 288 -296 q 117 -227 155 -253 l 171 -96 q 252 -139 205 -121 q 345 -157 300 -157 q 430 -139 385 -157 q 506 -82 475 -121 q 537 22 537 -42 l 537 107 l 517 107 l 545 173 l 545 569 l 504 641 l 539 641 l 539 724 l 688 724 l 688 31 q 663 -114 688 -53 q 592 -216 637 -176 q 488 -276 547 -256 q 362 -296 429 -296 m 345 5 q 241 29 292 5 q 149 99 190 53 q 83 214 108 146 q 59 370 59 282 q 101 570 59 488 q 211 693 144 651 q 351 734 277 734 q 493 688 431 734 q 590 561 555 642 q 625 377 625 480 q 588 188 625 272 q 488 54 551 104 q 345 5 424 5 m 380 142 q 464 172 427 142 q 522 254 500 202 q 543 375 543 307 q 522 493 543 443 q 464 570 500 543 q 382 597 428 597 q 297 569 334 597 q 239 491 260 541 q 218 373 218 441 q 239 255 218 307 q 296 173 260 203 q 380 142 333 142 m 376 817 q 257 845 310 817 q 172 924 203 874 q 141 1036 141 973 l 244 1036 q 282 945 244 982 q 376 908 319 908 q 471 945 433 908 q 509 1036 508 982 l 612 1036 q 581 924 612 973 q 496 845 549 874 q 376 817 444 817 z "},"ǧ":{"ha":781,"x_min":59,"x_max":688,"o":"m 362 -296 q 222 -274 288 -296 q 117 -227 155 -253 l 171 -96 q 252 -139 205 -121 q 345 -157 300 -157 q 430 -139 385 -157 q 506 -82 475 -121 q 537 22 537 -42 l 537 107 l 517 107 l 545 173 l 545 569 l 504 641 l 539 641 l 539 724 l 688 724 l 688 31 q 663 -114 688 -53 q 592 -216 637 -176 q 488 -276 547 -256 q 362 -296 429 -296 m 345 5 q 241 29 292 5 q 149 99 190 53 q 83 214 108 146 q 59 370 59 282 q 101 570 59 488 q 211 693 144 651 q 351 734 277 734 q 493 688 431 734 q 590 561 555 642 q 625 377 625 480 q 588 188 625 272 q 488 54 551 104 q 345 5 424 5 m 380 142 q 464 172 427 142 q 522 254 500 202 q 543 375 543 307 q 522 493 543 443 q 464 570 500 543 q 382 597 428 597 q 297 569 334 597 q 239 491 260 541 q 218 373 218 441 q 239 255 218 307 q 296 173 260 203 q 380 142 333 142 m 205 1070 l 374 912 l 380 912 l 546 1070 l 612 993 l 394 795 l 358 795 l 140 993 l 205 1070 z "},"ĝ":{"ha":781,"x_min":59,"x_max":688,"o":"m 362 -296 q 222 -274 288 -296 q 117 -227 155 -253 l 171 -96 q 252 -139 205 -121 q 345 -157 300 -157 q 430 -139 385 -157 q 506 -82 475 -121 q 537 22 537 -42 l 537 107 l 517 107 l 545 173 l 545 569 l 504 641 l 539 641 l 539 724 l 688 724 l 688 31 q 663 -114 688 -53 q 592 -216 637 -176 q 488 -276 547 -256 q 362 -296 429 -296 m 345 5 q 241 29 292 5 q 149 99 190 53 q 83 214 108 146 q 59 370 59 282 q 101 570 59 488 q 211 693 144 651 q 351 734 277 734 q 493 688 431 734 q 590 561 555 642 q 625 377 625 480 q 588 188 625 272 q 488 54 551 104 q 345 5 424 5 m 380 142 q 464 172 427 142 q 522 254 500 202 q 543 375 543 307 q 522 493 543 443 q 464 570 500 543 q 382 597 428 597 q 297 569 334 597 q 239 491 260 541 q 218 373 218 441 q 239 255 218 307 q 296 173 260 203 q 380 142 333 142 m 205 791 l 140 868 l 357 1066 l 393 1066 l 612 868 l 545 791 l 380 949 l 374 949 l 205 791 z "},"ģ":{"ha":781,"x_min":59,"x_max":688,"o":"m 362 -296 q 222 -274 288 -296 q 117 -227 155 -253 l 171 -96 q 252 -139 205 -121 q 345 -157 300 -157 q 430 -139 385 -157 q 506 -82 475 -121 q 537 22 537 -42 l 537 107 l 517 107 l 545 173 l 545 569 l 504 641 l 539 641 l 539 724 l 688 724 l 688 31 q 663 -114 688 -53 q 592 -216 637 -176 q 488 -276 547 -256 q 362 -296 429 -296 m 345 5 q 241 29 292 5 q 149 99 190 53 q 83 214 108 146 q 59 370 59 282 q 101 570 59 488 q 211 693 144 651 q 351 734 277 734 q 493 688 431 734 q 590 561 555 642 q 625 377 625 480 q 588 188 625 272 q 488 54 551 104 q 345 5 424 5 m 380 142 q 464 172 427 142 q 522 254 500 202 q 543 375 543 307 q 522 493 543 443 q 464 570 500 543 q 382 597 428 597 q 297 569 334 597 q 239 491 260 541 q 218 373 218 441 q 239 255 218 307 q 296 173 260 203 q 380 142 333 142 m 425 1126 l 462 1082 l 406 1029 q 378 1000 391 1015 q 359 970 366 985 q 351 943 351 956 l 330 942 q 341 969 332 957 q 374 981 351 981 q 426 959 401 981 q 451 901 451 937 q 427 844 451 866 q 374 823 404 823 q 317 846 340 823 q 293 913 293 869 q 307 980 293 949 q 337 1031 320 1010 q 367 1065 355 1053 l 425 1126 z "},"ġ":{"ha":781,"x_min":59,"x_max":688,"o":"m 362 -296 q 222 -274 288 -296 q 117 -227 155 -253 l 171 -96 q 252 -139 205 -121 q 345 -157 300 -157 q 430 -139 385 -157 q 506 -82 475 -121 q 537 22 537 -42 l 537 107 l 517 107 l 545 173 l 545 569 l 504 641 l 539 641 l 539 724 l 688 724 l 688 31 q 663 -114 688 -53 q 592 -216 637 -176 q 488 -276 547 -256 q 362 -296 429 -296 m 345 5 q 241 29 292 5 q 149 99 190 53 q 83 214 108 146 q 59 370 59 282 q 101 570 59 488 q 211 693 144 651 q 351 734 277 734 q 493 688 431 734 q 590 561 555 642 q 625 377 625 480 q 588 188 625 272 q 488 54 551 104 q 345 5 424 5 m 380 142 q 464 172 427 142 q 522 254 500 202 q 543 375 543 307 q 522 493 543 443 q 464 570 500 543 q 382 597 428 597 q 297 569 334 597 q 239 491 260 541 q 218 373 218 441 q 239 255 218 307 q 296 173 260 203 q 380 142 333 142 m 377 825 q 301 856 332 825 q 270 932 270 886 q 301 1008 270 977 q 377 1039 332 1039 q 453 1008 422 1039 q 484 932 484 977 q 453 856 484 886 q 377 825 422 825 z "},"ḡ":{"ha":781,"x_min":59,"x_max":688,"o":"m 362 -296 q 222 -274 288 -296 q 117 -227 155 -253 l 171 -96 q 252 -139 205 -121 q 345 -157 300 -157 q 430 -139 385 -157 q 506 -82 475 -121 q 537 22 537 -42 l 537 107 l 517 107 l 545 173 l 545 569 l 504 641 l 539 641 l 539 724 l 688 724 l 688 31 q 663 -114 688 -53 q 592 -216 637 -176 q 488 -276 547 -256 q 362 -296 429 -296 m 345 5 q 241 29 292 5 q 149 99 190 53 q 83 214 108 146 q 59 370 59 282 q 101 570 59 488 q 211 693 144 651 q 351 734 277 734 q 493 688 431 734 q 590 561 555 642 q 625 377 625 480 q 588 188 625 272 q 488 54 551 104 q 345 5 424 5 m 380 142 q 464 172 427 142 q 522 254 500 202 q 543 375 543 307 q 522 493 543 443 q 464 570 500 543 q 382 597 428 597 q 297 569 334 597 q 239 491 260 541 q 218 373 218 441 q 239 255 218 307 q 296 173 260 203 q 380 142 333 142 m 123 863 l 123 964 l 630 964 l 630 863 l 123 863 z "},"h":{"ha":781,"x_min":92,"x_max":693,"o":"m 92 0 l 92 1044 l 252 1044 l 252 648 l 284 648 l 224 585 q 272 667 237 633 q 354 717 307 700 q 456 734 402 734 q 588 697 535 734 q 667 598 641 659 q 693 469 693 538 l 693 0 l 533 0 l 533 435 q 495 555 533 515 q 399 595 458 595 q 326 577 359 595 q 272 523 292 559 q 252 433 252 487 l 252 0 l 92 0 z "},"ħ":{"ha":781,"x_min":-25,"x_max":693,"o":"m 92 0 l 92 1044 l 252 1044 l 252 648 l 284 648 l 224 585 q 272 667 237 633 q 354 717 307 700 q 456 734 402 734 q 588 697 535 734 q 667 598 641 659 q 693 469 693 538 l 693 0 l 533 0 l 533 435 q 495 555 533 515 q 399 595 458 595 q 326 577 359 595 q 272 523 292 559 q 252 433 252 487 l 252 0 l 92 0 m -25 818 l -25 920 l 372 920 l 372 818 l -25 818 z "},"ḫ":{"ha":781,"x_min":92,"x_max":693,"o":"m 92 0 l 92 1044 l 252 1044 l 252 648 l 284 648 l 224 585 q 272 667 237 633 q 354 717 307 700 q 456 734 402 734 q 588 697 535 734 q 667 598 641 659 q 693 469 693 538 l 693 0 l 533 0 l 533 435 q 495 555 533 515 q 399 595 458 595 q 326 577 359 595 q 272 523 292 559 q 252 433 252 487 l 252 0 l 92 0 m 390 -299 q 271 -270 324 -299 q 186 -192 218 -241 q 155 -80 155 -142 l 258 -80 q 296 -171 258 -134 q 390 -208 334 -208 q 485 -171 448 -208 q 523 -80 522 -134 l 626 -80 q 595 -192 627 -142 q 511 -270 564 -241 q 390 -299 458 -299 z "},"ĥ":{"ha":781,"x_min":-67,"x_max":693,"o":"m 92 0 l 92 1044 l 252 1044 l 252 648 l 284 648 l 224 585 q 272 667 237 633 q 354 717 307 700 q 456 734 402 734 q 588 697 535 734 q 667 598 641 659 q 693 469 693 538 l 693 0 l 533 0 l 533 435 q 495 555 533 515 q 399 595 458 595 q 326 577 359 595 q 272 523 292 559 q 252 433 252 487 l 252 0 l 92 0 m 8 1086 l -67 1165 l 155 1324 l 191 1324 l 413 1165 l 340 1086 l 175 1214 l 171 1214 l 8 1086 z "},"ḥ":{"ha":781,"x_min":92,"x_max":693,"o":"m 92 0 l 92 1044 l 252 1044 l 252 648 l 284 648 l 224 585 q 272 667 237 633 q 354 717 307 700 q 456 734 402 734 q 588 697 535 734 q 667 598 641 659 q 693 469 693 538 l 693 0 l 533 0 l 533 435 q 495 555 533 515 q 399 595 458 595 q 326 577 359 595 q 272 523 292 559 q 252 433 252 487 l 252 0 l 92 0 m 391 -298 q 315 -268 347 -298 q 284 -191 284 -237 q 315 -115 284 -146 q 391 -84 347 -84 q 468 -115 437 -84 q 498 -191 498 -146 q 468 -268 498 -237 q 391 -298 437 -298 z "},"i":{"ha":781,"x_min":132,"x_max":538,"o":"m 349 0 l 349 724 l 509 724 l 509 0 l 349 0 m 132 584 l 132 724 l 509 724 l 509 584 l 132 584 m 431 825 q 355 856 387 825 q 324 932 324 886 q 355 1008 324 977 q 431 1039 387 1039 q 508 1008 477 1039 q 538 932 538 977 q 508 856 538 886 q 431 825 477 825 z "},"ı":{"ha":781,"x_min":132,"x_max":509,"o":"m 349 0 l 349 724 l 509 724 l 509 0 l 349 0 m 132 584 l 132 724 l 509 724 l 509 584 l 132 584 z "},"í":{"ha":781,"x_min":132,"x_max":638,"o":"m 349 0 l 349 724 l 509 724 l 509 0 l 349 0 m 132 584 l 132 724 l 509 724 l 509 584 l 132 584 m 431 791 l 360 853 l 537 1099 l 638 1003 l 431 791 z "},"ĭ":{"ha":781,"x_min":132,"x_max":667,"o":"m 349 0 l 349 724 l 509 724 l 509 0 l 349 0 m 132 584 l 132 724 l 509 724 l 509 584 l 132 584 m 430 817 q 311 845 364 817 q 227 924 258 874 q 195 1036 195 973 l 298 1036 q 336 945 298 982 q 430 908 374 908 q 525 945 488 908 q 563 1036 562 982 l 666 1036 q 635 924 667 973 q 551 845 604 874 q 430 817 498 817 z "},"ǐ":{"ha":781,"x_min":132,"x_max":667,"o":"m 349 0 l 349 724 l 509 724 l 509 0 l 349 0 m 132 584 l 132 724 l 509 724 l 509 584 l 132 584 m 260 1070 l 429 912 l 435 912 l 600 1070 l 667 993 l 448 795 l 412 795 l 195 993 l 260 1070 z "},"î":{"ha":781,"x_min":132,"x_max":666,"o":"m 349 0 l 349 724 l 509 724 l 509 0 l 349 0 m 132 584 l 132 724 l 509 724 l 509 584 l 132 584 m 260 791 l 194 868 l 412 1066 l 448 1066 l 666 868 l 600 791 l 434 949 l 429 949 l 260 791 z "},"ȉ":{"ha":781,"x_min":132,"x_max":621,"o":"m 349 0 l 349 724 l 509 724 l 509 0 l 349 0 m 132 584 l 132 724 l 509 724 l 509 584 l 132 584 m 534 799 l 382 1036 l 494 1091 l 621 821 l 534 799 m 310 799 l 156 1036 l 265 1091 l 395 821 l 310 799 z "},"ï":{"ha":781,"x_min":132,"x_max":680,"o":"m 349 0 l 349 724 l 509 724 l 509 0 l 349 0 m 132 584 l 132 724 l 509 724 l 509 584 l 132 584 m 580 834 q 509 863 538 834 q 479 935 479 892 q 509 1006 479 977 q 580 1034 538 1034 q 651 1006 623 1034 q 680 935 680 977 q 651 863 680 892 q 580 834 623 834 m 283 834 q 212 863 241 834 q 183 935 183 892 q 212 1006 183 977 q 283 1034 241 1034 q 354 1006 326 1034 q 383 935 383 977 q 354 863 383 892 q 283 834 326 834 z "},"ḯ":{"ha":781,"x_min":132,"x_max":680,"o":"m 349 0 l 349 724 l 509 724 l 509 0 l 349 0 m 132 584 l 132 724 l 509 724 l 509 584 l 132 584 m 580 834 q 509 863 538 834 q 479 935 479 892 q 509 1006 479 977 q 580 1034 538 1034 q 651 1006 623 1034 q 680 935 680 977 q 651 863 680 892 q 580 834 623 834 m 283 834 q 212 863 241 834 q 183 935 183 892 q 212 1006 183 977 q 283 1034 241 1034 q 354 1006 326 1034 q 383 935 383 977 q 354 863 383 892 q 283 834 326 834 m 431 1055 l 360 1116 l 537 1362 l 638 1266 l 431 1055 z "},"ị":{"ha":781,"x_min":132,"x_max":539,"o":"m 349 0 l 349 724 l 509 724 l 509 0 l 349 0 m 132 584 l 132 724 l 509 724 l 509 584 l 132 584 m 431 825 q 355 856 387 825 q 324 932 324 886 q 355 1008 324 977 q 431 1039 387 1039 q 508 1008 477 1039 q 538 932 538 977 q 508 856 538 886 q 431 825 477 825 m 432 -298 q 356 -268 387 -298 q 325 -191 325 -237 q 356 -115 325 -146 q 432 -84 387 -84 q 508 -115 477 -84 q 539 -191 539 -146 q 508 -268 539 -237 q 432 -298 477 -298 z "},"ì":{"ha":781,"x_min":132,"x_max":509,"o":"m 349 0 l 349 724 l 509 724 l 509 0 l 349 0 m 132 584 l 132 724 l 509 724 l 509 584 l 132 584 m 432 791 l 224 1003 l 326 1099 l 503 853 l 432 791 z "},"ỉ":{"ha":781,"x_min":132,"x_max":547,"o":"m 349 0 l 349 724 l 509 724 l 509 0 l 349 0 m 132 584 l 132 724 l 509 724 l 509 584 l 132 584 m 452 791 l 392 852 q 431 884 414 865 q 447 924 447 903 q 430 958 447 945 q 381 970 413 970 q 347 966 368 970 q 310 956 326 963 l 310 1055 q 352 1065 325 1061 q 398 1069 378 1069 q 507 1037 467 1069 q 547 945 547 1005 q 518 850 547 892 q 452 791 489 808 z "},"ȋ":{"ha":781,"x_min":132,"x_max":667,"o":"m 349 0 l 349 724 l 509 724 l 509 0 l 349 0 m 132 584 l 132 724 l 509 724 l 509 584 l 132 584 m 430 1039 q 551 1010 498 1039 q 635 932 604 981 q 666 820 667 882 l 563 820 q 525 911 562 874 q 430 947 488 947 q 336 911 374 947 q 298 820 298 874 l 195 820 q 227 932 195 882 q 311 1010 258 981 q 430 1039 364 1039 z "},"ī":{"ha":781,"x_min":132,"x_max":684,"o":"m 349 0 l 349 724 l 509 724 l 509 0 l 349 0 m 132 584 l 132 724 l 509 724 l 509 584 l 132 584 m 177 863 l 177 964 l 684 964 l 684 863 l 177 863 z "},"į":{"ha":781,"x_min":132,"x_max":538,"o":"m 349 0 l 349 724 l 509 724 l 509 0 l 349 0 m 132 584 l 132 724 l 509 724 l 509 584 l 132 584 m 431 825 q 355 856 387 825 q 324 932 324 886 q 355 1008 324 977 q 431 1039 387 1039 q 508 1008 477 1039 q 538 932 538 977 q 508 856 538 886 q 431 825 477 825 m 420 -285 q 325 -250 361 -285 q 288 -159 288 -215 q 325 -61 288 -104 q 425 28 363 -17 l 510 0 q 452 -47 479 -24 q 407 -93 425 -70 q 390 -142 390 -116 q 406 -177 390 -164 q 448 -190 421 -190 q 488 -183 467 -190 q 520 -168 510 -176 l 520 -262 q 473 -278 504 -272 q 420 -285 443 -285 z "},"ĩ":{"ha":781,"x_min":132,"x_max":671,"o":"m 349 0 l 349 724 l 509 724 l 509 0 l 349 0 m 132 584 l 132 724 l 509 724 l 509 584 l 132 584 m 189 822 q 230 964 189 915 q 336 1013 271 1013 q 398 1000 373 1013 q 442 969 424 987 q 476 937 460 951 q 513 924 493 924 q 553 949 540 924 q 566 1013 567 975 l 671 1013 q 630 872 671 922 q 524 822 589 822 q 464 836 488 822 q 420 868 439 850 q 384 900 401 886 q 346 914 367 914 q 308 889 321 914 q 293 822 294 863 l 189 822 z "},"j":{"ha":781,"x_min":54,"x_max":610,"o":"m 286 -296 q 164 -280 223 -296 q 54 -236 106 -264 l 110 -101 q 192 -140 146 -125 q 277 -154 237 -154 q 350 -140 317 -154 q 403 -98 382 -125 q 423 -28 423 -70 l 423 724 l 583 724 l 583 -36 q 570 -124 583 -83 q 530 -196 556 -165 q 468 -250 505 -228 q 386 -284 431 -273 q 286 -296 340 -296 m 179 579 l 179 724 l 583 724 l 583 579 l 179 579 m 503 825 q 427 856 458 825 q 396 932 396 886 q 427 1008 396 977 q 503 1039 458 1039 q 579 1008 549 1039 q 610 932 610 977 q 579 856 610 886 q 503 825 549 825 z "},"ȷ":{"ha":781,"x_min":54,"x_max":583,"o":"m 286 -296 q 164 -280 223 -296 q 54 -236 106 -264 l 110 -101 q 192 -140 146 -125 q 277 -154 237 -154 q 350 -140 317 -154 q 403 -98 382 -125 q 423 -28 423 -70 l 423 724 l 583 724 l 583 -36 q 570 -124 583 -83 q 530 -196 556 -165 q 468 -250 505 -228 q 386 -284 431 -273 q 286 -296 340 -296 m 179 579 l 179 724 l 583 724 l 583 579 l 179 579 z "},"ĵ":{"ha":781,"x_min":54,"x_max":738,"o":"m 286 -296 q 164 -280 223 -296 q 54 -236 106 -264 l 110 -101 q 192 -140 146 -125 q 277 -154 237 -154 q 350 -140 317 -154 q 403 -98 382 -125 q 423 -28 423 -70 l 423 724 l 583 724 l 583 -36 q 570 -124 583 -83 q 530 -196 556 -165 q 468 -250 505 -228 q 386 -284 431 -273 q 286 -296 340 -296 m 179 579 l 179 724 l 583 724 l 583 579 l 179 579 m 332 791 l 266 868 l 484 1066 l 519 1066 l 738 868 l 671 791 l 506 949 l 500 949 l 332 791 z "},"k":{"ha":781,"x_min":106,"x_max":753,"o":"m 106 0 l 106 1044 l 266 1044 l 266 433 l 323 433 l 265 400 l 541 724 l 736 724 l 391 334 l 391 424 l 753 0 l 558 0 l 264 353 l 323 319 l 266 319 l 266 0 l 106 0 z "},"ķ":{"ha":781,"x_min":106,"x_max":753,"o":"m 106 0 l 106 1044 l 266 1044 l 266 433 l 323 433 l 265 400 l 541 724 l 736 724 l 391 334 l 391 424 l 753 0 l 558 0 l 264 353 l 323 319 l 266 319 l 266 0 l 106 0 m 357 -395 l 321 -351 l 377 -299 q 405 -269 392 -284 q 424 -240 417 -254 q 431 -213 431 -225 l 453 -211 q 441 -238 452 -226 q 409 -251 431 -251 q 357 -229 382 -251 q 332 -171 332 -206 q 356 -113 332 -134 q 409 -92 380 -92 q 466 -115 443 -92 q 490 -183 490 -138 q 476 -249 490 -219 q 446 -301 463 -279 q 416 -334 428 -323 l 357 -395 z "},"ĸ":{"ha":781,"x_min":100,"x_max":760,"o":"m 100 0 l 100 724 l 260 724 l 260 424 l 317 424 l 259 391 l 545 724 l 740 724 l 385 325 l 385 415 l 760 0 l 564 0 l 258 345 l 317 310 l 260 310 l 260 0 l 100 0 z "},"l":{"ha":781,"x_min":208,"x_max":702,"o":"m 480 -11 q 337 22 399 -11 q 242 114 276 55 q 208 249 208 172 l 208 1044 l 368 1044 l 368 257 q 402 166 368 202 q 496 131 437 131 q 575 147 536 131 q 645 187 615 163 l 702 52 q 597 6 656 24 q 480 -11 538 -11 z "},"ĺ":{"ha":781,"x_min":208,"x_max":702,"o":"m 480 -11 q 337 22 399 -11 q 242 114 276 55 q 208 249 208 172 l 208 1044 l 368 1044 l 368 257 q 402 166 368 202 q 496 131 437 131 q 575 147 536 131 q 645 187 615 163 l 702 52 q 597 6 656 24 q 480 -11 538 -11 m 286 1112 l 216 1174 l 393 1419 l 494 1324 l 286 1112 z "},"ľ":{"ha":781,"x_min":208,"x_max":702,"o":"m 480 -11 q 337 22 399 -11 q 242 114 276 55 q 208 249 208 172 l 208 1044 l 368 1044 l 368 257 q 402 166 368 202 q 496 131 437 131 q 575 147 536 131 q 645 187 615 163 l 702 52 q 597 6 656 24 q 480 -11 538 -11 m 513 721 l 516 1044 l 644 1044 l 625 721 l 513 721 z "},"ļ":{"ha":781,"x_min":208,"x_max":702,"o":"m 480 -11 q 337 22 399 -11 q 242 114 276 55 q 208 249 208 172 l 208 1044 l 368 1044 l 368 257 q 402 166 368 202 q 496 131 437 131 q 575 147 536 131 q 645 187 615 163 l 702 52 q 597 6 656 24 q 480 -11 538 -11 m 396 -395 l 359 -351 l 416 -299 q 443 -269 431 -284 q 463 -240 456 -254 q 470 -213 470 -225 l 492 -211 q 480 -238 490 -226 q 448 -251 470 -251 q 396 -229 421 -251 q 370 -171 370 -206 q 394 -113 370 -134 q 448 -92 418 -92 q 505 -115 481 -92 q 528 -183 528 -138 q 515 -249 528 -219 q 484 -301 502 -279 q 455 -334 467 -323 l 396 -395 z "},"ŀ":{"ha":781,"x_min":208,"x_max":816,"o":"m 480 -11 q 337 22 399 -11 q 242 114 276 55 q 208 249 208 172 l 208 1044 l 368 1044 l 368 257 q 402 166 368 202 q 496 131 437 131 q 575 147 536 131 q 645 187 615 163 l 702 52 q 597 6 656 24 q 480 -11 538 -11 m 700 401 q 619 435 652 401 q 585 517 585 468 q 618 598 585 566 q 700 631 652 631 q 783 598 749 631 q 816 517 816 566 q 783 435 816 468 q 700 401 749 401 z "},"ḷ":{"ha":781,"x_min":208,"x_max":702,"o":"m 480 -11 q 337 22 399 -11 q 242 114 276 55 q 208 249 208 172 l 208 1044 l 368 1044 l 368 257 q 402 166 368 202 q 496 131 437 131 q 575 147 536 131 q 645 187 615 163 l 702 52 q 597 6 656 24 q 480 -11 538 -11 m 444 -298 q 368 -268 399 -298 q 336 -191 336 -237 q 368 -115 336 -146 q 444 -84 399 -84 q 520 -115 489 -84 q 551 -191 551 -146 q 520 -268 551 -237 q 444 -298 489 -298 z "},"ḹ":{"ha":781,"x_min":33,"x_max":702,"o":"m 480 -11 q 337 22 399 -11 q 242 114 276 55 q 208 249 208 172 l 208 1044 l 368 1044 l 368 257 q 402 166 368 202 q 496 131 437 131 q 575 147 536 131 q 645 187 615 163 l 702 52 q 597 6 656 24 q 480 -11 538 -11 m 444 -298 q 368 -268 399 -298 q 336 -191 336 -237 q 368 -115 336 -146 q 444 -84 399 -84 q 520 -115 489 -84 q 551 -191 551 -146 q 520 -268 551 -237 q 444 -298 489 -298 m 33 1184 l 33 1284 l 540 1284 l 540 1184 l 33 1184 z "},"ǉ":{"ha":781,"x_min":116,"x_max":731,"o":"m 494 -296 q 401 -280 449 -296 q 318 -237 353 -264 l 361 -118 q 423 -154 388 -140 q 487 -169 458 -169 q 551 -140 527 -169 q 574 -66 574 -111 l 574 724 l 699 724 l 699 -73 q 642 -234 699 -173 q 494 -296 585 -296 m 303 -11 q 166 50 217 -11 q 116 210 116 111 l 116 1044 l 240 1044 l 240 207 q 261 142 240 165 q 314 119 281 119 q 355 127 334 119 q 397 149 376 135 l 439 30 q 376 1 411 13 q 303 -11 340 -11 m 420 594 l 420 724 l 699 724 l 699 594 l 420 594 m 635 832 q 564 860 591 832 q 537 932 537 888 q 565 1003 537 976 q 635 1031 593 1031 q 704 1003 677 1031 q 731 932 731 976 q 705 860 731 888 q 635 832 678 832 z "},"ḻ":{"ha":781,"x_min":189,"x_max":702,"o":"m 480 -11 q 337 22 399 -11 q 242 114 276 55 q 208 249 208 172 l 208 1044 l 368 1044 l 368 257 q 402 166 368 202 q 496 131 437 131 q 575 147 536 131 q 645 187 615 163 l 702 52 q 597 6 656 24 q 480 -11 538 -11 m 190 -277 l 190 -176 l 697 -176 l 697 -277 l 190 -277 z "},"ł":{"ha":781,"x_min":70,"x_max":702,"o":"m 111 389 l 70 489 l 224 571 l 347 625 l 465 692 l 507 593 l 347 506 l 224 453 l 111 389 m 480 -11 q 337 22 399 -11 q 242 114 276 55 q 208 249 208 172 l 208 1044 l 368 1044 l 368 257 q 402 166 368 202 q 496 131 437 131 q 575 147 536 131 q 645 187 615 163 l 702 52 q 597 6 656 24 q 480 -11 538 -11 z "},"m":{"ha":781,"x_min":52,"x_max":731,"o":"m 52 0 l 52 724 l 182 724 l 182 638 l 200 638 l 171 604 q 225 699 189 664 q 312 734 260 734 q 395 703 359 734 q 440 619 431 672 l 418 646 l 450 646 l 425 619 q 482 702 439 670 q 580 734 525 734 q 651 718 623 734 q 698 672 680 701 q 723 608 715 644 q 731 536 731 573 l 731 0 l 589 0 l 589 524 q 572 582 589 562 q 525 603 555 603 q 476 583 496 603 q 455 524 455 563 l 455 0 l 328 0 l 328 524 q 311 583 328 563 q 264 603 293 603 q 215 582 235 603 q 194 522 194 562 l 194 0 l 52 0 z "}}}
